<?xml version="1.0" standalone="no"?>
<!DOCTYPE svg PUBLIC "-//W3C//DTD SVG 1.1//EN" "http://www.w3.org/Graphics/SVG/1.1/DTD/svg11.dtd" >
<svg xmlns="http://www.w3.org/2000/svg" xmlns:xlink="http://www.w3.org/1999/xlink" version="1.1">
<metadata>
Created by FontForge 20201107 at Mon Mar 25 13:19:13 2024
 By 
Copyright (c) 2006 by BV Fonts. All rights reserved.
</metadata>
<defs>
<font id="SpinCycle3DOT" horiz-adv-x="1402" >
  <font-face 
    font-family="Spin Cycle 3D OT"
    font-weight="400"
    font-stretch="normal"
    units-per-em="2048"
    panose-1="2 0 0 0 0 0 0 0 0 0"
    ascent="1556"
    descent="-492"
    x-height="1229"
    cap-height="1239"
    bbox="10 -1036 2556 1538"
    underline-thickness="102"
    underline-position="-204"
    unicode-range="U+000D-FB02"
  />
<missing-glyph horiz-adv-x="993" 
d="M98 0v1251h783v-1251h-783zM190 1149v-1055h596v1055h-596z" />
    <glyph glyph-name="fi" unicode="fi" horiz-adv-x="1753" 
d="M981 1243h307l-4 -12l8 -8q60 57 148 57q94 0 172 -84l96 -109q35 -50 35 -116q0 -79 -49 -137l8 -11v-860h-352l-93 84v748h-188q-27 0 -51 -17l82 -84v-354h-269q-70 -190 -187.5 -283.5t-254.5 -93.5h-215l-92 84v365h221q27 0 42.5 17t36 65t65.5 171q56 155 98 265
q50 133 174.5 223t261.5 90zM1300 842v-752h275v752q-59 -39 -135 -39q-81 0 -140 39zM1212 1198h-231q-124 0 -237.5 -82t-157.5 -203l-164 -442q-13 -34 -50.5 -68t-68.5 -34h-178v-279h178q116 0 221.5 81t155.5 204l37 92h256v276h-154q38 109 69.5 143t92.5 34h242
q-45 62 -45 145q0 72 34 133zM1440 881q74 0 125 51.5t51 126.5q0 73 -51 124.5t-125 51.5q-75 0 -126.5 -51t-51.5 -125q0 -75 51.5 -126.5t126.5 -51.5z" />
    <glyph glyph-name="fl" unicode="fl" horiz-adv-x="2224" 
d="M981 1239h592l84 -92l256 -731h217l84 -92v-357h-215q-164 0 -304 105.5t-200 285.5l-49 146q-6 16 -41 114.5t-62 172.5h-274q-26 0 -51 -19l82 -82v-352h-269l-26 -68q-51 -130 -170.5 -219.5t-245.5 -89.5h-215l-92 82v367h221q42 0 76 75l41 109q60 163 125 332
q51 133 175 223t261 90zM1542 1196h-291l287 -819q42 -120 148 -201.5t225 -81.5h176v279h-174q-83 0 -117 98zM1163 1196h-182q-125 0 -237 -81.5t-158 -205.5l-164 -440q-14 -37 -51 -70.5t-68 -33.5h-178v-279h178q117 0 222 81.5t155 205.5l37 90h256v276h-154l27 74
q14 39 55 72t80 33h270z" />
    <glyph glyph-name=".notdef" horiz-adv-x="993" 
d="M98 0v1251h783v-1251h-783zM190 1149v-1055h596v1055h-596z" />
    <glyph glyph-name=".null" horiz-adv-x="0" 
 />
    <glyph glyph-name="nonmarkingreturn" horiz-adv-x="682" 
 />
    <glyph glyph-name="CR" unicode="&#xd;" horiz-adv-x="663" 
 />
    <glyph glyph-name="space" unicode=" " horiz-adv-x="663" 
 />
    <glyph glyph-name="exclam" unicode="!" horiz-adv-x="616" 
d="M100 1233h424l51 -92v-795h-92q1 -1 21 -21.5t42 -46t41 -66t19 -79.5q0 -89 -64.5 -152t-152.5 -63q-69 0 -127 37q-6 3 -22 14.5t-44.5 37t-53 55t-42.5 72t-18 85.5q0 114 88 178l-70 31v805zM303 397q-74 0 -126 -51.5t-52 -126.5q0 -72 52.5 -124t125.5 -52
q72 0 124 52t52 124q0 75 -51 126.5t-125 51.5zM479 1190h-307v-717h307v717z" />
    <glyph glyph-name="quotedbl" unicode="&#x22;" horiz-adv-x="1101" 
d="M711 565l-125 82v610h424l51 -92v-600h-350zM207 561l-125 82v612h424l51 -92v-602h-350zM659 690h306v524h-306v-524zM156 686h305v526h-305v-526z" />
    <glyph glyph-name="numbersign" unicode="#" horiz-adv-x="1474" 
d="M788 643h-12q-12 -25 -33 -88h17zM995 1210h316l82 -92l-31 -82h22q3 0 80 -92l-106 -301h-137q-1 -4 -7.5 -19t-13 -32.5t-12.5 -36.5h22l80 -94l-106 -299h-140q-19 -63 -61 -172h-305l-96 82l32 90h-14l-61 -172h-306l-96 82l35 96l-90 76l111 311h122l29 88h-8
l-94 84l110 309h135l66 174h317l80 -92l-30 -82h12q10 37 63 174zM788 510h-221l95 260h223zM1249 1167h-221l-63 -174h-224l66 174h-223l-62 -174h-139l-80 -223h135l-94 -260h-121l-80 -221h121l-63 -174h223l63 174h222l-64 -174h223l64 174h135l82 221h-137l94 260h137
l80 223h-137z" />
    <glyph glyph-name="dollar" unicode="$" horiz-adv-x="942" 
d="M717 1137v-72h71l82 -94v-273h-75q1 -2 10 -16q86 -83 106.5 -121t20.5 -108q0 -104 -58 -178t-157 -91v-213h-271l-92 82v127h-116l-93 82v283h74q-64 45 -100.5 107.5t-36.5 131.5q0 124 75 202.5t197 78.5v164h281zM319 801q0 22 25 22h399v197h-151v166h-195v-166
h-53q-97 0 -158 -67.5t-61 -168.5q0 -91 64 -155t155 -64h242q24 0 24 -41q0 -24 -24 -24h-398v-195h209v-207h195v207q96 4 154.5 70.5t58.5 165.5q0 92 -63.5 155.5t-155.5 63.5h-242q-25 0 -25 41z" />
    <glyph glyph-name="percent" unicode="%" horiz-adv-x="1812" 
d="M1294 348v-26h31q45 0 80 34t35 80q0 31 -27 31q-49 0 -84 -34.5t-35 -84.5zM592 846v31h-27q-49 0 -84 -34.5t-35 -84.5q0 -6 1 -11t3 -8t3.5 -4.5t5.5 -2.5t5.5 -1h6.5h6q47 0 81 34t34 81zM1325 831q124 0 235 -70t176.5 -182t65.5 -231q0 -163 -113 -277t-276 -114
h-487q-72 0 -154.5 48t-139.5 123.5t-57 147.5q0 38 17 91q-121 0 -239.5 67t-194.5 179.5t-76 232.5q0 164 115.5 279.5t279.5 115.5h488q136 0 239 -99t103 -224q0 -46 -15 -89q6 2 33 2zM1325 279h-158v157q0 64 46.5 111t111.5 47t111.5 -47t46.5 -111q0 -66 -46 -111.5
t-112 -45.5zM635 1004v-158q0 -66 -46 -112t-112 -46t-112 46t-46 112q0 64 46.5 111t111.5 47h158zM1325 786q-144 0 -248 -102.5t-104 -247.5v-157h-135q-17 0 -23 2q4 16 10 22l324 580q33 59 33 121q0 87 -60 139.5t-157 52.5h-488q-144 0 -248 -102.5t-104 -247.5
q0 -148 104 -250t248 -102q147 0 249.5 102.5t102.5 249.5v158h136q7 0 22 -5l-8 -20l-324 -580q-37 -64 -37 -123q0 -84 62 -138t158 -54h487q147 0 249.5 102.5t102.5 249.5q0 145 -103 247.5t-249 102.5z" />
    <glyph glyph-name="ampersand" unicode="&#x26;" 
d="M860 420v8l-29 -18h17q12 0 12 10zM899 680q48 72 115 111h-211l8 -11q20 -18 88 -100zM82 420q0 240 174 348q-10 3 -20 23h2q-70 94 -70 190q0 115 83.5 186.5t207.5 71.5h626l82 -92v-324h142l84 -92v-354h-86v-45q0 -156 -108.5 -263.5t-264.5 -107.5h-387
q-109 0 -216.5 64t-177 171.5t-71.5 223.5zM848 365h-389q-56 0 -56 81q0 56 56 56h149q82 0 137.5 45.5t55.5 118.5q0 87 -84 153l-127 99h452v278h-583q-106 0 -177 -59.5t-71 -155.5q0 -82 61 -164q10 -9 11 -14l59 -45q-217 -82 -217 -338q0 -136 98.5 -235t235.5 -99
h389q138 0 235 99t97 235v82h86v278h-115q-100 0 -174 -72.5t-74 -177.5v-110q0 -55 -55 -55z" />
    <glyph glyph-name="quotesingle" unicode="'" horiz-adv-x="598" 
d="M207 561l-125 82v612h424l51 -92v-602h-350zM156 686h305v526h-305v-526z" />
    <glyph glyph-name="parenleft" unicode="(" horiz-adv-x="835" 
d="M82 641q2 127 49 241.5t130.5 201.5t208.5 138.5t273 51.5l82 -92v-357q-133 0 -214 -74t-81 -198q0 -72 29 -135q67 -43 184 -43q24 -24 82 -94v-355q-144 0 -281 58.5t-238 155.5t-162.5 229t-61.5 272zM125 641q0 -159 76.5 -294.5t209 -215.5t289.5 -80v279
q-125 0 -211 92t-86 219t86.5 219t210.5 92v279q-157 0 -289.5 -80t-209 -215.5t-76.5 -294.5z" />
    <glyph glyph-name="parenright" unicode=")" horiz-adv-x="835" 
d="M700 641q0 158 -75.5 293.5t-208 216t-291.5 80.5v-279q124 0 210.5 -93t86.5 -218q0 -127 -85.5 -219t-211.5 -92v-279q157 0 290 81t209 216.5t76 292.5zM174 825l-92 82v367h27q152 0 285.5 -55.5t227.5 -151.5t148.5 -229.5t54.5 -284.5q0 -126 -47 -240t-130 -199.5
t-206.5 -136.5t-267.5 -51l-92 82v367q145 0 220 74.5t75 191.5q0 86 -43 150q-64 34 -160 34z" />
    <glyph glyph-name="asterisk" unicode="*" 
d="M694 1257q55 0 120.5 -45t111.5 -111t49 -124q-2 -21 -8 -66q110 45 147 45q61 0 114.5 -30t87.5 -74.5t54.5 -92.5t22.5 -89q0 -67 -44 -120t-112 -67l-176 -37l121 -135q16 -23 23.5 -35.5t17.5 -43.5t10 -64q0 -72 -59 -125t-136 -53q-60 0 -140 57.5t-116 122.5
l-20 37l-35 -60q-29 -49 -46.5 -75.5t-32.5 -45.5t-30.5 -25.5t-29 -9t-39.5 -3.5q-64 0 -135.5 38.5t-122.5 105t-51 136.5q0 65 36 115l84 92q-107 20 -192.5 106.5t-85.5 174.5q0 85 56.5 142.5t140.5 57.5q39 0 79 -16l160 -74q-2 6 -6.5 36.5t-9 78.5t-4.5 82
q0 85 55.5 139.5t140.5 54.5zM694 1214q-63 0 -108 -44t-45 -107q0 -2 1 -7.5t1 -8.5l28 -250l-229 102q-32 14 -63 14q-66 0 -110 -45.5t-44 -111.5q0 -54 35 -95.5t86 -52.5l248 -51l-170 -184q-41 -44 -41 -105q0 -63 46 -108t109 -45q89 0 133 78l123 219l127 -217
q47 -80 129 -80q63 0 109.5 45t46.5 108t-39 105l-170 184l246 51q54 11 88.5 53t34.5 97q0 63 -44.5 109t-107.5 46q-35 0 -63 -14l-230 -102l27 266q0 63 -44 107t-110 44z" />
    <glyph glyph-name="plus" unicode="+" horiz-adv-x="1150" 
d="M387 1128h365q8 -7 84 -92v-213h223l82 -92v-354h-305v-305h-357l-92 82v223h-213l-92 82v364h305v305zM709 1085h-279v-305h-305v-278h305v-305h279v305h307v278h-307v305z" />
    <glyph glyph-name="comma" unicode="," horiz-adv-x="614" 
d="M303 369q36 0 85.5 -23t98.5 -64.5t83 -109.5t34 -147q0 -285 -299 -435q-33 33 -90 82l-74 101q47 44 113 121q-15 10 -82 77q-47 35 -68.5 75.5t-21.5 100.5q0 91 64.5 156.5t156.5 65.5zM303 324q-74 0 -126 -52t-52 -125q0 -124 154 -174q38 -11 38 -39
q0 -61 -116 -165l28 -39q248 125 248 383q0 96 -46 153.5t-128 57.5z" />
    <glyph glyph-name="hyphen" unicode="-" horiz-adv-x="892" 
d="M125 780v-278h631v278h-631zM82 459v364h719l82 -92v-354h-709z" />
    <glyph glyph-name="period" unicode="." horiz-adv-x="616" 
d="M303 391q106 0 170 -82l14 -18q87 -91 103 -119t16 -88q0 -91 -63 -153t-154 -62q-68 0 -115 33q-16 10 -43 32.5t-63 59.5t-61 85t-25 93q0 90 64.5 154.5t156.5 64.5zM303 348q-74 0 -126 -51.5t-52 -124.5q0 -75 52 -126.5t126 -51.5t125 51.5t51 126.5
q0 74 -51.5 125t-124.5 51z" />
    <glyph glyph-name="slash" unicode="/" horiz-adv-x="978" 
d="M176 -37l-94 82l416 1192h391l80 -92l-416 -1182h-377zM143 88h295l389 1106h-297z" />
    <glyph glyph-name="zero" unicode="0" horiz-adv-x="1372" 
d="M666 369q107 0 178 79t71 187q0 83 -45 151q-54 31 -116 31q-105 0 -181.5 -80.5t-76.5 -189.5q0 -75 34 -139q56 -39 136 -39zM666 1264q169 0 332 -106.5t263.5 -273.5t100.5 -337q0 -123 -47.5 -238t-128.5 -200t-194 -136t-238 -51q-108 0 -213.5 38t-193 106
t-154.5 156.5t-104.5 195.5t-37.5 217q0 167 82 311.5t224.5 231t308.5 86.5zM666 326q-126 0 -210.5 91t-84.5 218q0 126 86 217.5t209 91.5q124 0 209.5 -92.5t85.5 -216.5t-85.5 -216.5t-209.5 -92.5zM666 1219q-117 0 -223.5 -47.5t-182.5 -126.5t-121 -186.5
t-45 -223.5q0 -118 45 -226t121.5 -187t182.5 -126t223 -47q156 0 287.5 80t206.5 214.5t75 291.5q0 155 -75 289t-206.5 214.5t-287.5 80.5z" />
    <glyph glyph-name="one" unicode="1" horiz-adv-x="1122" 
d="M174 795l-92 82v362h219q146 0 291.5 -120t208.5 -283q86 -230 311 -875h-373l-98 90l-264 744h-203zM680 86h289l-293 825q-43 119 -151.5 202t-223.5 83h-176v-276h176q78 0 115 -101z" />
    <glyph glyph-name="two" unicode="2" horiz-adv-x="1316" 
d="M152 1239h696q122 0 229 -71.5t168.5 -184.5t61.5 -235q0 -109 -58.5 -201.5t-156.5 -136.5h63l82 -95v-354h-1063l-92 82v487q0 146 131 228l66 33h-33l-94 81v367zM848 1196h-651v-278h651q55 0 55 -82q0 -56 -55 -56h-389q-138 0 -236 -72t-98 -178v-444h987v279h-709
v129q21 8 56 8h389q139 0 235.5 100.5t96.5 257.5q0 138 -97 237t-235 99z" />
    <glyph glyph-name="three" unicode="3" horiz-adv-x="1247" 
d="M82 1239h694q118 0 225.5 -68t171.5 -176t64 -221q0 -132 -53 -221q53 -86 53 -221q0 -156 -108.5 -263.5t-264.5 -107.5h-661l-92 82v367h405l-59 49v332h-283l-92 81v367zM776 1196h-651v-278h651q58 0 58 -82q0 -56 -58 -56h-276v-278h276q58 0 58 -82q0 -55 -58 -55
h-622v-279h622q139 0 237.5 98t98.5 236v26q0 109 -63 195q63 84 63 219q0 138 -99 237t-237 99z" />
    <glyph glyph-name="four" unicode="4" horiz-adv-x="1380" 
d="M1030 1239l82 -92v-529h176l82 -92v-354h-258v-211h-354l-92 82v129h-201q-117 0 -199 64q-122 94 -153 141.5t-31 136.5q0 97 68 188l407 537h473zM709 575h-250l250 332v-332zM985 575v621h-407l-394 -518q-59 -76 -59 -164q0 -97 71 -156t181 -59h332v-213h276v213
h260v276h-260z" />
    <glyph glyph-name="five" unicode="5" horiz-adv-x="1316" 
d="M82 752v487h1003l82 -92v-356h-166q57 -23 108 -60t97 -90.5t73.5 -130t27.5 -164.5q0 -164 -106.5 -274.5t-266.5 -110.5h-688l-94 82v367h215q-131 50 -208 141.5t-77 200.5zM403 778v140h639v278h-917v-444q0 -106 97.5 -178t236.5 -72h389q55 0 55 -82q0 -55 -55 -55
h-651v-279h651q138 0 235 99t97 235v26q0 138 -97 235t-235 97h-445z" />
    <glyph glyph-name="six" unicode="6" horiz-adv-x="1316" 
d="M82 420v440q0 157 110 268t267 111h626l82 -92v-356h-161q147 -61 224 -176.5t77 -282.5q0 -152 -108 -261.5t-265 -109.5h-387q-112 0 -220.5 65.5t-176.5 172.5t-68 221zM903 446v-26q0 -55 -55 -55h-389q-23 0 -39.5 17t-16.5 38v82h445q55 0 55 -56zM403 780v80
q0 58 56 58h583v278h-583q-138 0 -236 -98.5t-98 -237.5v-440q0 -136 98.5 -235t235.5 -99h389q138 0 235 99t97 235v26q0 138 -97.5 236t-234.5 98h-445z" />
    <glyph glyph-name="seven" unicode="7" horiz-adv-x="1112" 
d="M82 1239h627q101 0 192.5 -54t146 -142t54.5 -183q0 -76 -33 -143l-352 -756h-389l-97 82l347 748h-404l-92 81v367zM709 1196h-584v-278h559l-385 -832h307l340 735q31 67 31 127q0 109 -77 178.5t-191 69.5z" />
    <glyph glyph-name="eight" unicode="8" horiz-adv-x="1316" 
d="M459 1239h389q89 0 174.5 -40.5t147 -105.5t99.5 -150t38 -169q0 -132 -56 -221q56 -86 56 -221q0 -156 -108.5 -263.5t-264.5 -107.5h-387q-117 0 -224.5 62.5t-174 169.5t-66.5 227q0 132 51 221q-51 80 -51 219q0 157 110 268t267 111zM903 446v-26q0 -55 -55 -55
h-389q-23 0 -39.5 17t-16.5 38v26q0 56 56 56h389q55 0 55 -56zM403 836v24q0 58 56 58h389q55 0 55 -58v-24q0 -56 -55 -56h-389q-23 0 -39.5 16.5t-16.5 39.5zM848 1196h-389q-138 0 -236 -98.5t-98 -237.5v-24q0 -111 63 -195q-63 -86 -63 -221q0 -136 98.5 -235
t235.5 -99h389q138 0 235 99t97 235v26q0 107 -64 195q64 85 64 219q0 138 -97 237t-235 99z" />
    <glyph glyph-name="nine" unicode="9" horiz-adv-x="1316" 
d="M459 1239h389q114 0 221 -68t172.5 -176.5t65.5 -220.5v-442q0 -156 -108.5 -263.5t-264.5 -107.5h-621l-92 82v367h166q-40 18 -147 116l-47 43q-111 114 -111 291q0 157 110 268t267 111zM903 780h-444q-23 0 -39.5 16.5t-16.5 39.5v24q0 58 56 58h389q55 0 55 -58v-80
zM848 1196h-389q-138 0 -236 -98.5t-98 -237.5v-24q0 -137 98 -235.5t236 -98.5h444v-82q0 -55 -55 -55h-584v-279h584q138 0 235 99t97 235v440q0 138 -97 237t-235 99z" />
    <glyph glyph-name="colon" unicode=":" horiz-adv-x="616" 
d="M303 440q106 0 170 -82l98 -108q35 -50 35 -117q0 -91 -63 -153t-154 -62q-63 0 -92.5 16t-112.5 101q-48 16 -75 73.5t-27 112.5q0 90 64.5 154.5t156.5 64.5zM303 1024q106 0 170 -82l14 -18q87 -91 103 -119t16 -88q0 -91 -63 -153t-154 -62q-46 0 -66 5t-50 28
t-89 83q-47 16 -74.5 73.5t-27.5 111.5q0 92 64.5 156.5t156.5 64.5zM303 981q-74 0 -126 -51.5t-52 -126.5q0 -73 52 -124.5t126 -51.5q73 0 124.5 51.5t51.5 124.5q0 75 -51 126.5t-125 51.5zM303 397q-74 0 -126 -51.5t-52 -124.5t52.5 -125.5t125.5 -52.5t124.5 52
t51.5 126q0 73 -51.5 124.5t-124.5 51.5z" />
    <glyph glyph-name="semicolon" unicode=";" horiz-adv-x="628" 
d="M82 782q0 91 64.5 156.5t156.5 65.5q104 0 170 -84l98 -109q35 -50 35 -117q0 -91 -63 -153t-154 -62q-60 0 -91 17t-114 100l-20 14q-82 67 -82 172zM317 418q123 0 212 -103.5t89 -240.5q0 -278 -301 -434q-20 22 -88 81l-69 101q82 79 108 119l-84 79q-88 66 -88 177
q0 92 64.5 156.5t156.5 64.5zM303 606q73 0 124.5 51t51.5 125t-51.5 125t-124.5 51q-74 0 -126 -51.5t-52 -124.5t52 -124.5t126 -51.5zM317 375q-73 0 -125.5 -52.5t-52.5 -125.5q0 -124 154 -174q39 -12 39 -39q0 -60 -115 -166l27 -39q250 127 250 383q0 95 -49.5 154
t-127.5 59z" />
    <glyph glyph-name="less" unicode="&#x3c;" horiz-adv-x="1110" 
d="M1018 512l82 -90v-383l-735 280q-116 45 -199.5 133t-83.5 189q0 168 188 242l748 297l82 -97v-383q-85 -35 -338 -108q80 -28 256 -80zM973 182v299q-59 19 -228 69t-315 95q184 53 543 172v297l-686 -270q-162 -64 -162 -203q0 -66 40.5 -118.5t125.5 -100.5z" />
    <glyph glyph-name="equal" unicode="=" horiz-adv-x="1040" 
d="M174 190l-92 82v367h33l-33 23v364h864l84 -92v-356h-35l35 -33v-355h-856zM125 315h778v279h-778v-279zM125 705h778v278h-778v-278z" />
    <glyph glyph-name="greater" unicode="&#x3e;" horiz-adv-x="1110" 
d="M125 481v-299l684 262q164 62 164 197q0 139 -162 203l-686 270v-297q47 -18 137 -47.5t167 -53t155 -46.5t84 -25q-23 -9 -49 -16.5t-64 -17.5t-152 -44t-278 -86zM82 119v407q98 24 340 92q-272 84 -340 115v447l743 -297q275 -111 275 -328q0 -79 -50 -140.5
t-141 -95.5l-735 -280z" />
    <glyph glyph-name="question" unicode="?" horiz-adv-x="925" 
d="M221 264q0 81 53 146q-36 24 -59 47l170 350h-211l-92 82v364h440q162 0 277.5 -110.5t115.5 -263.5q0 -79 -34 -148l-174 -358h-70q69 -69 87.5 -103.5t18.5 -91.5q0 -91 -62 -154t-153 -63q-66 0 -116 35l-90 84q-48 23 -74.5 76t-26.5 108zM522 1208h-397v-276h373
l-211 -432h309l162 336q30 64 30 129q0 107 -75 175t-191 68zM618 264q0 75 -52 126.5t-126 51.5q-73 0 -124.5 -52t-51.5 -126t51 -125t125 -51t126 51.5t52 124.5z" />
    <glyph glyph-name="at" unicode="@" horiz-adv-x="1349" 
d="M668 1262q129 0 253 -57t215 -150.5t147 -219t56 -255.5q0 -174 -95 -320t-251 -217l-250 -115l-92 80v213q-34 20 -108 94l-13 9v-359h-356l-92 82v621q0 121 49 232t129.5 190t187.5 125.5t220 46.5zM727 506q-32 0 -56 24t-24 56q0 31 24 54.5t56 23.5t55 -23t23 -55
q0 -35 -22.5 -57.5t-55.5 -22.5zM668 1217q-145 0 -270 -73t-199 -199.5t-74 -276.5v-576h278v576q0 113 77.5 192.5t187.5 79.5q115 0 192 -86h-141q-110 0 -189 -80.5t-79 -193.5q0 -107 70 -186.5t173 -86.5v-229l195 88q149 67 236 203t87 299q0 147 -73 273.5
t-198.5 201t-272.5 74.5z" />
    <glyph glyph-name="A" unicode="A" horiz-adv-x="1316" 
d="M903 616h-500v54q0 112 72 195t178 83q105 0 177.5 -84t72.5 -194v-54zM653 1225q-146 0 -268 -76t-191 -203.5t-69 -275.5v-580h278v250h500v-250h277v580q0 148 -68.5 275.5t-190.5 203.5t-268 76zM653 1268q120 0 240.5 -61t210.5 -157.5t146.5 -221t56.5 -244.5v-621
h-355l-92 82v168h-330v-250h-356l-92 82v625q0 160 75.5 297.5t207.5 219t288 81.5zM539 659h321v11q0 70 -25 110.5t-96 40.5q-66 0 -121 -46t-79 -116z" />
    <glyph glyph-name="B" unicode="B" horiz-adv-x="1316" 
d="M530 459v-49h56l-49 49h-7zM82 1239h766q76 0 159.5 -43t149 -109t108 -150.5t42.5 -162.5q0 -132 -56 -221q56 -86 56 -221q0 -156 -108.5 -263.5t-264.5 -107.5h-760l-92 82v1196zM903 420q0 -55 -55 -55h-445v553h445q55 0 55 -82q0 -56 -55 -56h-277v-278h277
q55 0 55 -82zM848 1196h-723v-1110h723q138 0 235 99t97 235v26q0 107 -64 195q64 85 64 219q0 138 -97 237t-235 99z" />
    <glyph glyph-name="C" unicode="C" horiz-adv-x="1146" 
d="M94 641q0 -147 70 -274.5t192.5 -204t266.5 -76.5h389v279h-389q-104 0 -177 81.5t-73 194.5q0 110 71.5 193.5t178.5 83.5h389v278h-389q-146 0 -268.5 -76.5t-191.5 -204t-69 -274.5zM51 641q0 159 75 296.5t207.5 219.5t289.5 82h432l82 -92v-356h-428
q-87 0 -148 -72.5t-61 -165.5q0 -66 26 -117q45 -26 97 -26h432l82 -95v-354h-428q-128 0 -249 54.5t-211 146t-144 217.5t-54 262z" />
    <glyph glyph-name="D" unicode="D" horiz-adv-x="1316" 
d="M653 365h-250v553h250q105 0 177.5 -84t72.5 -193q0 -113 -73 -194.5t-177 -81.5zM653 1196h-528v-1110h528q146 0 268 76t190.5 203.5t68.5 275.5q0 147 -69 274.5t-191 204t-267 76.5zM82 1239h571q130 0 251 -57.5t209 -151.5t141 -220t53 -257q0 -157 -74 -293
t-205.5 -217.5t-288.5 -81.5h-565l-92 82v1196zM530 410h123q87 0 147 69.5t60 161.5q0 69 -24.5 109.5t-96.5 40.5h-209v-381z" />
    <glyph glyph-name="E" unicode="E" horiz-adv-x="1216" 
d="M623 1239h501q1 1 20.5 -20.5t61.5 -71.5v-356h-268l61 -60v-321h125q0 1 3 -2.5t10 -12t16 -19t23.5 -27.5t29.5 -34v-354h-497q-127 0 -248.5 55.5t-211 146.5t-144 215t-54.5 255q0 119 44 230t119.5 194t182.5 132.5t226 49.5zM1081 1196h-458q-146 0 -268.5 -76.5
t-191.5 -204t-69 -274.5q0 -148 69 -275.5t191.5 -203.5t268.5 -76h458v279h-458q-145 0 -215 137h464v278h-464q70 138 215 138h458v278z" />
    <glyph glyph-name="F" unicode="F" horiz-adv-x="1177" 
d="M1085 1239l82 -92v-356h-428q-116 0 -180 -113h406l82 -94v-355h-517v-268h-356l-92 82v598q0 118 44.5 227.5t120 191t182 130.5t224.5 49h432zM1042 918v278h-389q-146 0 -268 -76.5t-191 -204t-69 -274.5v-555h278v268h519v279h-519v8q0 112 72 194.5t178 82.5h389z
" />
    <glyph glyph-name="G" unicode="G" horiz-adv-x="1286" 
d="M500 553q0 -61 24 -117q45 -26 105 -26l-49 49h-11v272q-69 -69 -69 -178zM623 1239h569l84 -92v-356h-59l59 -60v-770h-567q-128 0 -248.5 55t-210.5 146t-144.5 217.5t-54.5 261.5q0 158 75 295.5t207.5 220t289.5 82.5zM1149 1196h-526q-146 0 -268.5 -76.5
t-191.5 -204t-69 -274.5q0 -148 69 -275.5t191.5 -203.5t268.5 -76h526v694h-537v-278h260v-137h-249q-104 0 -177 81.5t-73 194.5q0 112 72 194.5t178 82.5h526v278z" />
    <glyph glyph-name="H" unicode="H" horiz-adv-x="1249" 
d="M836 1196v-416h-433v416h-278v-1110h278v416h433v-416h278v1110h-278zM791 823v416h366l82 -92v-1186h-354l-94 82v334h-261v-416h-356l-92 82v1196h367l81 -92v-324h261z" />
    <glyph glyph-name="I" unicode="I" horiz-adv-x="540" 
d="M82 43v1196h367l81 -92v-1186h-356zM125 1196v-1110h278v1110h-278z" />
    <glyph glyph-name="J" unicode="J" horiz-adv-x="1079" 
d="M623 541v700h364l82 -92v-696q0 -206 -143 -349h-2q-140 -143 -344 -143h-406l-92 82v367h410q56 0 93.5 38t37.5 93zM492 367h-367v-279h367q186 0 319 133t133 320v657h-276v-657q0 -73 -51 -123.5t-125 -50.5z" />
    <glyph glyph-name="K" unicode="K" horiz-adv-x="1339" 
d="M530 1147v-152l250 244h473l76 -92l-579 -578q-2 -6 -2 -32q0 -34 42 -60t109 -40t136.5 -20.5t138.5 -6.5q3 -4 29.5 -35t51.5 -60v-354h-69q-198 0 -357.5 63.5t-298.5 202.5v-266h-356l-92 82v1196h367zM629 678q129 132 518 518h-348l-396 -385v385h-278v-1110h278
v446q5 -119 103 -222.5t257.5 -163.5t336.5 -60h28v279q-135 0 -250.5 32.5t-186 92.5t-70.5 135q0 29 8 53z" />
    <glyph glyph-name="L" unicode="L" horiz-adv-x="1122" 
d="M403 420v776h-278v-776q0 -136 98.5 -235t235.5 -99h526v279h-526q-56 0 -56 55zM82 420v819h367l81 -92v-737h500l82 -95v-354h-565q-56 0 -118.5 19t-124 58t-111 92.5t-80.5 129t-31 160.5z" />
    <glyph glyph-name="M" unicode="M" horiz-adv-x="1794" 
d="M1204 1272q146 0 281 -83.5t217 -219.5t82 -283v-723h-357l-92 82v729q0 17 -4 28t-11.5 15t-12 5t-12.5 1h-3q-57 0 -96 -40t-39 -97v-723h-356l-92 82v729q0 17 -4 28t-11.5 15t-12 5t-12.5 1h-3q-57 0 -96.5 -40t-39.5 -97v-723h-356l-92 82v729q0 135 66.5 249.5
t180.5 181.5t249 67q177 0 313 -115q139 115 313 115zM1204 1227q-180 0 -313 -127q-133 127 -313 127q-187 0 -320 -133.5t-133 -319.5v-684h278v684q0 74 51 125t124 51t123.5 -51t50.5 -125v-684h278v684q0 74 50.5 125t123.5 51q74 0 125 -51t51 -125v-684h277v684
q0 186 -133.5 319.5t-319.5 133.5z" />
    <glyph glyph-name="N" unicode="N" horiz-adv-x="1308" 
d="M649 1270q167 0 318 -97.5t241 -256t90 -330.5v-623h-352l-92 82v629q0 67 -25 108t-92 41q-90 0 -150.5 -71t-60.5 -166v-623h-352l-92 82v629q0 159 76.5 296.5t207 218.5t283.5 81zM649 1227q-146 0 -267 -76t-189 -203t-68 -274v-584h276v584q0 110 71 192t177 82
t177 -82t71 -192v-584h277v584q0 146 -68.5 273t-190 203.5t-266.5 76.5z" />
    <glyph glyph-name="O" unicode="O" horiz-adv-x="1372" 
d="M666 369q107 0 178 79t71 187q0 83 -45 151q-54 31 -116 31q-105 0 -181.5 -80.5t-76.5 -189.5q0 -75 34 -139q56 -39 136 -39zM666 1264q169 0 332 -106.5t263.5 -273.5t100.5 -337q0 -123 -47.5 -238t-128.5 -200t-194 -136t-238 -51q-108 0 -213.5 38t-193 106
t-154.5 156.5t-104.5 195.5t-37.5 217q0 167 82 311.5t224.5 231t308.5 86.5zM666 326q-126 0 -210.5 91t-84.5 218q0 126 86 217.5t209 91.5q124 0 209.5 -92.5t85.5 -216.5t-85.5 -216.5t-209.5 -92.5zM666 1219q-117 0 -223.5 -47.5t-182.5 -126.5t-121 -186.5
t-45 -223.5q0 -118 45 -226t121.5 -187t182.5 -126t223 -47q156 0 287.5 80t206.5 214.5t75 291.5q0 155 -75 289t-206.5 214.5t-287.5 80.5z" />
    <glyph glyph-name="P" unicode="P" horiz-adv-x="1292" 
d="M526 784v-147h213q41 0 70 35.5t29 79.5q0 14 -7 32h-305zM82 1229h657q130 0 257.5 -85t206.5 -217t79 -263q0 -127 -59 -235t-164 -172t-232 -64h-301v-232h-352l-92 82v1186zM739 594h-338v317h338q60 0 101 -48t41 -111t-41.5 -110.5t-100.5 -47.5zM739 1186h-614
v-1100h276v233h338q175 0 295.5 127t120.5 306q0 117 -53 216.5t-149 158.5t-214 59z" />
    <glyph glyph-name="Q" unicode="Q" horiz-adv-x="1372" 
d="M666 336q107 0 178 79t71 187q0 182 -161 182q-105 0 -181.5 -80.5t-76.5 -189.5q0 -75 34 -139q56 -39 136 -39zM666 1231q128 0 256.5 -63.5t224 -163.5t155.5 -231t60 -259q0 -204 -120.5 -369.5t-315.5 -226.5q-55 -407 -488 -407l-82 69l-10 12v363q118 0 121 53
q-48 10 -119 53q-149 92 -223 233t-74 308q0 169 83 314t225 230t307 85zM666 293q-126 0 -210.5 91t-84.5 218q0 126 86 216.5t209 90.5t209 -91t86 -216q0 -124 -85.5 -216.5t-209.5 -92.5zM666 1186q-117 0 -223.5 -47.5t-182.5 -126.5t-121 -186.5t-45 -223.5
q0 -200 119.5 -357.5t312.5 -209.5q-15 -123 -137 -123v-274q179 0 289 106.5t127 290.5q191 49 310.5 208.5t119.5 358.5q0 155 -75 289t-206.5 214.5t-287.5 80.5z" />
    <glyph glyph-name="R" unicode="R" horiz-adv-x="1308" 
d="M82 1229h760q114 0 221 -75t171 -188.5t64 -224.5q0 -216 -200 -333q8 -2 37 -2q33 0 53 2l84 -95v-352q-258 0 -425 66t-321 221v-287h-352l-92 82v1186zM897 854v-25q0 -55 -55 -55h-441v137h441q55 0 55 -57zM842 1186h-717v-1100h276v412h13q64 -194 258.5 -303
t472.5 -109v276q-305 0 -420 136h117q137 0 234.5 97.5t97.5 233.5v25q0 136 -98 234t-234 98z" />
    <glyph glyph-name="S" unicode="S" horiz-adv-x="1316" 
d="M82 862q0 157 110 268t267 111h682l82 -92v-356h-217q132 -40 216.5 -168.5t84.5 -288.5q0 -155 -109 -264t-264 -109h-676l-92 82v367h221q-58 27 -145 102q-88 75 -124 152.5t-36 195.5zM403 862q0 58 56 58h639v278h-639q-138 0 -236 -98.5t-98 -237.5v-24
q0 -138 98.5 -236t235.5 -98h389q55 0 55 -80q0 -57 -55 -57h-639v-279h639q138 0 235 99t97 237v25q0 138 -97.5 235.5t-234.5 97.5h-389q-56 0 -56 80z" />
    <glyph glyph-name="T" unicode="T" horiz-adv-x="1034" 
d="M82 877v362h860l82 -92v-352h-248v-834h-352l-94 82v752h-156zM125 1196v-276h250v-834h274v834h248v276h-772z" />
    <glyph glyph-name="U" unicode="U" horiz-adv-x="1308" 
d="M649 379q87 0 146 70t59 159v621h363q22 -22 81 -92v-617q0 -116 -44 -224.5t-118 -188t-178.5 -127.5t-220.5 -48q-131 0 -251.5 53.5t-209 143.5t-141.5 215.5t-53 263.5v621h362l82 -92v-617q0 -33 3.5 -54.5t15 -43.5t37.5 -32.5t67 -10.5zM649 334q-106 0 -177 81.5
t-71 192.5v578h-276v-578q0 -148 70 -275t191 -201.5t263 -74.5q144 0 265 75t190.5 201.5t69.5 274.5v578h-277v-578q0 -111 -71 -192.5t-177 -81.5z" />
    <glyph glyph-name="V" unicode="V" horiz-adv-x="1396" 
d="M442 1239q7 -7 236 -580q41 115 219 576h373l116 -33l3 4q0 -2 -40 -108.5t-147 -389.5t-219 -583q-71 -188 -235 -188q-46 0 -108 30t-126 94.5t-96 145.5l-408 1028q378 0 432 4zM655 477l-280 715h-299l383 -969q64 -162 200 -162q137 0 201 166l365 965h-295z" />
    <glyph glyph-name="W" unicode="W" horiz-adv-x="1794" 
d="M1204 377q56 0 93.5 37.5t37.5 93.5v731h367l82 -92v-725q0 -204 -143.5 -348t-348.5 -144q-182 0 -313 113q-131 -113 -313 -113q-155 0 -289.5 77.5t-214.5 211.5t-80 289v731h367l81 -92v-725q0 -9 1 -16.5t2 -12t4.5 -8l5 -5t7.5 -2.5t8 -1h10h10q56 0 93.5 37.5
t37.5 93.5v731h366l82 -92v-725q0 -8 0.5 -15t2 -11.5t3 -8t5 -5.5t5 -3t6.5 -1.5t7.5 -0.5h8.5h9zM1204 334q-72 0 -123 51t-51 123v686h-278v-686q0 -72 -50.5 -123t-123.5 -51q-72 0 -123.5 51t-51.5 123v686h-278v-686q0 -187 132.5 -319t320.5 -132q182 0 313 125
q131 -125 313 -125q186 0 319.5 132.5t133.5 318.5v686h-277v-686q0 -72 -51.5 -123t-124.5 -51z" />
    <glyph glyph-name="X" unicode="X" horiz-adv-x="1280" 
d="M82 872v365q348 0 551 -225q199 225 553 225q46 -54 84 -92v-354q-141 0 -235.5 -66.5t-94.5 -171.5q0 -46 16 -86q86 -57 230 -57q63 -74 84 -95v-354q-177 0 -297.5 49.5t-253.5 173.5q-204 -223 -545 -223l-92 82v367q144 0 238 61t94 170q0 150 -240 150
q-54 43 -92 81zM635 944q-88 118 -222.5 184t-287.5 66v-276q130 0 231 -83t101 -194q0 -113 -99.5 -194.5t-232.5 -81.5v-279q154 0 288.5 66t221.5 186q86 -118 222 -185t286 -67v279q-133 0 -231.5 80.5t-98.5 195.5q0 114 99.5 195.5t230.5 81.5v276q-151 0 -286.5 -66
t-221.5 -184z" />
    <glyph glyph-name="Y" unicode="Y" horiz-adv-x="1355" 
d="M1196 1198h-317q-53 -103 -236 -444l-192 444h-304l326 -749q-64 -82 -156 -82h-157v-279h157q118 0 235.5 69.5t174.5 172.5q226 410 469 868zM848 1233h414l84 -84q-154 -292 -498 -928q-68 -116 -193 -188t-252 -72h-194q-78 66 -94 82v367h202q55 0 103 45l-338 786
h377l82 -27q8 -23 131 -317q111 204 176 336z" />
    <glyph glyph-name="Z" unicode="Z" horiz-adv-x="1271" 
d="M82 289q0 117 115 217l327 285h-340l-94 81v367h782q159 0 274.5 -97.5t115.5 -234.5q0 -125 -111 -217l-330 -280h350l82 -95v-354h-774q-176 0 -286.5 93t-110.5 235zM1137 993q0 92 -75 147.5t-190 55.5h-737v-278h604l-516 -445q-98 -85 -98 -184q0 -93 73 -148
t193 -55h735v279h-604l516 444q99 83 99 184z" />
    <glyph glyph-name="bracketleft" unicode="[" horiz-adv-x="690" 
d="M82 43v1196h514v-10l84 -82v-356h-150v-381h66l84 -95v-354h-506zM125 1196v-1110h428v279h-150v553h150v278h-428z" />
    <glyph glyph-name="backslash" unicode="\" horiz-adv-x="978" 
d="M535 88h292l-387 1106h-297zM594 -37l-92 82l-420 1192h391l84 -92l412 -1182h-375z" />
    <glyph glyph-name="bracketright" unicode="]" horiz-adv-x="690" 
d="M553 86v1110h-428v-278h151v-553h-151v-279h428zM596 1239l84 -92v-1186h-506l-92 82v367h151v381h-59l-92 81v367h514z" />
    <glyph glyph-name="asciicircum" unicode="^" horiz-adv-x="1232" 
d="M780 225h297l-260 682q-64 166 -199 166q-136 0 -200 -162l-271 -686h297q23 58 62.5 182.5t73 238t36.5 122.5q6 -18 27.5 -92.5t58.5 -199t78 -251.5zM178 98l-96 82l295 748q74 188 241 188q86 0 179.5 -78t144.5 -204l281 -736h-355l-118 92q-13 37 -82 246
q-32 -105 -111 -338h-379z" />
    <glyph glyph-name="underscore" unicode="_" horiz-adv-x="1208" 
d="M82 -954v364h1032l84 -92v-354h-1024zM125 -633v-278h946v278h-946z" />
    <glyph glyph-name="grave" unicode="`" horiz-adv-x="743" 
d="M426 1112h121l-129 117h-180zM659 1069l74 -82h-233l-207 129q-8 5 -31.5 17t-41 23t-55 41.5t-83.5 74.5h352z" />
    <glyph glyph-name="a" unicode="a" horiz-adv-x="1464" 
d="M987 43l-14 41v-123h-426q-208 0 -336.5 130.5t-128.5 344.5q0 246 217 355h-31l-92 81v367h469q163 0 301.5 -114t204.5 -294l303 -870h-377zM459 502h413l146 -416h295l-287 821q-43 121 -153.5 205t-227.5 84h-424v-278h424q50 0 77.5 -28.5t53.5 -109.5h-317
q-137 0 -235.5 -98t-98.5 -236v-26q0 -136 98.5 -235t235.5 -99h389v279h-389q-56 0 -56 81q0 56 56 56z" />
    <glyph glyph-name="b" unicode="b" horiz-adv-x="1316" 
d="M530 459v-49h56l-49 49h-7zM82 1239h766q76 0 159.5 -43t149 -109t108 -150.5t42.5 -162.5q0 -132 -56 -221q56 -86 56 -221q0 -156 -108.5 -263.5t-264.5 -107.5h-760l-92 82v1196zM903 420q0 -55 -55 -55h-445v553h445q55 0 55 -82q0 -56 -55 -56h-277v-278h277
q55 0 55 -82zM848 1196h-723v-1110h723q138 0 235 99t97 235v26q0 107 -64 195q64 85 64 219q0 138 -97 237t-235 99z" />
    <glyph glyph-name="c" unicode="c" horiz-adv-x="1146" 
d="M94 641q0 -147 70 -274.5t192.5 -204t266.5 -76.5h389v279h-389q-104 0 -177 81.5t-73 194.5q0 110 71.5 193.5t178.5 83.5h389v278h-389q-146 0 -268.5 -76.5t-191.5 -204t-69 -274.5zM51 641q0 159 75 296.5t207.5 219.5t289.5 82h432l82 -92v-356h-428
q-87 0 -148 -72.5t-61 -165.5q0 -66 26 -117q45 -26 97 -26h432l82 -95v-354h-428q-128 0 -249 54.5t-211 146t-144 217.5t-54 262z" />
    <glyph glyph-name="d" unicode="d" horiz-adv-x="1316" 
d="M653 365h-250v553h250q105 0 177.5 -84t72.5 -193q0 -113 -73 -194.5t-177 -81.5zM653 1196h-528v-1110h528q146 0 268 76t190.5 203.5t68.5 275.5q0 147 -69 274.5t-191 204t-267 76.5zM82 1239h571q130 0 251 -57.5t209 -151.5t141 -220t53 -257q0 -157 -74 -293
t-205.5 -217.5t-288.5 -81.5h-565l-92 82v1196zM530 410h123q87 0 147 69.5t60 161.5q0 69 -24.5 109.5t-96.5 40.5h-209v-381z" />
    <glyph glyph-name="e" unicode="e" horiz-adv-x="1335" 
d="M51 645q0 161 78 299t213 219.5t295 81.5h240q83 0 165.5 -39.5t144 -102t100 -146t38.5 -166.5v-50q0 -109 -56 -198t-153 -133h88l84 -93v-356h-563q-129 0 -252.5 56t-216 148.5t-149 219t-56.5 260.5zM94 645q0 -150 72 -278t197 -203.5t274 -75.5h524v279h-524
q-112 0 -188 81.5t-76 196.5q0 112 76.5 195.5t187.5 83.5h240q45 0 45 -97q0 -45 -45 -45h-369v-278h369q132 0 226.5 95.5t94.5 227.5v52q0 134 -95.5 227.5t-225.5 93.5h-240q-148 0 -273.5 -76t-197.5 -203.5t-72 -275.5z" />
    <glyph glyph-name="f" unicode="f" horiz-adv-x="1310" 
d="M981 918h195v278h-195q-123 0 -237 -83.5t-158 -203.5l-164 -440q-14 -37 -51 -70.5t-68 -33.5h-178v-279h178q117 0 222 81.5t155 205.5l37 90h256v276h-154l27 74q12 37 54.5 71t80.5 34zM174 -39l-92 82v367h221q16 0 42 26.5t34 48.5l41 109q60 163 125 332
q52 132 176 222.5t260 90.5h238l81 -92v-356h-231q-23 0 -51 -19l82 -82v-352h-269q-78 -193 -186.5 -285t-255.5 -92h-215z" />
    <glyph glyph-name="g" unicode="g" horiz-adv-x="1286" 
d="M500 553q0 -61 24 -117q45 -26 105 -26l-49 49h-11v272q-69 -69 -69 -178zM623 1239h569l84 -92v-356h-59l59 -60v-770h-567q-128 0 -248.5 55t-210.5 146t-144.5 217.5t-54.5 261.5q0 158 75 295.5t207.5 220t289.5 82.5zM1149 1196h-526q-146 0 -268.5 -76.5
t-191.5 -204t-69 -274.5q0 -148 69 -275.5t191.5 -203.5t268.5 -76h526v694h-537v-278h260v-137h-249q-104 0 -177 81.5t-73 194.5q0 112 72 194.5t178 82.5h526v278z" />
    <glyph glyph-name="h" unicode="h" horiz-adv-x="1249" 
d="M836 1196v-416h-433v416h-278v-1110h278v416h433v-416h278v1110h-278zM791 823v416h366l82 -92v-1186h-354l-94 82v334h-261v-416h-356l-92 82v1196h367l81 -92v-324h261z" />
    <glyph glyph-name="i" unicode="i" horiz-adv-x="616" 
d="M479 1065q0 74 -51.5 126t-124.5 52t-125.5 -52.5t-52.5 -125.5q0 -72 52.5 -124t125.5 -52t124.5 52t51.5 124zM125 41v819h78l-37 33q-87 77 -84 172q0 92 64.5 156.5t156.5 64.5q50 0 87.5 -17.5t86.5 -66.5q91 -93 110 -126t19 -97q0 -90 -76 -166l43 -45v-809h-354z
M170 817v-731h279v731h-279z" />
    <glyph glyph-name="j" unicode="j" horiz-adv-x="1122" 
d="M969 1196h-289l-264 -733q-37 -101 -115 -101h-176v-276h176q117 0 225.5 85.5t149.5 199.5zM647 1239h383l82 -92l-311 -877q-45 -121 -162 -213l2 -2q-119 -94 -252 -94h-215l-92 82v363h219q22 0 42 18.5t32 52.5z" />
    <glyph glyph-name="k" unicode="k" horiz-adv-x="1339" 
d="M530 1147v-152l250 244h473l76 -92l-579 -578q-2 -6 -2 -32q0 -34 42 -60t109 -40t136.5 -20.5t138.5 -6.5q3 -4 29.5 -35t51.5 -60v-354h-69q-198 0 -357.5 63.5t-298.5 202.5v-266h-356l-92 82v1196h367zM629 678q129 132 518 518h-348l-396 -385v385h-278v-1110h278
v446q5 -119 103 -222.5t257.5 -163.5t336.5 -60h28v279q-135 0 -250.5 32.5t-186 92.5t-70.5 135q0 29 8 53z" />
    <glyph glyph-name="l" unicode="l" horiz-adv-x="1044" 
d="M10 1231h383l84 -92l256 -733h219l82 -95v-350h-213q-96 0 -189.5 41t-179.5 133t-135 221zM362 1188h-290l286 -817q38 -119 147 -202t228 -83h176v274h-176q-82 0 -117 103z" />
    <glyph glyph-name="m" unicode="m" horiz-adv-x="1794" 
d="M1204 1272q146 0 281 -83.5t217 -219.5t82 -283v-723h-357l-92 82v729q0 17 -4 28t-11.5 15t-12 5t-12.5 1h-3q-57 0 -96 -40t-39 -97v-723h-356l-92 82v729q0 17 -4 28t-11.5 15t-12 5t-12.5 1h-3q-57 0 -96.5 -40t-39.5 -97v-723h-356l-92 82v729q0 135 66.5 249.5
t180.5 181.5t249 67q177 0 313 -115q139 115 313 115zM1204 1227q-180 0 -313 -127q-133 127 -313 127q-187 0 -320 -133.5t-133 -319.5v-684h278v684q0 74 51 125t124 51t123.5 -51t50.5 -125v-684h278v684q0 74 50.5 125t123.5 51q74 0 125 -51t51 -125v-684h277v684
q0 186 -133.5 319.5t-319.5 133.5z" />
    <glyph glyph-name="n" unicode="n" horiz-adv-x="1308" 
d="M649 1270q167 0 318 -97.5t241 -256t90 -330.5v-623h-352l-92 82v629q0 67 -25 108t-92 41q-90 0 -150.5 -71t-60.5 -166v-623h-352l-92 82v629q0 159 76.5 296.5t207 218.5t283.5 81zM649 1227q-146 0 -267 -76t-189 -203t-68 -274v-584h276v584q0 110 71 192t177 82
t177 -82t71 -192v-584h277v584q0 146 -68.5 273t-190 203.5t-266.5 76.5z" />
    <glyph glyph-name="o" unicode="o" horiz-adv-x="1372" 
d="M666 369q107 0 178 79t71 187q0 83 -45 151q-54 31 -116 31q-105 0 -181.5 -80.5t-76.5 -189.5q0 -75 34 -139q56 -39 136 -39zM666 1264q169 0 332 -106.5t263.5 -273.5t100.5 -337q0 -123 -47.5 -238t-128.5 -200t-194 -136t-238 -51q-108 0 -213.5 38t-193 106
t-154.5 156.5t-104.5 195.5t-37.5 217q0 167 82 311.5t224.5 231t308.5 86.5zM666 326q-126 0 -210.5 91t-84.5 218q0 126 86 217.5t209 91.5q124 0 209.5 -92.5t85.5 -216.5t-85.5 -216.5t-209.5 -92.5zM666 1219q-117 0 -223.5 -47.5t-182.5 -126.5t-121 -186.5
t-45 -223.5q0 -118 45 -226t121.5 -187t182.5 -126t223 -47q156 0 287.5 80t206.5 214.5t75 291.5q0 155 -75 289t-206.5 214.5t-287.5 80.5z" />
    <glyph glyph-name="p" unicode="p" horiz-adv-x="1292" 
d="M526 784v-147h213q41 0 70 35.5t29 79.5q0 14 -7 32h-305zM82 1229h657q130 0 257.5 -85t206.5 -217t79 -263q0 -127 -59 -235t-164 -172t-232 -64h-301v-232h-352l-92 82v1186zM739 594h-338v317h338q60 0 101 -48t41 -111t-41.5 -110.5t-100.5 -47.5zM739 1186h-614
v-1100h276v233h338q175 0 295.5 127t120.5 306q0 117 -53 216.5t-149 158.5t-214 59z" />
    <glyph glyph-name="q" unicode="q" horiz-adv-x="1372" 
d="M666 336q107 0 178 79t71 187q0 182 -161 182q-105 0 -181.5 -80.5t-76.5 -189.5q0 -75 34 -139q56 -39 136 -39zM666 1231q128 0 256.5 -63.5t224 -163.5t155.5 -231t60 -259q0 -204 -120.5 -369.5t-315.5 -226.5q-55 -407 -488 -407l-92 81v363q118 0 121 53
q-48 10 -119 53q-149 92 -223 233t-74 308q0 169 83 314t225 230t307 85zM666 293q-126 0 -210.5 91t-84.5 218q0 126 86 216.5t209 90.5t209 -91t86 -216q0 -124 -85.5 -216.5t-209.5 -92.5zM666 1186q-117 0 -223.5 -47.5t-182.5 -126.5t-121 -186.5t-45 -223.5
q0 -200 119.5 -357.5t312.5 -209.5q-15 -123 -137 -123v-274q179 0 289 106.5t127 290.5q191 49 310.5 208.5t119.5 358.5q0 155 -75 289t-206.5 214.5t-287.5 80.5z" />
    <glyph glyph-name="r" unicode="r" horiz-adv-x="1044" 
d="M72 86h290l254 725q34 102 117 102h176v275h-176q-118 0 -227.5 -83.5t-147.5 -201.5zM104 -39l-94 82l307 875q46 131 166 222t250 91h219l82 -92v-353h-213q-54 0 -80 -75l-264 -750h-373z" />
    <glyph glyph-name="s" unicode="s" horiz-adv-x="1304" 
d="M82 43v363h219q13 0 40.5 27.5t35.5 45.5l168 449q55 133 175 217t255 84h235l84 -92v-353h-231q-28 0 -57.5 -23.5t-42.5 -51.5l2 -2q0 -1 -164 -441q-35 -95 -107 -166.5t-151 -105t-154 -33.5h-215zM125 360v-274h176q114 0 223.5 81.5t153.5 201.5l162 438
q14 37 56.5 70.5t78.5 33.5h192v275h-192q-123 0 -235.5 -81.5t-155.5 -201.5l-166 -438q-8 -30 -48 -67.5t-69 -37.5h-176z" />
    <glyph glyph-name="t" unicode="t" horiz-adv-x="1052" 
d="M397 1239l84 -92l35 -103h279l82 -92v-354h-205q23 -78 67 -188h219l84 -95v-354h-217q-153 0 -302.5 119t-205.5 280l-307 879h387zM530 725h222v276h-318l-67 195h-295l286 -821q42 -121 150.5 -205t230.5 -84h176v279h-176q-81 0 -118 104z" />
    <glyph glyph-name="u" unicode="u" horiz-adv-x="1308" 
d="M649 379q87 0 146 70t59 159v621h363q22 -22 81 -92v-617q0 -116 -44 -224.5t-118 -188t-178.5 -127.5t-220.5 -48q-131 0 -251.5 53.5t-209 143.5t-141.5 215.5t-53 263.5v621h362l82 -92v-617q0 -33 3.5 -54.5t15 -43.5t37.5 -32.5t67 -10.5zM649 334q-106 0 -177 81.5
t-71 192.5v578h-276v-578q0 -148 70 -275t191 -201.5t263 -74.5q144 0 265 75t190.5 201.5t69.5 274.5v578h-277v-578q0 -111 -71 -192.5t-177 -81.5z" />
    <glyph glyph-name="v" unicode="v" horiz-adv-x="1396" 
d="M389 1235l64 -12q0 3 50.5 -124t174.5 -440q41 115 219 576h373l116 -33l3 4q0 -2 -40 -108.5t-147 -389.5t-219 -583q-71 -188 -235 -188q-46 0 -108 30t-126 94.5t-96 145.5l-408 1028h379zM655 477l-280 715h-299l383 -969q64 -162 200 -162q137 0 201 166l365 965
h-295z" />
    <glyph glyph-name="w" unicode="w" horiz-adv-x="1794" 
d="M1204 377q56 0 93.5 37.5t37.5 93.5v731h367l82 -92v-725q0 -204 -143.5 -348t-348.5 -144q-182 0 -313 113q-131 -113 -313 -113q-155 0 -289.5 77.5t-214.5 211.5t-80 289v731h367l81 -92v-725q0 -9 1 -16.5t2 -12t4.5 -8l5 -5t7.5 -2.5t8 -1h10h10q56 0 93.5 37.5
t37.5 93.5v731h366l82 -92v-725q0 -8 0.5 -15t2 -11.5t3 -8t5 -5.5t5 -3t6.5 -1.5t7.5 -0.5h8.5h9zM1204 334q-72 0 -123 51t-51 123v686h-278v-686q0 -72 -50.5 -123t-123.5 -51q-72 0 -123.5 51t-51.5 123v686h-278v-686q0 -187 132.5 -319t320.5 -132q182 0 313 125
q131 -125 313 -125q186 0 319.5 132.5t133.5 318.5v686h-277v-686q0 -72 -51.5 -123t-124.5 -51z" />
    <glyph glyph-name="x" unicode="x" horiz-adv-x="1280" 
d="M82 872v365q348 0 551 -225q199 225 553 225q46 -54 84 -92v-354q-141 0 -235.5 -66.5t-94.5 -171.5q0 -46 16 -86q86 -57 230 -57q63 -74 84 -95v-354q-177 0 -297.5 49.5t-253.5 173.5q-204 -223 -545 -223l-92 82v367q144 0 238 61t94 170q0 150 -240 150
q-54 43 -92 81zM635 944q-88 118 -222.5 184t-287.5 66v-276q130 0 231 -83t101 -194q0 -113 -99.5 -194.5t-232.5 -81.5v-279q154 0 288.5 66t221.5 186q86 -118 222 -185t286 -67v279q-133 0 -231.5 80.5t-98.5 195.5q0 114 99.5 195.5t230.5 81.5v276q-151 0 -286.5 -66
t-221.5 -184z" />
    <glyph glyph-name="y" unicode="y" horiz-adv-x="1355" 
d="M1196 1198h-317q-53 -103 -236 -444l-192 444h-304l326 -749q-64 -82 -156 -82h-157v-279h157q118 0 235.5 69.5t174.5 172.5q226 410 469 868zM848 1233h414l84 -84q-154 -292 -498 -928q-68 -116 -193 -188t-252 -72h-194q-78 66 -94 82v367h202q55 0 103 45l-338 786
h377l82 -27q8 -23 131 -317q111 204 176 336z" />
    <glyph glyph-name="z" unicode="z" horiz-adv-x="1271" 
d="M82 289q0 117 115 217l327 285h-340l-94 81v367h782q159 0 274.5 -97.5t115.5 -234.5q0 -125 -111 -217l-330 -280h350l82 -95v-354h-774q-176 0 -286.5 93t-110.5 235zM1137 993q0 92 -75 147.5t-190 55.5h-737v-278h604l-516 -445q-98 -85 -98 -184q0 -93 73 -148
t193 -55h735v279h-604l516 444q99 83 99 184z" />
    <glyph glyph-name="braceleft" unicode="{" horiz-adv-x="849" 
d="M174 393l-92 82v346h129q0 2 2 8v158q0 105 78 181.5t184 76.5h283l82 -92v-354h-178v-381h96l82 -94v-355h-277q-38 0 -96 27t-115.5 70.5t-98 109.5t-40.5 135v82h-39zM535 373v553h180v276h-240q-90 0 -154.5 -63t-64.5 -152v-158q0 -51 -45 -51h-86v-260h86
q45 0 45 -49v-158q0 -91 64 -154t155 -63h240v279h-180z" />
    <glyph glyph-name="bar" unicode="|" horiz-adv-x="540" 
d="M82 -27v1336h367l81 -92v-1326h-356zM125 1266v-1250h278v1250h-278z" />
    <glyph glyph-name="braceright" unicode="}" horiz-adv-x="849" 
d="M305 926v-553h-180v-279h240q91 0 155 63t64 154v158q0 49 45 49h86v260h-86q-45 0 -45 51v158q0 87 -65.5 151t-153.5 64h-240v-276h180zM260 418v381h-86l-92 82v364h283q59 0 115.5 -28t96.5 -70t70.5 -90.5t46 -90t15.5 -67.5v-78h49l82 -92v-336h-123q-8 0 -8 -10
v-160q0 -105 -76 -179.5t-182 -74.5h-277l-92 82v367h178z" />
    <glyph glyph-name="asciitilde" unicode="~" horiz-adv-x="886" 
d="M618 811l179 -117l80 -92q-103 -201 -234 -201q-59 0 -145 56q-85 55 -88 55q-12 0 -62 -80l-123 68q-18 14 -143 114q92 226 240 226q55 0 122 -43l111 -72q13 3 63 86zM739 678l-106 70q-38 -66 -78 -66l-49 28q-49 28 -106 56.5t-78 28.5q-120 0 -185 -160l90 -78
q46 82 95 82q1 0 102 -55.5t131 -55.5q107 0 184 150z" />
    <glyph glyph-name="uni00A0" unicode="&#xa0;" horiz-adv-x="0" 
 />
    <glyph glyph-name="exclamdown" unicode="&#xa1;" horiz-adv-x="616" 
d="M174 -86l-61 84v778h94q-18 15 -26.5 22t-31 30.5t-34 43.5t-22.5 51t-11 62q0 89 66 155t155 66q102 0 209 -96q56 -51 75 -94.5t19 -118.5q0 -110 -88 -174l70 -39v-770h-414zM303 807q73 0 124.5 52t51.5 126q0 73 -52 124.5t-124 51.5q-74 0 -126 -51.5t-52 -124.5
t52.5 -125.5t125.5 -52.5zM127 41h305v692h-305v-692z" />
    <glyph glyph-name="cent" unicode="&#xa2;" horiz-adv-x="829" 
d="M342 1229h283l82 -92v-72h30l82 -92v-271h-272q-43 0 -72 -35t-29 -81v-23h291l82 -92v-272h-112v-228h-271l-94 82v207l-100 92q-76 45 -118 134.5t-42 187.5q0 129 71 231.5t189 138.5v185zM582 1186h-195v-172q-116 -28 -189 -123t-73 -217t73 -217t189 -123v-236h195
v228h110v194h-233q-59 0 -99.5 46.5t-40.5 107.5q0 63 40 108t100 45h233v195h-110v164z" />
    <glyph glyph-name="sterling" unicode="&#xa3;" horiz-adv-x="1310" 
d="M1100 690v-280h45l82 -95v-354h-1053l-92 82v367h221q16 0 42 26.5t34 48.5l41 109q60 163 125 332q52 132 176 222.5t260 90.5h238l81 -92v-356h-231q-23 0 -51 -19zM125 86h977v279h-422l37 98h256v276h-154l27 74q12 37 54.5 71t80.5 34h195v278h-195
q-123 0 -237 -83.5t-158 -203.5l-164 -440q-14 -37 -51 -70.5t-68 -33.5l-178 45v-324z" />
    <glyph glyph-name="currency" unicode="&#xa4;" horiz-adv-x="1269" 
d="M1030 760v-350h148l82 -95v-354h-426q-177 0 -333.5 101t-246.5 270h-80l-92 82v438h129q61 170 211 278.5t323 108.5h433l82 -92v-356h-259zM125 459h123q55 -166 190.5 -269.5t306.5 -103.5h390v279h-390q-113 0 -186 94h344v137h-403q-2 14 -2 45v29h409v139h-360
q77 109 198 109h390v278h-390q-174 0 -310.5 -108.5t-190.5 -278.5h-115v-139h92q-2 -10 -2 -29q0 -31 2 -45h-96v-137z" />
    <glyph glyph-name="yen" unicode="&#xa5;" horiz-adv-x="1316" 
d="M653 825q94 0 150.5 68.5t56.5 161.5v184h363l84 -92v-178q0 -279 -205 -457l31 -31v-422h-215v-94h-355l-92 82v12h-123l-92 82v432h59q-110 84 -171.5 213t-61.5 269v184h367l81 -92v-178q0 -59 25 -117q47 -27 98 -27zM653 780q-104 0 -177 82t-73 193v141h-278v-141
q0 -176 99.5 -323t264.5 -202h-190v-139h215v-65h-215v-140h215v-96h277v96h215v140h-215v65h215v139h-191q164 55 264.5 202.5t100.5 322.5v141h-277v-141q0 -109 -72 -192t-178 -83z" />
    <glyph glyph-name="brokenbar" unicode="&#xa6;" horiz-adv-x="550" 
d="M174 633l-92 82v577h367l81 -92v-567h-356zM184 -111l-92 82v578h367l82 -92v-568h-357zM137 16h277v490h-277v-490zM125 758h278v491h-278v-491z" />
    <glyph glyph-name="section" unicode="&#xa7;" horiz-adv-x="1773" 
d="M1247 1180q94 49 197 49h237l82 -92v-353h-231q-66 0 -100 -75l2 -2l-162 -441q-35 -94 -107 -165.5t-152 -105.5t-155 -34h-215l-53 53q-92 -53 -201 -53h-215l-92 82v363h219q13 0 40.5 27.5t35.5 45.5l168 449q55 133 175 217t255 84h235q0 -9 37 -49zM975 911h80
l-168 -446q-9 -32 -50 -68.5t-67 -36.5h-96l166 447q14 37 56.5 70.5t78.5 33.5zM1167 1071v115h-192q-123 0 -235.5 -81.5t-155.5 -201.5l-166 -438q-8 -30 -48 -67.5t-69 -37.5h-176v-274h176q166 0 295 147v-147h174q114 0 223.5 81.5t153.5 201.5l162 438
q14 39 55.5 71.5t79.5 32.5h192v275h-192q-150 0 -277 -115z" />
    <glyph glyph-name="dieresis" unicode="&#xa8;" horiz-adv-x="581" 
d="M193 1300q63 0 92 -51q29 51 94 51q55 0 94 -51l64 -61q34 -40 34 -84q0 -43 -31 -75t-73 -32q-36 0 -96 54q-31 -54 -90 -54q-40 0 -61.5 13.5t-84.5 76.5q-34 34 -43.5 53.5t-9.5 49.5q0 45 32 77.5t79 32.5zM379 1257q-66 0 -66 -65q0 -68 66 -68q29 0 48 19.5
t19 48.5q0 27 -19 46t-48 19zM193 1255q-27 0 -47.5 -19.5t-20.5 -45.5q0 -68 68 -68q65 0 65 68q0 26 -19.5 45.5t-45.5 19.5z" />
    <glyph glyph-name="copyright" unicode="&#xa9;" horiz-adv-x="1441" 
d="M717 1296q260 0 446 -186q54 -60 84 -90q185 -182 185 -445q0 -171 -83 -315t-228 -228.5t-318 -84.5q-135 0 -240.5 46.5t-232.5 162.5l-62 59q-186 180 -186 449q0 129 50 246t135 201.5t202.5 134.5t247.5 50zM717 1253q-121 0 -230.5 -46.5t-189 -125.5t-126 -188
t-46.5 -229q0 -160 79.5 -296.5t216 -216t296.5 -79.5t296 80.5t215 216.5t79 295q0 160 -79 296t-215 214.5t-296 78.5zM717 213q-188 0 -320.5 132t-132.5 319q0 122 61 225.5t165.5 164t226.5 60.5q186 0 318 -132t132 -318q0 -122 -61 -226t-164.5 -164.5t-224.5 -60.5z
M451 664q0 -114 76.5 -195.5t189.5 -81.5h192v137h-192q-54 0 -89.5 41.5t-35.5 98.5t35.5 97t89.5 40h192v139h-192q-111 0 -188.5 -82.5t-77.5 -193.5zM717 567h237v-10l82 -82v-63q88 107 88 252q0 94 -31.5 166.5t-119.5 121.5l63 -61v-215h-233q-86 0 -86 -109z
M389 575q0 -319 328 -319q23 0 59 4q-65 3 -98.5 22.5t-130.5 110.5l-49 45q-90 96 -90 226v41q-19 -59 -19 -130zM803 989q-39 0 -74 -6h143q-34 6 -69 6z" />
    <glyph glyph-name="ordfeminine" unicode="&#xaa;" horiz-adv-x="870" 
d="M82 831q0 83 55 144l-53 47v225h303q101 0 185.5 -68.5t127.5 -193.5l160 -461h-229l-19 19v-19h-233q-34 0 -73 12t-79 37.5t-72 60.5t-52.5 86.5t-20.5 110.5zM293 858h207l71 -207h148l-144 410q-21 58 -75 100.5t-113 42.5h-260v-139h260q43 0 64 -68h-158
q-69 0 -118.5 -49t-49.5 -117v-14q0 -69 49.5 -117.5t118.5 -48.5h194v137h-194q-29 0 -29 43q0 27 29 27z" />
    <glyph glyph-name="guillemotleft" unicode="&#xab;" horiz-adv-x="1136" 
d="M666 1239h378l82 -92l-127 -455q-17 -56 -14 -139q0 -90 14 -139l127 -453h-370q-4 4 -90 82l-101 360q-28 106 -28 261q-7 -47 -7 -111q0 -87 15 -139l125 -453h-369l-92 82l-98 360q-29 110 -29 238v42t2 37t3 33.5t7 40t10.5 47t16.5 64.5t21.5 82.5t29.5 111
t37 140.5h379q-4 -9 57 -70q9 25 21 70zM532 1196h-288l-92 -332q-27 -102 -27 -223q0 -131 27 -225l92 -330h288l-112 406q-17 66 -17 149q0 84 17 150zM987 1196h-289l-92 -332q-24 -102 -24 -223q0 -144 24 -225l92 -330h289l-113 406q-14 55 -14 149q0 95 14 150z" />
    <glyph glyph-name="logicalnot" unicode="&#xac;" horiz-adv-x="1161" 
d="M174 354l-92 82v365h608q117 0 225 -69t172 -177t64 -219v-285h-356l-93 82v221h-528zM745 424v-246h279v246q0 136 -99 235t-235 99h-565v-277h565q55 0 55 -57z" />
    <glyph glyph-name="uni00AD" unicode="&#xad;" horiz-adv-x="892" 
d="M125 780v-278h631v278h-631zM82 459v364h719l82 -92v-354h-709z" />
    <glyph glyph-name="registered" unicode="&#xae;" horiz-adv-x="653" 
d="M322 1300q68 0 113.5 -27t90.5 -87q85 -89 101 -119t16 -96q0 -98 -68 -166h-2q-67 -70 -163 -70q-67 0 -123 35q-24 14 -56 42.5t-66.5 67.5t-58.5 87.5t-24 91.5q0 100 70 170.5t170 70.5zM260 1071v55h102q27 0 27 -30q0 -25 -27 -25h-102zM315 1042q62 0 81.5 12
t19.5 48q0 53 -54 53h-129v-194h27v81h27q31 -84 137 -84v29q-94 0 -109 55zM322 891q-69 0 -118.5 49.5t-49.5 118.5t49.5 119.5t118.5 50.5q71 0 120.5 -50t49.5 -120q0 -69 -50.5 -118.5t-119.5 -49.5zM322 1255q-82 0 -139.5 -57t-57.5 -139q0 -81 58.5 -139t138.5 -58
q82 0 139 57.5t57 139.5t-56 139t-140 57z" />
    <glyph glyph-name="macron" unicode="&#xaf;" 
d="M694 1257q55 0 120.5 -45t111.5 -111t49 -124q-2 -21 -8 -66q110 45 147 45q61 0 114.5 -30t87.5 -74.5t54.5 -92.5t22.5 -89q0 -67 -44 -120t-112 -67l-176 -37l121 -135q16 -23 23.5 -35.5t17.5 -43.5t10 -64q0 -72 -59 -125t-136 -53q-60 0 -140 57.5t-116 122.5
l-20 37l-35 -60q-29 -49 -46.5 -75.5t-32.5 -45.5t-30.5 -25.5t-29 -9t-39.5 -3.5q-64 0 -135.5 38.5t-122.5 105t-51 136.5q0 65 36 115l84 92q-107 20 -192.5 106.5t-85.5 174.5q0 85 56.5 142.5t140.5 57.5q39 0 79 -16l160 -74q-2 6 -6.5 36.5t-9 78.5t-4.5 82
q0 85 55.5 139.5t140.5 54.5zM694 1214q-63 0 -108 -44t-45 -107q0 -2 1 -7.5t1 -8.5l28 -250l-229 102q-32 14 -63 14q-66 0 -110 -45.5t-44 -111.5q0 -54 35 -95.5t86 -52.5l248 -51l-170 -184q-41 -44 -41 -105q0 -63 46 -108t109 -45q89 0 133 78l123 219l127 -217
q47 -80 129 -80q63 0 109.5 45t46.5 108t-39 105l-170 184l246 51q54 11 88.5 53t34.5 97q0 63 -44.5 109t-107.5 46q-35 0 -63 -14l-230 -102l27 266q0 63 -44 107t-110 44z" />
    <glyph glyph-name="degree" unicode="&#xb0;" horiz-adv-x="567" 
d="M279 1370q98 0 155 -78l12 -18q83 -83 97 -106.5t14 -77.5q0 -79 -56 -135t-134 -56q-42 0 -60 4.5t-46.5 26t-84.5 78.5q-44 23 -69 69.5t-25 100.5q0 78 58.5 135t138.5 57zM279 1106q-70 0 -70 72q0 27 20.5 47t49.5 20t48 -20t19 -47q0 -72 -67 -72zM279 1327
q-63 0 -108.5 -44t-45.5 -105q0 -63 45.5 -108.5t108.5 -45.5t107 45.5t44 108.5q0 61 -44.5 105t-106.5 44z" />
    <glyph glyph-name="plusminus" unicode="&#xb1;" 
d="M694 1257q55 0 120.5 -45t111.5 -111t49 -124q-2 -21 -8 -66q110 45 147 45q61 0 114.5 -30t87.5 -74.5t54.5 -92.5t22.5 -89q0 -67 -44 -120t-112 -67l-176 -37l121 -135q16 -23 23.5 -35.5t17.5 -43.5t10 -64q0 -72 -59 -125t-136 -53q-60 0 -140 57.5t-116 122.5
l-20 37l-35 -60q-29 -49 -46.5 -75.5t-32.5 -45.5t-30.5 -25.5t-29 -9t-39.5 -3.5q-64 0 -135.5 38.5t-122.5 105t-51 136.5q0 65 36 115l84 92q-107 20 -192.5 106.5t-85.5 174.5q0 85 56.5 142.5t140.5 57.5q39 0 79 -16l160 -74q-2 6 -6.5 36.5t-9 78.5t-4.5 82
q0 85 55.5 139.5t140.5 54.5zM694 1214q-63 0 -108 -44t-45 -107q0 -2 1 -7.5t1 -8.5l28 -250l-229 102q-32 14 -63 14q-66 0 -110 -45.5t-44 -111.5q0 -54 35 -95.5t86 -52.5l248 -51l-170 -184q-41 -44 -41 -105q0 -63 46 -108t109 -45q89 0 133 78l123 219l127 -217
q47 -80 129 -80q63 0 109.5 45t46.5 108t-39 105l-170 184l246 51q54 11 88.5 53t34.5 97q0 63 -44.5 109t-107.5 46q-35 0 -63 -14l-230 -102l27 266q0 63 -44 107t-110 44z" />
    <glyph glyph-name="twosuperior" unicode="&#xb2;" horiz-adv-x="788" 
d="M117 1278h370q70 0 138.5 -47.5t110.5 -120t42 -141.5q0 -100 -73 -158l38 -41v-215h-569l-92 82v266q0 80 65 127l-30 23v225zM487 1235h-327v-139h327q27 0 27 -41q0 -27 -27 -27h-194q-69 0 -118.5 -35.5t-49.5 -89.5v-221h493v137h-354v66q16 4 29 4h194
q69 0 117.5 47t48.5 131q0 69 -48.5 118.5t-117.5 49.5z" />
    <glyph glyph-name="threesuperior" unicode="&#xb3;" horiz-adv-x="753" 
d="M82 1278h369q62 0 131.5 -48t115 -118t45.5 -131q0 -67 -24 -111q24 -46 24 -110q0 -85 -59.5 -145t-144.5 -60h-351l-92 82v225h172v109h-94l-92 82v225zM451 1235h-326v-139h326q28 0 28 -41q0 -27 -28 -27h-138v-139h138q28 0 28 -41q0 -29 -28 -29h-312v-137h312
q69 0 118 48.5t49 117.5v14q0 53 -32 96q32 40 32 109t-49 118.5t-118 49.5z" />
    <glyph glyph-name="acute" unicode="&#xb4;" horiz-adv-x="727" 
d="M174 987l-84 82l-8 6l215 197h352l68 -92l-311 -193h-232zM184 1112h123l187 117h-181z" />
    <glyph glyph-name="mu" unicode="&#xb5;" 
d="M694 1257q55 0 120.5 -45t111.5 -111t49 -124q-2 -21 -8 -66q110 45 147 45q61 0 114.5 -30t87.5 -74.5t54.5 -92.5t22.5 -89q0 -67 -44 -120t-112 -67l-176 -37l121 -135q16 -23 23.5 -35.5t17.5 -43.5t10 -64q0 -72 -59 -125t-136 -53q-60 0 -140 57.5t-116 122.5
l-20 37l-35 -60q-29 -49 -46.5 -75.5t-32.5 -45.5t-30.5 -25.5t-29 -9t-39.5 -3.5q-64 0 -135.5 38.5t-122.5 105t-51 136.5q0 65 36 115l84 92q-107 20 -192.5 106.5t-85.5 174.5q0 85 56.5 142.5t140.5 57.5q39 0 79 -16l160 -74q-2 6 -6.5 36.5t-9 78.5t-4.5 82
q0 85 55.5 139.5t140.5 54.5zM694 1214q-63 0 -108 -44t-45 -107q0 -2 1 -7.5t1 -8.5l28 -250l-229 102q-32 14 -63 14q-66 0 -110 -45.5t-44 -111.5q0 -54 35 -95.5t86 -52.5l248 -51l-170 -184q-41 -44 -41 -105q0 -63 46 -108t109 -45q89 0 133 78l123 219l127 -217
q47 -80 129 -80q63 0 109.5 45t46.5 108t-39 105l-170 184l246 51q54 11 88.5 53t34.5 97q0 63 -44.5 109t-107.5 46q-35 0 -63 -14l-230 -102l27 266q0 63 -44 107t-110 44z" />
    <glyph glyph-name="paragraph" unicode="&#xb6;" horiz-adv-x="1021" 
d="M532 643h31v117q-33 -36 -33 -90q0 -21 2 -27zM545 1239h385l82 -92v-1186h-357l-92 82v154q-124 18 -234.5 100.5t-178.5 206t-68 254.5q0 127 61.5 237.5t168.5 177t233 66.5zM606 598h-61q-58 0 -100 47.5t-42 112.5q0 63 41 111.5t101 48.5h61v-320zM885 1196h-340
q-175 0 -297.5 -129.5t-122.5 -308.5q0 -116 54 -216.5t151.5 -161.5t214.5 -61h61v-233h279v1110z" />
    <glyph glyph-name="periodcentered" unicode="&#xb7;" horiz-adv-x="616" 
d="M303 795q-74 0 -126 -52t-52 -125q0 -75 52 -126.5t126 -51.5t125 51.5t51 126.5q0 74 -51.5 125.5t-124.5 51.5zM303 838q106 0 170 -82l14 -19q87 -91 103 -119t16 -88q0 -91 -63 -153t-154 -62q-63 0 -92.5 16t-112.5 101q-53 39 -77.5 82.5t-24.5 103.5
q0 90 64.5 155t156.5 65z" />
    <glyph glyph-name="cedilla" unicode="&#xb8;" 
d="M694 1257q55 0 120.5 -45t111.5 -111t49 -124q-2 -21 -8 -66q110 45 147 45q61 0 114.5 -30t87.5 -74.5t54.5 -92.5t22.5 -89q0 -67 -44 -120t-112 -67l-176 -37l121 -135q16 -23 23.5 -35.5t17.5 -43.5t10 -64q0 -72 -59 -125t-136 -53q-60 0 -140 57.5t-116 122.5
l-20 37l-35 -60q-29 -49 -46.5 -75.5t-32.5 -45.5t-30.5 -25.5t-29 -9t-39.5 -3.5q-64 0 -135.5 38.5t-122.5 105t-51 136.5q0 65 36 115l84 92q-107 20 -192.5 106.5t-85.5 174.5q0 85 56.5 142.5t140.5 57.5q39 0 79 -16l160 -74q-2 6 -6.5 36.5t-9 78.5t-4.5 82
q0 85 55.5 139.5t140.5 54.5zM694 1214q-63 0 -108 -44t-45 -107q0 -2 1 -7.5t1 -8.5l28 -250l-229 102q-32 14 -63 14q-66 0 -110 -45.5t-44 -111.5q0 -54 35 -95.5t86 -52.5l248 -51l-170 -184q-41 -44 -41 -105q0 -63 46 -108t109 -45q89 0 133 78l123 219l127 -217
q47 -80 129 -80q63 0 109.5 45t46.5 108t-39 105l-170 184l246 51q54 11 88.5 53t34.5 97q0 63 -44.5 109t-107.5 46q-35 0 -63 -14l-230 -102l27 266q0 63 -44 107t-110 44z" />
    <glyph glyph-name="onesuperior" unicode="&#xb9;" horiz-adv-x="700" 
d="M174 973l-92 82v225h131q84 0 180 -82.5t131 -177.5l166 -465h-227l-92 82l-121 336h-76zM401 682h146l-146 412q-22 61 -75.5 102t-112.5 41h-88v-139h88q38 0 57 -43z" />
    <glyph glyph-name="ordmasculine" unicode="&#xba;" horiz-adv-x="833" 
d="M412 811q42 0 72 33t30 78q0 20 -10 26h-6q-44 0 -76.5 -33.5t-32.5 -80.5v-21q6 -2 23 -2zM412 1257q97 -2 194 -67.5t157 -164t60 -191.5q0 -138 -94 -235t-231 -97q-95 0 -192 59t-160.5 155.5t-63.5 196.5q0 142 95 243t235 101zM412 766q-62 0 -105 46t-43 110
q0 63 42.5 108t105.5 45q61 0 104 -45.5t43 -107.5q0 -64 -43 -110t-104 -46zM412 1212q-120 0 -203.5 -84.5t-83.5 -205.5t83 -207t204 -86q118 0 201 87t83 206q0 121 -82.5 205.5t-201.5 84.5z" />
    <glyph glyph-name="guillemotright" unicode="&#xbb;" horiz-adv-x="1136" 
d="M428 1196h-289l113 -405q16 -62 16 -150q0 -87 -16 -149l-113 -406h289l92 330q27 94 27 225q0 121 -27 223zM885 1196h-289l111 -405q16 -62 16 -150q0 -87 -16 -149l-111 -406h289l90 330q26 102 26 225q0 125 -26 223zM82 1239h381l84 -92l96 -361q29 -110 29 -249
q8 39 8 104q0 76 -62 303l-81 295h381q25 -25 83 -92l99 -361q26 -98 26 -233q0 -138 -26 -236l-99 -356h-370l-68 68l-16 -68h-371q-30 24 -94 82l127 461q14 49 14 137q0 90 -59 303z" />
    <glyph glyph-name="onequarter" unicode="&#xbc;" horiz-adv-x="1779" 
d="M512 -47l-96 82l239 360h-192l-92 82l-121 334h-76l-92 82v225h131q95 0 190 -92q99 -99 121 -170l154 -428l471 705h252l78 -93l-729 -1087h-238zM1559 618l81 -92v-215h48l81 -94v-217h-129v-104h-215l-94 81v23q-61 0 -128 31t-115 87t-48 118q0 58 39 108l209 274
h271zM1513 266v309h-204l-195 -258q-31 -42 -31 -81q0 -50 36 -79.5t91 -29.5h166v-104h137v104h127v139h-127zM496 78h147l676 1012h-148zM401 520h146l-146 412q-24 61 -76.5 101t-111.5 40h-88v-135h88q39 0 57 -53zM1376 266h-127l127 166v-166z" />
    <glyph glyph-name="onehalf" unicode="&#xbd;" horiz-adv-x="1837" 
d="M410 -80l-97 82l322 483h-172l-92 82l-121 334h-76l-92 84v223h131q80 0 180.5 -85.5t130.5 -174.5l148 -409l375 561h249l80 -92l-729 -1088h-237zM1165 627h371q105 0 198 -102t93 -208q0 -94 -74 -159l39 -39v-215h-569l-93 82v264q0 83 68 127l-22 24h-11v226z
M1536 584h-326v-140h326q27 0 27 -38q0 -29 -27 -29h-195q-71 0 -118 -37t-47 -90v-219h491v137h-354v65q12 3 28 3h195q71 0 118.5 47t47.5 135q0 68 -49 117t-117 49zM393 45h148l676 1010h-150l-379 -568l2 -2h-4zM401 610h146l-146 412q-24 61 -76.5 102t-111.5 41h-88
v-137h88q39 0 57 -53z" />
    <glyph glyph-name="threequarters" unicode="&#xbe;" horiz-adv-x="1679" 
d="M451 -47l-97 82l256 383q-34 -12 -71 -12h-351l-92 81v228h172v106h-94l-92 82v225h369q101 0 196.5 -98.5t95.5 -198.5q0 -67 -24 -110q21 -43 24 -105l344 517h252l78 -93l-729 -1087h-237zM1456 651l82 -92v-217h47l84 -92v-217h-131v-105h-215l-92 82v23
q-63 0 -130 30t-115 86t-48 119q0 53 41 109l207 274h270zM1413 299v309h-205l-194 -258q-33 -42 -33 -82q0 -49 37 -78.5t90 -29.5h166v-107h139v107h125v139h-125zM451 1085h-326v-139h326q28 0 28 -39q0 -28 -28 -28h-138v-140h138q28 0 28 -41q0 -28 -28 -28h-312v-138
h312q69 0 118 48.5t49 117.5v15q0 56 -32 96q32 40 32 111q0 68 -49 116.5t-118 48.5zM434 78h148l675 1007h-147zM1274 299h-125l125 164v-164z" />
    <glyph glyph-name="questiondown" unicode="&#xbf;" horiz-adv-x="925" 
d="M254 1032q0 90 65.5 155.5t155.5 65.5q103 0 197 -98q69 -72 87.5 -109.5t18.5 -101.5q0 -84 -51 -141l53 -53l-166 -340h220l81 -93v-356h-436q-173 0 -285 106t-112 265q0 77 35 149l176 361h65q-104 70 -104 190zM391 88h397v279h-368l211 432h-312l-161 -336
q-36 -76 -33 -131q0 -108 76.5 -176t189.5 -68zM297 1032q0 -73 53 -125.5t125 -52.5q73 0 125.5 53t52.5 125q0 73 -52 124.5t-126 51.5t-126 -51.5t-52 -124.5z" />
    <glyph glyph-name="Agrave" unicode="&#xc0;" horiz-adv-x="1388" 
d="M858 1313l74 -84h-4q125 -50 229.5 -157t162.5 -237t58 -251v-621h-354l-92 82v168h-330v-250h-356l-92 82v625q0 220 140.5 392t348.5 200l-151 96q-4 3 -38.5 21t-74 48.5t-98.5 88.5h352zM725 1225q-146 0 -268 -76.5t-191 -204t-69 -274.5v-580h278v250h500v-250h276
v580q0 148 -68.5 275.5t-190 203.5t-267.5 76zM975 616h-500v54q0 112 72 195t178 83q105 0 177.5 -84t72.5 -194v-54zM610 659h322v11q0 70 -25 110.5t-96 40.5q-66 0 -121.5 -46t-79.5 -116zM623 1356h122l-129 114h-180z" />
    <glyph glyph-name="Aacute" unicode="&#xc1;" horiz-adv-x="1388" 
d="M598 1253l-57 60l-9 6l216 197h352q1 -1 7.5 -11.5t22.5 -34t35 -49.5l-284 -176q136 -42 251.5 -149.5t180.5 -244.5t65 -267v-621h-354l-92 82v168h-330v-250h-356l-92 82v625q0 205 126.5 373.5t317.5 209.5zM725 1225q-146 0 -268 -76.5t-191 -204t-69 -274.5v-580
h278v250h500v-250h276v580q0 148 -68.5 275.5t-190 203.5t-267.5 76zM975 616h-500v54q0 112 72 195t178 83q105 0 177.5 -84t72.5 -194v-54zM610 659h322v11q0 70 -25 110.5t-96 40.5q-66 0 -121.5 -46t-79.5 -116zM633 1356h123l188 114h-180z" />
    <glyph glyph-name="Acircumflex" unicode="&#xc2;" horiz-adv-x="1388" 
d="M1014 1241h-121q131 -42 244 -150t177 -244t64 -263v-621h-354l-92 82v168h-330v-250h-356l-92 82v625q0 191 109 352t286 219l-90 92l137 162q30 37 98 37q64 0 97 -39q12 -14 27 -31t67.5 -75.5t128.5 -145.5zM725 1225q-146 0 -268 -76.5t-191 -204t-69 -274.5v-580
h278v250h500v-250h276v580q0 148 -68.5 275.5t-190 203.5t-267.5 76zM975 616h-500v54q0 112 72 195t178 83q105 0 177.5 -84t72.5 -194v-54zM610 659h322v11q0 70 -25 110.5t-96 40.5q-66 0 -121.5 -46t-79.5 -116zM694 1446q21 -39 51 -80h95l-84 98q-22 25 -62 25
q-42 0 -65 -23l-86 -100h94q30 45 57 80zM788 1264l-16 16l-8 -14q16 0 24 -2z" />
    <glyph glyph-name="Atilde" unicode="&#xc3;" horiz-adv-x="1388" 
d="M766 1518l117 -72l80 -90q-49 -87 -95 -109q135 -35 254 -143t187.5 -248t68.5 -272v-621h-354l-92 82v168h-330v-250h-356l-92 82v625q0 149 67.5 280.5t186 216t262.5 97.5l-74 43l-90 90q55 131 133 131q11 0 24 -3.5t23.5 -9t19 -10.5t14.5 -9l7 -5v2q5 -5 14 -8
q5 5 25 33zM725 1225q-146 0 -268 -76.5t-191 -204t-69 -274.5v-580h278v250h500v-250h276v580q0 148 -68.5 275.5t-190 203.5t-267.5 76zM975 616h-500q0 148 70 240t180 92q105 0 177.5 -84t72.5 -194v-54zM610 659h322v11q0 70 -25 110.5t-96 40.5q-66 0 -121.5 -46
t-79.5 -116zM823 1432l-47 30q-16 -28 -35 -28q1 0 -20.5 13t-47.5 25.5t-34 12.5q-54 0 -82 -72l41 -37q21 37 41 37q1 0 44 -23.5t58 -23.5q47 0 82 66zM719 1268h6h20l-18 16z" />
    <glyph glyph-name="Adieresis" unicode="&#xc4;" horiz-adv-x="1388" 
d="M610 1526q61 0 95 -51q26 51 94 51q53 0 92 -51l63 -62q37 -37 37 -84q0 -34 -19 -60.5t-50 -37.5q128 -50 234 -157t164 -237t58 -253v-621h-354l-92 82v168h-330v-250h-356l-92 82v625q0 137 58.5 262t163.5 212t234 111v2q-2 0 -55 56q-35 35 -44 53t-9 49q0 45 32 78
t76 33zM725 1225h-4q-78 0 -154 -23.5t-143 -71.5t-117.5 -113.5t-80 -155t-29.5 -191.5v-580h278v250h500v-250h276v580q0 148 -68.5 275.5t-190 203.5t-267.5 76zM975 616h-500v54q0 112 72 195t178 83q105 0 177.5 -84t72.5 -194v-54zM610 659h322v11q0 70 -25 110.5
t-96 40.5q-66 0 -121.5 -46t-79.5 -116zM799 1483q-68 0 -68 -66q0 -67 68 -67q27 0 46 19t19 48q0 26 -19.5 46t-45.5 20zM610 1481q-26 0 -45.5 -20t-19.5 -46q0 -67 65 -67q68 0 68 67q0 27 -19.5 46.5t-48.5 19.5zM805 1262q-1 1 -4 3.5t-5.5 5t-4.5 5.5q-6 -6 -9 -12
q15 0 23 -2z" />
    <glyph glyph-name="Aring" unicode="&#xc5;" horiz-adv-x="1388" 
d="M696 1536q52 0 95 -49l59 -57q29 -40 29 -80q0 -55 -45 -93q141 -28 267.5 -135t201.5 -252.5t75 -285.5v-621h-354l-92 82v168h-330v-250h-356l-92 82v625q0 149 67.5 281t188 217t266.5 98q-56 41 -77 73q-24 36 -24 76q0 49 35.5 85t85.5 36zM725 1225
q-146 0 -268 -76.5t-191 -204t-69 -274.5v-580h278v250h500v-250h276v580q0 148 -68.5 275.5t-190 203.5t-267.5 76zM975 616h-500v54q0 112 72 195t178 83q105 0 177.5 -84t72.5 -194v-54zM610 659h322v11q0 70 -25 110.5t-96 40.5q-66 0 -121.5 -46t-79.5 -116zM696 1503
q-37 0 -63.5 -25.5t-26.5 -62.5q0 -38 26.5 -64t63.5 -26t63.5 26t26.5 64q0 35 -26.5 61.5t-63.5 26.5zM696 1372q-41 0 -41 43q0 39 41 39t41 -39q0 -43 -41 -43z" />
    <glyph glyph-name="AE" unicode="&#xc6;" horiz-adv-x="2029" 
d="M539 659h321v11q0 70 -25 110.5t-96 40.5q-66 0 -121 -46t-79 -116zM1438 1241h499l82 -92v-356h-264l60 -60v-321h122l82 -93v-356h-493q-121 0 -219 43v-43h-355l-92 82v168h-330v-250h-356l-92 82v625q0 160 75.5 297.5t207.5 219t288 81.5q239 0 406 -176
q162 149 379 149zM1894 1198h-456q-225 0 -381 -172q-159 199 -404 199q-145 0 -267 -75.5t-191.5 -203t-69.5 -276.5v-580h278v250h500v-250h277v70q119 -70 258 -70h456v279h-456q-144 0 -215 135h465v278h-465q71 138 215 138h456v278zM403 616v54q0 112 72 195t178 83
q105 0 177.5 -84t72.5 -194v-54h-500z" />
    <glyph glyph-name="Ccedilla" unicode="&#xc7;" horiz-adv-x="1146" 
d="M500 518q0 -71 28 -108t95 -37h432l82 -92v-355h-303l-5 -10q77 -78 94 -109t17 -94q0 -86 -57.5 -147.5t-141.5 -61.5h-221q-84 84 -94 84h-2l68 170q48 -1 74.5 -0.5t56 1.5t39.5 1h-70q-85 82 -94 82h-2l41 109q-486 159 -486 653q0 120 44.5 230.5t120.5 192
t182.5 129.5t224.5 48h432l82 -94v-354h-428q-87 0 -148 -72.5t-61 -165.5zM815 -199q0 60 -37 107t-94 59l35 84h293v279h-389q-107 0 -178.5 82t-71.5 192q0 112 72 194.5t178 82.5h389v278h-389q-144 0 -266.5 -76t-192.5 -203.5t-70 -275.5q0 -149 70 -276t193 -202
t270 -75l-66 -164q107 0 138.5 -16.5t31.5 -69.5q0 -35 -23 -60.5t-55 -25.5h-129l-35 -84h164q68 0 115 50t47 120z" />
    <glyph glyph-name="Egrave" unicode="&#xc8;" horiz-adv-x="1216" 
d="M1042 1239h52q1 1 20.5 -20.5t61.5 -71.5v-356h-269l62 -60v-321h125q0 1 3 -2.5t10 -12t16 -19t23.5 -27.5t29.5 -34v-354h-498q-127 0 -248.5 55.5t-211 146.5t-144 215t-54.5 255q0 119 44 230t119.5 194t182.5 132.5t226 49.5h205l-176 111q-5 3 -25.5 13t-31 16.5
t-33.5 22.5t-53 41.5t-70 61.5h352l225 -202zM1051 1196h-459q-146 0 -268.5 -76.5t-191.5 -204t-69 -274.5q0 -148 69 -275.5t191.5 -203.5t268.5 -76h459v279h-459q-145 0 -215 137h465v278h-465q71 138 215 138h459v278zM752 1346h122l-131 116h-180z" />
    <glyph glyph-name="Eacute" unicode="&#xc9;" horiz-adv-x="1216" 
d="M561 1239l-72 72l-10 6l217 196h353l65 -92l-293 -182h273q1 1 20.5 -20.5t61.5 -71.5v-356h-269l62 -60v-321h125q0 1 3 -2.5t10 -12t16 -19t23.5 -27.5t29.5 -34v-354h-498q-127 0 -248.5 55.5t-211 146.5t-144 215t-54.5 255q0 152 68.5 287.5t194 223t278.5 95.5z
M1051 1196h-459q-146 0 -268.5 -76.5t-191.5 -204t-69 -274.5q0 -148 69 -275.5t191.5 -203.5t268.5 -76h459v279h-459q-145 0 -215 137h465v278h-465q71 138 215 138h459v278zM582 1354h123l186 116h-180z" />
    <glyph glyph-name="Ecircumflex" unicode="&#xca;" horiz-adv-x="1216" 
d="M1006 1239h88q1 1 20.5 -20.5t61.5 -71.5v-356h-269l62 -60v-321h125q0 1 3 -2.5t10 -12t16 -19t23.5 -27.5t29.5 -34v-354h-498q-127 0 -248.5 55.5t-211 146.5t-144 215t-54.5 255q0 149 66 282t187 221t270 101l-88 90l137 162q33 39 96 39t98 -41q11 -13 26.5 -30
t66.5 -74.5t127 -143.5zM1051 1196h-459q-146 0 -268.5 -76.5t-191.5 -204t-69 -274.5q0 -148 69 -275.5t191.5 -203.5t268.5 -76h459v279h-459q-145 0 -215 137h465v278h-465q71 138 215 138h459v278zM633 1362l55 78q17 -30 53 -78h95l-84 96q-22 25 -64 25q-43 0 -63 -23
l-86 -98h94zM768 1276l-23 -37h60z" />
    <glyph glyph-name="Edieresis" unicode="&#xcb;" horiz-adv-x="1216" 
d="M578 1509q60 0 94 -51q26 51 94 51q53 0 92 -51l64 -61q32 -30 36 -84q0 -44 -30 -74h166q1 1 20.5 -20.5t61.5 -71.5v-356h-269l62 -60v-321h125q0 1 3 -2.5t10 -12t16 -19t23.5 -27.5t29.5 -34v-354h-498q-127 0 -248.5 55.5t-211 146.5t-144 215t-54.5 255
q0 156 71.5 293t201 223t287.5 90q-13 11 -31.5 28t-50 60t-31.5 72q0 44 33.5 77t77.5 33zM1051 1196h-459q-146 0 -268.5 -76.5t-191.5 -204t-69 -274.5q0 -148 69 -275.5t191.5 -203.5t268.5 -76h459v279h-459q-145 0 -215 137h465v278h-465q71 138 215 138h459v278z
M766 1466q-68 0 -68 -65q0 -68 68 -68q27 0 46 19.5t19 48.5q0 26 -19.5 45.5t-45.5 19.5zM578 1464q-26 0 -46 -19.5t-20 -45.5q0 -68 66 -68q67 0 67 68q0 27 -19 46t-48 19zM756 1260l-17 -21h41q-12 9 -24 21z" />
    <glyph glyph-name="Igrave" unicode="&#xcc;" horiz-adv-x="653" 
d="M178 55v824h117q-12 5 -31 20l-57 55q-32 30 -42.5 51t-10.5 52q0 45 31.5 77.5t78.5 32.5q63 0 92 -51q30 53 95 53q55 0 94 -51l63 -61q35 -41 35 -86q0 -39 -26.5 -69t-63.5 -36l72 -82v-813h-355zM221 834v-736h277v736h-277zM451 1124q-66 0 -66 -65q0 -68 66 -68
q28 0 47.5 20.5t19.5 47.5t-19 46t-48 19zM264 1122q-26 0 -46.5 -19.5t-20.5 -45.5q0 -66 67 -66q66 0 66 66q0 26 -20 45.5t-46 19.5zM442 918q-15 -27 -36 -39h90q-30 15 -54 39z" />
    <glyph glyph-name="Iacute" unicode="&#xcd;" horiz-adv-x="614" 
d="M158 55v824h90l-62 120l148 273h244l47 -129l-213 -264h110l82 -95v-813h-354zM201 834v-736h276v736h-276zM256 1051h84l131 159h-125z" />
    <glyph glyph-name="Icircumflex" unicode="&#xce;" horiz-adv-x="620" 
d="M207 834v-736h276v736h-276zM164 55v824h364l82 -95v-813h-354zM362 1077h82l-86 152h-122zM520 1020l51 -109h-157l-140 168q-5 6 -22.5 24.5t-29 33t-36.5 54t-55 95.5h238z" />
    <glyph glyph-name="Idieresis" unicode="&#xcf;" horiz-adv-x="614" 
d="M203 834v-736h276v736h-276zM158 55v824h364l82 -95v-813h-352zM260 1055l43 88q7 -22 37 -88h70l-62 110q-15 27 -45 27q-33 0 -49 -25l-64 -112h70zM487 1001l52 -86h-148l-31 46l-18 -46h-147l-66 103l100 180q24 43 74 43q47 0 70 -45l28 -51q6 -9 17 -28t31 -52.5
t38 -63.5z" />
    <glyph glyph-name="Eth" unicode="&#xd0;" horiz-adv-x="1304" 
d="M803 735v-235q43 58 43 141q0 138 -98 147zM82 461v366h65v412h494q129 0 250.5 -58t209 -152.5t140.5 -220t53 -255.5q0 -160 -76.5 -296.5t-207 -216t-283.5 -79.5h-485l-95 82v363zM125 784v-278h68v-420h448q143 0 264.5 75.5t191.5 203.5t70 276q0 147 -69 274.5
t-190.5 204t-266.5 76.5h-448v-412h-68zM469 506h209v278h-209v134h172q103 0 175.5 -82.5t72.5 -194.5q0 -114 -72 -195t-176 -81h-172v141z" />
    <glyph glyph-name="Ntilde" unicode="&#xd1;" horiz-adv-x="1380" 
d="M762 1509l115 -71h1q0 -1 2 -3.5t4.5 -5.5t6.5 -7.5t8.5 -10t11 -12.5t13 -14.5t15 -17t17.5 -19.5q-39 -74 -77 -99q137 -38 250.5 -142.5t177 -242.5t63.5 -278v-623h-352l-92 82v629q0 67 -25 108t-92 41q-90 0 -150.5 -71t-60.5 -166v-623h-352l-92 82v629
q0 221 143 392.5t354 199.5l-59 32q-71 72 -90 91q52 131 131 131q11 0 24.5 -4t24.5 -9t20 -10.5t15 -9.5l6 -4v2q5 -5 14 -8q7 7 25 32zM721 1227q-146 0 -267 -76t-189 -203t-68 -274v-584h276v584q0 110 71 192t177 82q104 0 176 -80t72 -194v-584h276v584
q0 109 -40.5 210.5t-109.5 177t-167 120.5t-207 45zM819 1423l-47 31q-16 -29 -35 -29l-21 13q-22 13 -47.5 26t-35.5 13q-51 0 -82 -72l43 -37q21 37 39 37q1 0 45 -23.5t59 -23.5q47 0 82 65zM721 1270h8l-6 6q0 -4 -2 -6z" />
    <glyph glyph-name="Ograve" unicode="&#xd2;" horiz-adv-x="1372" 
d="M840 1313l73 -84h-79q139 -51 254 -163.5t179 -250.5t64 -268q0 -123 -47.5 -238t-128.5 -200t-194 -136t-238 -51q-108 0 -213.5 38t-193 106t-154.5 156.5t-104.5 195.5t-37.5 217q0 165 80 308t219 230t304 91l-150 94q-4 3 -38.5 21t-74 48.5t-98.5 88.5h352z
M635 1219q-117 0 -223.5 -47.5t-182.5 -126.5t-121 -186.5t-45 -223.5q0 -118 45 -226t121.5 -187t182.5 -126t223 -47q156 0 287.5 80t206.5 214.5t75 291.5q0 155 -75 289t-206.5 214.5t-287.5 80.5zM635 326q-126 0 -210.5 91t-84.5 218q0 126 86 217.5t209 91.5
q124 0 209.5 -92.5t85.5 -216.5t-85.5 -216.5t-209.5 -92.5zM635 369q107 0 178.5 79t71.5 187q0 83 -45 151q-54 31 -117 31q-105 0 -181.5 -80.5t-76.5 -189.5q0 -74 35 -139q56 -39 135 -39zM606 1356h121l-129 114h-180z" />
    <glyph glyph-name="Oacute" unicode="&#xd3;" horiz-adv-x="1372" 
d="M539 1255l-62 66l-10 6l217 197h352q1 -1 8 -11.5t23 -33.5t35 -49l-303 -189q142 -42 265.5 -155t195 -258t71.5 -281q0 -123 -47.5 -238t-128.5 -200t-194 -136t-238 -51q-108 0 -213.5 38t-193 106t-154.5 156.5t-104.5 195.5t-37.5 217q0 147 66.5 281.5t186.5 226
t266 112.5zM635 1219q-117 0 -223.5 -47.5t-182.5 -126.5t-121 -186.5t-45 -223.5q0 -118 45 -226t121.5 -187t182.5 -126t223 -47q156 0 287.5 80t206.5 214.5t75 291.5q0 155 -75 289t-206.5 214.5t-287.5 80.5zM635 326q-126 0 -210.5 91t-84.5 218q0 126 86 217.5
t209 91.5q124 0 209.5 -92.5t85.5 -216.5t-85.5 -216.5t-209.5 -92.5zM635 369q107 0 178.5 79t71.5 187q0 83 -45 151q-54 31 -117 31q-105 0 -181.5 -80.5t-76.5 -189.5q0 -74 35 -139q56 -39 135 -39zM569 1364h123l187 115h-181z" />
    <glyph glyph-name="Ocircumflex" unicode="&#xd4;" horiz-adv-x="1372" 
d="M926 1241h-129q143 -41 267.5 -154t195.5 -258t71 -282q0 -123 -47.5 -238t-128.5 -200t-194 -136t-238 -51q-108 0 -213.5 38t-193 106t-154.5 156.5t-104.5 195.5t-37.5 217q0 203 124.5 376.5t320.5 229.5h-4l-90 92l137 162q30 37 98 37q63 0 96 -39q11 -14 27 -31.5
t68 -75t129 -145.5zM635 1219q-117 0 -223.5 -47.5t-182.5 -126.5t-121 -186.5t-45 -223.5q0 -118 45 -226t121.5 -187t182.5 -126t223 -47q156 0 287.5 80t206.5 214.5t75 291.5q0 155 -75 289t-206.5 214.5t-287.5 80.5zM635 326q-126 0 -210.5 91t-84.5 218
q0 126 86 217.5t209 91.5q124 0 209.5 -92.5t85.5 -216.5t-85.5 -216.5t-209.5 -92.5zM635 369q107 0 178.5 79t71.5 187q0 83 -45 151q-54 31 -117 31q-105 0 -181.5 -80.5t-76.5 -189.5q0 -74 35 -139q56 -39 135 -39zM606 1446q22 -39 51 -80h97l-84 98q-22 25 -64 25
t-65 -23l-86 -100h94q30 45 57 80zM707 1260l-23 20l-12 -18q6 0 17.5 -1t17.5 -1z" />
    <glyph glyph-name="Otilde" unicode="&#xd5;" horiz-adv-x="1372" 
d="M707 1509l114 -71l3 -3q2 -3 9 -10.5t16.5 -17.5t24 -26t29.5 -33q-49 -89 -98 -109q143 -45 265 -157.5t191.5 -255.5t69.5 -279q0 -123 -47.5 -238t-128.5 -200t-194 -136t-238 -51q-108 0 -213.5 38t-193 106t-154.5 156.5t-104.5 195.5t-37.5 217q0 120 45.5 233
t122.5 197.5t185 137.5t227 59l-63 36l-91 91q52 131 132 131q11 0 24.5 -4t24.5 -9t20 -10.5t15 -9.5l6 -4v2q5 -5 14 -8q8 7 25 32zM635 1219q-117 0 -223.5 -47.5t-182.5 -126.5t-121 -186.5t-45 -223.5q0 -118 45 -226t121.5 -187t182.5 -126t223 -47q156 0 287.5 80
t206.5 214.5t75 291.5q0 155 -75 289t-206.5 214.5t-287.5 80.5zM635 326q-126 0 -210.5 91t-84.5 218q0 126 86 217.5t209 91.5q124 0 209.5 -92.5t85.5 -216.5t-85.5 -216.5t-209.5 -92.5zM635 369q107 0 178.5 79t71.5 187q0 83 -45 151q-54 31 -117 31
q-105 0 -181.5 -80.5t-76.5 -189.5q0 -74 35 -139q56 -39 135 -39zM764 1423l-47 31q-16 -29 -35 -29l-22 13q-21 13 -46.5 26t-35.5 13q-51 0 -82 -72l43 -37q21 37 39 37q2 0 45 -23.5t59 -23.5q47 0 82 65zM662 1262h20q-1 1 -4 3.5t-5.5 5t-4.5 5.5q0 -5 -6 -14z" />
    <glyph glyph-name="Odieresis" unicode="&#xd6;" horiz-adv-x="1372" 
d="M516 1526q63 0 92 -51q26 51 94 51q54 0 93 -51l63 -62q33 -31 37 -84q0 -33 -19 -59.5t-49 -38.5q138 -47 255 -159.5t183 -253t66 -271.5q0 -123 -47.5 -238t-128.5 -200t-194 -136t-238 -51q-108 0 -213.5 38t-193 106t-154.5 156.5t-104.5 195.5t-37.5 217
q0 143 63.5 275.5t178.5 224.5t256 118q-2 0 -5 4q-19 20 -54 56q-35 35 -44 53t-9 49q0 45 32 78t78 33zM635 1219q-117 0 -223.5 -47.5t-182.5 -126.5t-121 -186.5t-45 -223.5q0 -118 45 -226t121.5 -187t182.5 -126t223 -47q156 0 287.5 80t206.5 214.5t75 291.5
q0 155 -75 289t-206.5 214.5t-287.5 80.5zM635 326q-126 0 -210.5 91t-84.5 218q0 126 86 217.5t209 91.5q124 0 209.5 -92.5t85.5 -216.5t-85.5 -216.5t-209.5 -92.5zM635 369q107 0 178.5 79t71.5 187q0 83 -45 151q-54 31 -117 31q-105 0 -181.5 -80.5t-76.5 -189.5
q0 -74 35 -139q56 -39 135 -39zM516 1481q-29 0 -48 -19.5t-19 -46.5q0 -67 67 -67q66 0 66 67q0 26 -20 46t-46 20zM702 1483q-65 0 -65 -66q0 -67 65 -67q27 0 46.5 19t19.5 48q0 26 -20 46t-46 20zM684 1262l31 -5l-21 19z" />
    <glyph glyph-name="multiply" unicode="&#xd7;" horiz-adv-x="1124" 
d="M82 858l260 258l217 -217q47 49 215 217l172 -178q84 -89 168 -168l-213 -213l213 -219l-254 -252l-86 80l-131 131l-215 -211l-86 80l-260 260l217 215zM342 1055l-197 -197l217 -217l-217 -215l197 -197l217 215l215 -215l195 197l-215 215l215 217l-195 197l-215 -219
z" />
    <glyph glyph-name="Oslash" unicode="&#xd8;" horiz-adv-x="1372" 
d="M1362 547q0 -123 -47.5 -238t-128.5 -200t-194 -136t-238 -51q-174 0 -337 97.5t-264.5 261.5t-101.5 346q0 170 81.5 315.5t223.5 232.5t310 89q132 0 260.5 -61.5t223.5 -160.5t153.5 -230.5t58.5 -264.5zM1235 635q0 155 -75 289t-206.5 214.5t-287.5 80.5
q-117 0 -223.5 -47.5t-182.5 -126.5t-121 -186.5t-45 -223.5q0 -118 45 -226t121.5 -187t182.5 -126t223 -47q156 0 287.5 80t206.5 214.5t75 291.5zM961 635q0 -124 -85.5 -216.5t-209.5 -92.5q-126 0 -210.5 91t-84.5 218q0 126 86 217.5t209 91.5q124 0 209.5 -92.5
t85.5 -216.5zM498 465l151 330q-69 -31 -111 -99.5t-42 -148.5q0 -76 2 -82zM887 760l-170 -385q87 19 142.5 92.5t55.5 167.5q0 64 -28 125zM715 815l-185 -407q39 -23 70 -31l182 440h-28q-27 0 -39 -2z" />
    <glyph glyph-name="Ugrave" unicode="&#xd9;" horiz-adv-x="1380" 
d="M721 379q87 0 146 70t59 159v613h-160l-207 129q-4 2 -25.5 12.5t-31 17t-33.5 23t-53.5 42t-69.5 62.5h352l228 -202l63 -76h299q28 -28 82 -92v-617q0 -116 -44 -224.5t-118 -188t-178.5 -127.5t-220.5 -48q-131 0 -251.5 53.5t-209 143.5t-141.5 215.5t-53 263.5v621
h362l82 -92v-617q0 -33 3.5 -54.5t15 -43.5t37.5 -32.5t67 -10.5zM721 334q-106 0 -177 81.5t-71 192.5v578h-276v-578q0 -148 70 -275t191 -201.5t263 -74.5q108 0 205.5 44.5t167 119t110.5 176t41 211.5v578h-276v-578q0 -111 -71 -192.5t-177 -81.5zM690 1348h123
l-129 114h-180z" />
    <glyph glyph-name="Uacute" unicode="&#xda;" horiz-adv-x="1380" 
d="M721 379q87 0 146 70t59 159v621h362q28 -28 82 -92v-617q0 -116 -44 -224.5t-118 -188t-178.5 -127.5t-220.5 -48q-131 0 -251.5 53.5t-209 143.5t-141.5 215.5t-53 263.5v621h362l82 -92v-617q0 -33 3.5 -54.5t15 -43.5t37.5 -32.5t67 -10.5zM721 334q-106 0 -177 81.5
t-71 192.5v578h-276v-578q0 -148 70 -275t191 -201.5t263 -74.5q108 0 205.5 44.5t167 119t110.5 176t41 211.5v578h-276v-578q0 -111 -71 -192.5t-177 -81.5zM580 1212l-82 84l-9 7l216 196h352q1 -1 7.5 -11.5t22.5 -33.5t35 -49l-309 -193h-233zM590 1339h123l188 115
h-180z" />
    <glyph glyph-name="Ucircumflex" unicode="&#xdb;" horiz-adv-x="1380" 
d="M721 379q87 0 146 70t59 159v621h362q28 -28 82 -92v-617q0 -116 -44 -224.5t-118 -188t-178.5 -127.5t-220.5 -48q-131 0 -251.5 53.5t-209 143.5t-141.5 215.5t-53 263.5v621h362l82 -92v-617q0 -33 3.5 -54.5t15 -43.5t37.5 -32.5t67 -10.5zM721 334q-106 0 -177 81.5
t-71 192.5v578h-276v-578q0 -148 70 -275t191 -201.5t263 -74.5q108 0 205.5 44.5t167 119t110.5 176t41 211.5v578h-276v-578q0 -111 -71 -192.5t-177 -81.5zM690 1436q22 -40 51 -78h95l-84 96q-22 25 -62 25q-42 0 -65 -23l-86 -98h94q20 30 57 78zM1010 1231h-199
l-43 41l-25 -41h-198l-90 92l137 162q33 39 98 39q61 0 96 -41q11 -14 27 -31.5t68 -75t129 -145.5z" />
    <glyph glyph-name="Udieresis" unicode="&#xdc;" horiz-adv-x="1380" 
d="M594 1493q63 0 92 -51q29 51 94 51q55 0 94 -51l64 -62q35 -41 35 -84q0 -37 -27 -67h342q28 -28 82 -92v-617q0 -116 -44 -224.5t-118 -188t-178.5 -127.5t-220.5 -48q-131 0 -251.5 53.5t-209 143.5t-141.5 215.5t-53 263.5v621h362l82 -92v-617q0 -33 3.5 -54.5
t15 -43.5t37.5 -32.5t67 -10.5q87 0 146 70t59 159v600q-26 -16 -58 -16q-39 0 -96 51q-30 -53 -90 -53q-39 0 -60 13t-85 77q-35 35 -44.5 53.5t-9.5 48.5q0 45 32 78t79 33zM721 334q-106 0 -177 81.5t-71 192.5v578h-276v-578q0 -148 70 -275t191 -201.5t263 -74.5
q108 0 205.5 44.5t167 119t110.5 176t41 211.5v578h-276v-578q0 -111 -71 -192.5t-177 -81.5zM780 1450q-65 0 -65 -66q0 -67 65 -67q29 0 48.5 19t19.5 48q0 27 -19.5 46.5t-48.5 19.5zM594 1448q-26 0 -47 -20t-21 -46q0 -67 68 -67q65 0 65 67q0 26 -19.5 46t-45.5 20z
" />
    <glyph glyph-name="Yacute" unicode="&#xdd;" horiz-adv-x="1427" 
d="M1268 1198h-318q-71 -139 -235 -444l-193 444h-303l326 -749q-66 -84 -156 -84h-158v-277h158q118 0 235.5 69.5t174.5 172.5q226 410 469 868zM920 1233h413l84 -84q-190 -360 -497 -928q-68 -116 -193 -188t-252 -72h-194q-85 71 -95 82v367h203q55 0 103 45l-338 786
h376l82 -27q8 -23 131 -317q121 222 177 336zM596 1241l-84 82l-8 6l215 197h352l68 -92l-312 -193h-231zM606 1366h123l186 117h-180z" />
    <glyph glyph-name="Thorn" unicode="&#xde;" horiz-adv-x="1300" 
d="M530 674v-150h215q38 0 67.5 35.5t29.5 81.5q0 13 -4 33h-308zM449 1239l81 -92v-25h215q140 0 267 -82t202.5 -214t75.5 -273q0 -126 -59.5 -235t-165 -174.5t-231.5 -65.5h-304v-117h-356l-92 82v1196h367zM745 481h-342v318h342q57 0 98.5 -46t41.5 -112
q0 -65 -41 -112.5t-99 -47.5zM403 1077v119h-278v-1110h278v119h342q176 0 297 128.5t121 307.5q0 115 -54.5 215.5t-151.5 160.5t-212 60h-342z" />
    <glyph glyph-name="germandbls" unicode="&#xdf;" horiz-adv-x="1316" 
d="M418 1239h430q107 0 215 -71.5t176 -180.5t68 -213q0 -132 -56 -221q56 -86 56 -221q0 -156 -108.5 -263.5t-264.5 -107.5h-316l-81 82h-7v-82h-356l-92 82v817q0 155 99 267t237 112zM403 780v80q0 43 21 58h424q55 0 55 -58v-24q0 -56 -55 -56h-445zM848 1196h-430
q-120 0 -206.5 -99.5t-86.5 -236.5v-774h278v416h445q55 0 55 -82q0 -55 -55 -55h-277v-279h277q138 0 235 99t97 235v26q0 107 -64 195q64 85 64 219q0 138 -97 237t-235 99z" />
    <glyph glyph-name="agrave" unicode="&#xe0;" horiz-adv-x="1536" 
d="M819 1294l74 -82h-23q115 -42 210 -146t143 -235l303 -870h-377l-90 82l-15 41v-123h-426q-208 0 -336 130.5t-128 344.5q0 246 217 355h-31l-92 81v367h368l-163 102q-8 5 -31.5 17t-41 23t-55 41.5t-83.5 74.5h352zM530 502h414l146 -416h294l-286 821
q-43 121 -153.5 205t-227.5 84h-424v-278h424q50 0 77.5 -28.5t53.5 -109.5h-318q-137 0 -235 -98t-98 -236v-26q0 -137 98.5 -235.5t234.5 -98.5h390v279h-390q-55 0 -55 81q0 56 55 56zM584 1337h123l-129 117h-181z" />
    <glyph glyph-name="aacute" unicode="&#xe1;" horiz-adv-x="1536" 
d="M375 1239l-72 72l-10 6l217 196h352l66 -92l-293 -182h82q163 0 301.5 -114t204.5 -294l303 -870h-377l-90 82l-15 41v-123h-426q-208 0 -336 130.5t-128 344.5q0 246 217 355h-31l-92 81v367h127zM530 502h414l146 -416h294l-286 821q-43 121 -153.5 205t-227.5 84h-424
v-278h424q50 0 77.5 -28.5t53.5 -109.5h-318q-137 0 -235 -98t-98 -236v-26q0 -137 98.5 -235.5t234.5 -98.5h390v279h-390q-55 0 -55 81q0 56 55 56zM395 1354h123l187 116h-181z" />
    <glyph glyph-name="acircumflex" unicode="&#xe2;" horiz-adv-x="1536" 
d="M899 1239h-164q156 -6 290 -120t198 -288l303 -870h-377l-90 82l-15 41v-123h-426q-208 0 -336 130.5t-128 344.5q0 246 217 355h-31l-92 81v367h186l-90 92l137 162q33 39 99 39q61 0 96 -41q12 -14 27 -31t67.5 -75.5t128.5 -145.5zM530 502h414l146 -416h294l-286 821
q-43 121 -153.5 205t-227.5 84h-424v-278h424q50 0 77.5 -28.5t53.5 -109.5h-318q-137 0 -235 -98t-98 -236v-26q0 -137 98.5 -235.5t234.5 -98.5h390v279h-390q-55 0 -55 81q0 56 55 56zM580 1444q22 -40 51 -78h94l-84 96q-22 25 -61 25q-43 0 -66 -23l-86 -98h94
q14 21 58 78zM700 1239l-43 41l-24 -41h67z" />
    <glyph glyph-name="atilde" unicode="&#xe3;" horiz-adv-x="1536" 
d="M571 1507l115 -71l2 -2q2 -3 10 -11t17 -17.5t23.5 -25t29.5 -32.5q-43 -85 -92 -109h41q163 0 301.5 -114t204.5 -294l303 -870h-377l-90 82l-15 41v-123h-426q-208 0 -336 130.5t-128 344.5q0 246 217 355h-31l-92 81v367h260l-107 59l-90 88q56 134 133 134
q11 0 24 -3.5t23.5 -9t19 -10.5t15.5 -9l6 -5l15 -8q4 4 24 32zM530 502h414l146 -416h294l-286 821q-43 121 -153.5 205t-227.5 84h-424v-278h424q50 0 77.5 -28.5t53.5 -109.5h-318q-137 0 -235 -98t-98 -236v-26q0 -137 98.5 -235.5t234.5 -98.5h390v279h-390
q-55 0 -55 81q0 56 55 56zM629 1421l-47 33q-16 -31 -35 -31l-45 26q-46 26 -58 26q-53 0 -84 -72l43 -37q20 39 41 39q1 0 45 -24.5t58 -24.5q47 0 82 65zM532 1276q0 -8 -20 -37h72q-27 12 -52 37z" />
    <glyph glyph-name="adieresis" unicode="&#xe4;" horiz-adv-x="1536" 
d="M403 1524q61 0 95 -51q27 53 94 53q53 0 92 -51l64 -62q32 -30 36 -86q0 -58 -49 -88q156 -6 290 -120t198 -288l303 -870h-377l-90 82l-15 41v-123h-426q-208 0 -336 130.5t-128 344.5q0 246 217 355h-31l-92 81v367h178q-5 3 -23 16l-57 56q-31 31 -42 52t-11 50
q0 47 32.5 79t77.5 32zM530 502h414l146 -416h294l-286 821q-43 121 -153.5 205t-227.5 84h-424v-278h424q50 0 77.5 -28.5t53.5 -109.5h-318q-137 0 -235 -98t-98 -236v-26q0 -137 98.5 -235.5t234.5 -98.5h390v279h-390q-55 0 -55 81q0 56 55 56zM403 1481
q-27 0 -46 -19.5t-19 -48.5q0 -65 65 -65q68 0 68 65q0 29 -19.5 48.5t-48.5 19.5zM592 1481q-68 0 -68 -66q0 -65 68 -65q26 0 45.5 19.5t19.5 45.5t-19.5 46t-45.5 20zM582 1276q-12 -24 -31 -37h78q-23 13 -47 37z" />
    <glyph glyph-name="aring" unicode="&#xe5;" horiz-adv-x="1536" 
d="M506 1536q56 0 106 -53l64 -66q29 -29 33 -88q0 -53 -37 -90h45q163 0 301.5 -114t204.5 -294l303 -870h-377l-90 82l-15 41v-123h-426q-208 0 -336 130.5t-128 344.5q0 246 217 355h-31l-92 81v367h231q-2 2 -16.5 13.5t-23.5 19.5t-23.5 23.5t-23 30t-15 34.5t-6.5 41
q0 55 39.5 95t95.5 40zM530 502h414l146 -416h294l-286 821q-43 121 -153.5 205t-227.5 84h-424v-278h424q50 0 77.5 -28.5t53.5 -109.5h-318q-137 0 -235 -98t-98 -236v-26q0 -137 98.5 -235.5t234.5 -98.5h390v279h-390q-55 0 -55 81q0 56 55 56zM506 1499
q-41 0 -69.5 -28.5t-28.5 -69.5q0 -42 28.5 -71.5t69.5 -29.5t69.5 29.5t28.5 71.5q0 41 -28.5 69.5t-69.5 28.5zM506 1356q-45 0 -45 45t45 45t45 -45t-45 -45z" />
    <glyph glyph-name="ae" unicode="&#xe6;" horiz-adv-x="2101" 
d="M86 1239h559q194 0 340 -174q171 180 420 180h237q121 0 224.5 -62t164 -167t60.5 -225v-50q0 -109 -56 -198t-153 -133h90l82 -93v-356h-563q-165 0 -283 61.5t-235 213.5v-275h-426q-198 0 -331.5 135.5t-133.5 339.5q0 246 217 355h-121l-92 83v365zM981 995
q-57 90 -147.5 145.5t-188.5 55.5h-516v-278h516q49 0 77.5 -28t53.5 -110h-317q-136 0 -235 -97t-99 -237v-26q0 -137 98 -234.5t236 -97.5h389v279h-389q-56 0 -56 79q0 56 56 56h413v4h5q46 -184 194 -301t334 -117h522v279h-522q-114 0 -190 82t-76 196q0 112 77 195.5
t189 83.5h237q27 0 35.5 -18.5t8.5 -78.5q0 -45 -44 -45h-368v-278h368q132 0 227 95.5t95 227.5v52q0 134 -96 227.5t-226 93.5h-237q-261 0 -424 -205z" />
    <glyph glyph-name="ccedilla" unicode="&#xe7;" horiz-adv-x="1146" 
d="M500 518q0 -71 28 -108t95 -37h432l82 -92v-355h-303l-5 -10q77 -78 94 -109t17 -94q0 -86 -57.5 -147.5t-141.5 -61.5h-221q-84 84 -94 84h-2l68 170q48 -1 74.5 -0.5t56 1.5t39.5 1h-70q-85 82 -94 82h-2l41 109q-486 159 -486 653q0 120 44.5 230.5t120.5 192
t182.5 129.5t224.5 48h432l82 -94v-354h-428q-87 0 -148 -72.5t-61 -165.5zM815 -199q0 60 -37 107t-94 59l35 84h293v279h-389q-107 0 -178.5 82t-71.5 192q0 112 72 194.5t178 82.5h389v278h-389q-144 0 -266.5 -76t-192.5 -203.5t-70 -275.5q0 -149 70 -276t193 -202
t270 -75l-66 -164q107 0 138.5 -16.5t31.5 -69.5q0 -35 -23 -60.5t-55 -25.5h-129l-35 -84h164q68 0 115 50t47 120z" />
    <glyph glyph-name="egrave" unicode="&#xe8;" horiz-adv-x="1335" 
d="M20 645q0 161 78 299t213 219.5t295 81.5h82l-168 105q-4 2 -25.5 12.5t-31 17t-33.5 23t-53.5 42t-69.5 62.5h352l226 -202l63 -72q139 -37 242.5 -170t103.5 -272v-50q0 -109 -56 -198t-153 -133h89l83 -93v-356h-563q-129 0 -252.5 56t-216 148.5t-149 219
t-56.5 260.5zM63 645q0 -150 72 -278t197 -203.5t274 -75.5h524v279h-524q-112 0 -188 81.5t-76 196.5q0 112 76.5 195.5t187.5 83.5h240q45 0 45 -97q0 -45 -45 -45h-369v-278h369q132 0 226.5 95.5t94.5 227.5v52q0 134 -95.5 227.5t-225.5 93.5h-240q-148 0 -273.5 -76
t-197.5 -203.5t-72 -275.5zM651 1348h123l-131 114h-180z" />
    <glyph glyph-name="eacute" unicode="&#xe9;" horiz-adv-x="1335" 
d="M524 1239l-61 66l-10 6l217 196h352q1 -1 7.5 -11.5t22.5 -33.5t35 -49l-270 -168h29q83 0 165.5 -39.5t144 -102t100 -146t38.5 -166.5v-50q0 -109 -56 -198t-153 -133h89l83 -93v-356h-563q-129 0 -252.5 56t-216 148.5t-149 219t-56.5 260.5q0 144 65 273.5t181 216
t258 104.5zM63 645q0 -150 72 -278t197 -203.5t274 -75.5h524v279h-524q-112 0 -188 81.5t-76 196.5q0 112 76.5 195.5t187.5 83.5h240q45 0 45 -97q0 -45 -45 -45h-369v-278h369q132 0 226.5 95.5t94.5 227.5v52q0 134 -95.5 227.5t-225.5 93.5h-240q-148 0 -273.5 -76
t-197.5 -203.5t-72 -275.5zM555 1348h123l188 114h-182z" />
    <glyph glyph-name="ecircumflex" unicode="&#xea;" horiz-adv-x="1335" 
d="M1010 1231h-56q139 -41 239.5 -172t100.5 -268v-50q0 -109 -56 -198t-153 -133h89l83 -93v-356h-563q-129 0 -252.5 56t-216 148.5t-149 219t-56.5 260.5q0 224 148 396t367 200l-80 82l137 162q33 39 96 39t98 -41q11 -14 27 -31.5t68 -75t129 -145.5zM63 645
q0 -150 72 -278t197 -203.5t274 -75.5h524v279h-524q-112 0 -188 81.5t-76 196.5q0 112 76.5 195.5t187.5 83.5h240q45 0 45 -97q0 -45 -45 -45h-369v-278h369q132 0 226.5 95.5t94.5 227.5v52q0 134 -95.5 227.5t-225.5 93.5h-240q-148 0 -273.5 -76t-197.5 -203.5
t-72 -275.5zM633 1358l55 78q17 -30 53 -78h95l-84 96q-22 25 -64 25q-43 0 -63 -23l-86 -98h94zM768 1272l-16 -27h43z" />
    <glyph glyph-name="edieresis" unicode="&#xeb;" horiz-adv-x="1335" 
d="M524 1518q60 0 94 -52q27 52 95 52q52 0 92 -52l63 -61q33 -31 37 -84q0 -46 -33 -76q105 -8 203.5 -75t158.5 -170t60 -209v-50q0 -109 -56 -198t-153 -133h89l83 -93v-356h-563q-129 0 -252.5 56t-216 148.5t-149 219t-56.5 260.5q0 224 148 396t367 200q-9 5 -11 8
q-6 0 -32.5 28t-52 67t-25.5 63q0 44 33 77.5t77 33.5zM63 645q0 -150 72 -278t197 -203.5t274 -75.5h524v279h-524q-112 0 -188 81.5t-76 196.5q0 112 76.5 195.5t187.5 83.5h240q45 0 45 -97q0 -45 -45 -45h-369v-278h369q132 0 226.5 95.5t94.5 227.5v52
q0 134 -95.5 227.5t-225.5 93.5h-240q-148 0 -273.5 -76t-197.5 -203.5t-72 -275.5zM524 1473q-26 0 -45.5 -20t-19.5 -46q0 -68 65 -68q68 0 68 68q0 27 -19.5 46.5t-48.5 19.5zM713 1475q-68 0 -68 -66q0 -68 68 -68q27 0 46 19.5t19 48.5q0 26 -19.5 46t-45.5 20z
M702 1268q-8 -12 -18 -23h45q-16 12 -27 23z" />
    <glyph glyph-name="igrave" unicode="&#xec;" horiz-adv-x="620" 
d="M207 834v-736h276v736h-276zM164 55v824h364l82 -95v-813h-354zM362 1077h82l-86 152h-122zM520 1020l51 -109h-157l-140 168q-5 6 -22.5 24.5t-29 33t-36.5 54t-55 95.5h238z" />
    <glyph glyph-name="iacute" unicode="&#xed;" horiz-adv-x="614" 
d="M158 55v824h90l-62 120l148 273h244l47 -129l-213 -264h110l82 -95v-813h-354zM201 834v-736h276v736h-276zM256 1051h84l131 159h-125z" />
    <glyph glyph-name="icircumflex" unicode="&#xee;" horiz-adv-x="620" 
d="M209 834v-736h276v736h-276zM164 55v824h364l82 -95v-813h-352zM348 1143q11 -26 39 -88h70l-62 110q-15 27 -47 27q-31 0 -47 -25l-63 -112h69q15 35 41 88zM535 1001l51 -86h-148l-30 46l-19 -46h-147l-66 103l100 180q24 43 72 43q49 0 72 -45l29 -51q6 -9 17 -28
t31 -52.5t38 -63.5z" />
    <glyph glyph-name="idieresis" unicode="&#xef;" horiz-adv-x="653" 
d="M178 55v824h96q-10 4 -30 20l-58 55q-32 30 -42.5 51t-10.5 52q0 45 32 77.5t79 32.5q63 0 92 -51q30 53 94 53q55 0 94 -51l64 -61q35 -41 35 -86q0 -34 -21 -62t-53 -39l76 -86v-813h-355zM221 834v-736h277v736h-277zM430 1124q-65 0 -65 -65q0 -68 65 -68
q29 0 48.5 20.5t19.5 47.5t-19.5 46t-48.5 19zM244 1122q-27 0 -47.5 -19.5t-20.5 -45.5q0 -66 68 -66q65 0 65 66q0 26 -19.5 45.5t-45.5 19.5zM422 918q-15 -26 -37 -39h90q-28 14 -53 39z" />
    <glyph glyph-name="eth" unicode="&#xf0;" horiz-adv-x="1304" 
d="M803 735v-235q43 58 43 141q0 138 -98 147zM82 461v366h65v412h494q129 0 250.5 -58t209 -152.5t140.5 -220t53 -255.5q0 -160 -76.5 -296.5t-207 -216t-283.5 -79.5h-485l-95 82v363zM125 784v-278h68v-420h448q143 0 264.5 75.5t191.5 203.5t70 276q0 147 -69 274.5
t-190.5 204t-266.5 76.5h-448v-412h-68zM469 506h209v278h-209v134h172q103 0 175.5 -82.5t72.5 -194.5q0 -114 -72 -195t-176 -81h-172v141z" />
    <glyph glyph-name="ntilde" unicode="&#xf1;" horiz-adv-x="1380" 
d="M782 1501l115 -71q-1 1 7 -8.5t28 -32.5t45 -50q-39 -73 -76 -98q201 -67 335 -257.5t134 -397.5v-623h-352l-92 82v629q0 67 -25 108t-92 41q-90 0 -150.5 -71t-60.5 -166v-623h-352l-92 82v629q0 145 65 275.5t181 216t255 100.5l-43 24l-90 90q52 131 131 131
q11 0 24.5 -3.5t24.5 -9t20 -11t15 -9.5l6 -3v2q6 -6 15 -9q2 2 24 33zM721 1227q-146 0 -267 -76t-189 -203t-68 -274v-584h276v584q0 110 71 192t177 82q104 0 176 -80t72 -194v-584h276v584q0 109 -40.5 210.5t-109.5 177t-167 120.5t-207 45zM840 1415l-47 31
q-16 -29 -35 -29l-22 13q-21 12 -47 25t-36 13q-52 0 -82 -71l43 -37q21 37 39 37q1 0 45.5 -23.5t59.5 -23.5q47 0 82 65z" />
    <glyph glyph-name="ograve" unicode="&#xf2;" horiz-adv-x="1372" 
d="M913 1305l72 -84h-129q133 -55 243 -167t171 -246.5t61 -260.5q0 -123 -47.5 -238t-128.5 -200t-194 -136t-238 -51q-108 0 -213.5 38t-193 106t-154.5 156.5t-104.5 195.5t-37.5 217q0 167 82 311.5t224.5 231t308.5 86.5q35 0 53 -2l-141 88q-4 2 -25.5 12.5t-31 17
t-33.5 23t-53.5 42t-69.5 62.5h352zM635 1219q-117 0 -223.5 -47.5t-182.5 -126.5t-121 -186.5t-45 -223.5q0 -118 45 -226t121.5 -187t182.5 -126t223 -47q156 0 287.5 80t206.5 214.5t75 291.5q0 155 -75 289t-206.5 214.5t-287.5 80.5zM635 326q-126 0 -210.5 91
t-84.5 218q0 126 86 217.5t209 91.5q124 0 209.5 -92.5t85.5 -216.5t-85.5 -216.5t-209.5 -92.5zM635 369q107 0 178.5 79t71.5 187q0 83 -45 151q-54 31 -117 31q-105 0 -181.5 -80.5t-76.5 -189.5q0 -74 35 -139q56 -39 135 -39zM678 1348h123l-129 114h-180z" />
    <glyph glyph-name="oacute" unicode="&#xf3;" horiz-adv-x="1372" 
d="M575 1260l-57 61l-10 6l217 197h352q1 -1 8 -11.5t23 -33.5t35 -49l-309 -193h-23q142 -46 262.5 -159t189 -255t68.5 -276q0 -123 -47.5 -238t-128.5 -200t-194 -136t-238 -51q-108 0 -213.5 38t-193 106t-154.5 156.5t-104.5 195.5t-37.5 217q0 155 72.5 293.5
t201 228.5t281.5 103zM635 1219q-117 0 -223.5 -47.5t-182.5 -126.5t-121 -186.5t-45 -223.5q0 -118 45 -226t121.5 -187t182.5 -126t223 -47q156 0 287.5 80t206.5 214.5t75 291.5q0 155 -75 289t-206.5 214.5t-287.5 80.5zM635 326q-126 0 -210.5 91t-84.5 218
q0 126 86 217.5t209 91.5q124 0 209.5 -92.5t85.5 -216.5t-85.5 -216.5t-209.5 -92.5zM635 369q107 0 178.5 79t71.5 187q0 83 -45 151q-54 31 -117 31q-105 0 -181.5 -80.5t-76.5 -189.5q0 -74 35 -139q56 -39 135 -39zM610 1364h123l187 115h-181z" />
    <glyph glyph-name="ocircumflex" unicode="&#xf4;" horiz-adv-x="1372" 
d="M944 1233h-121q140 -48 258 -160.5t184 -253t66 -272.5q0 -123 -47.5 -238t-128.5 -200t-194 -136t-238 -51q-108 0 -213.5 38t-193 106t-154.5 156.5t-104.5 195.5t-37.5 217q0 203 126 378.5t321 227.5l-80 84l137 162q30 37 99 37q60 0 96 -39q26 -26 225 -252z
M635 1219q-117 0 -223.5 -47.5t-182.5 -126.5t-121 -186.5t-45 -223.5q0 -118 45 -226t121.5 -187t182.5 -126t223 -47q156 0 287.5 80t206.5 214.5t75 291.5q0 155 -75 289t-206.5 214.5t-287.5 80.5zM635 326q-126 0 -210.5 91t-84.5 218q0 126 86 217.5t209 91.5
q124 0 209.5 -92.5t85.5 -216.5t-85.5 -216.5t-209.5 -92.5zM635 369q107 0 178.5 79t71.5 187q0 83 -45 151q-54 31 -117 31q-105 0 -181.5 -80.5t-76.5 -189.5q0 -74 35 -139q56 -39 135 -39zM567 1358l56 80q15 -26 53 -80h94l-84 98q-22 25 -63 25q-44 0 -64 -23
l-86 -100h94zM717 1257l-15 15l-8 -12q4 0 11.5 -1.5t11.5 -1.5z" />
    <glyph glyph-name="otilde" unicode="&#xf5;" horiz-adv-x="1372" 
d="M723 1509l117 -71l80 -90q-52 -96 -105 -113q140 -46 259.5 -158.5t188 -254t68.5 -275.5q0 -123 -47.5 -238t-128.5 -200t-194 -136t-238 -51q-108 0 -213.5 38t-193 106t-154.5 156.5t-104.5 195.5t-37.5 217q0 163 79.5 306.5t216.5 231t298 91.5l-61 34
q-71 72 -90 91q55 131 133 131q30 0 51 -15l37 -22v2q5 -5 14 -8q8 7 25 32zM635 1219q-117 0 -223.5 -47.5t-182.5 -126.5t-121 -186.5t-45 -223.5q0 -118 45 -226t121.5 -187t182.5 -126t223 -47q156 0 287.5 80t206.5 214.5t75 291.5q0 155 -75 289t-206.5 214.5
t-287.5 80.5zM635 326q-126 0 -210.5 91t-84.5 218q0 126 86 217.5t209 91.5q124 0 209.5 -92.5t85.5 -216.5t-85.5 -216.5t-209.5 -92.5zM635 369q107 0 178.5 79t71.5 187q0 83 -45 151q-54 31 -117 31q-105 0 -181.5 -80.5t-76.5 -189.5q0 -74 35 -139q56 -39 135 -39z
M782 1423l-49 31q-16 -29 -35 -29q1 0 -20.5 13t-47.5 26t-34 13q-54 0 -82 -72l41 -37q21 37 41 37q1 0 44 -23.5t58 -23.5q46 0 84 65zM700 1260l-16 16q0 -5 -6 -14q16 0 22 -2z" />
    <glyph glyph-name="odieresis" unicode="&#xf6;" horiz-adv-x="1372" 
d="M516 1534q63 0 92 -51q26 51 94 51q54 0 93 -51l63 -62q33 -31 37 -84q0 -36 -23 -64.5t-59 -37.5q142 -46 262 -158.5t188 -254t68 -275.5q0 -123 -47.5 -238t-128.5 -200t-194 -136t-238 -51q-108 0 -213.5 38t-193 106t-154.5 156.5t-104.5 195.5t-37.5 217
q0 145 65 278.5t182.5 225.5t260.5 116q-5 2 -8 1q-1 -1 -6 6q-21 23 -55 59q-35 35 -44 53t-9 49q0 45 32 78t78 33zM635 1219q-117 0 -223.5 -47.5t-182.5 -126.5t-121 -186.5t-45 -223.5q0 -118 45 -226t121.5 -187t182.5 -126t223 -47q156 0 287.5 80t206.5 214.5
t75 291.5q0 155 -75 289t-206.5 214.5t-287.5 80.5zM635 326q-126 0 -210.5 91t-84.5 218q0 126 86 217.5t209 91.5q124 0 209.5 -92.5t85.5 -216.5t-85.5 -216.5t-209.5 -92.5zM635 369q107 0 178.5 79t71.5 187q0 83 -45 151q-54 31 -117 31q-105 0 -181.5 -80.5
t-76.5 -189.5q0 -74 35 -139q56 -39 135 -39zM516 1489q-29 0 -48 -19.5t-19 -46.5q0 -67 67 -67q66 0 66 67q0 26 -20 46t-46 20zM702 1491q-65 0 -65 -66q0 -67 65 -67q27 0 46.5 19t19.5 48q0 26 -20 46t-46 20zM727 1255q-26 21 -33 29q-1 -2 -6.5 -10t-9.5 -12
q21 0 49 -7z" />
    <glyph glyph-name="divide" unicode="&#xf7;" horiz-adv-x="892" 
d="M82 299v227h260q-35 35 -35 90t38.5 93.5t94.5 38.5q63 0 109 -56q7 -9 42 -45.5t49.5 -62.5t14.5 -58h146l82 -94v-215h-265q37 -40 37 -88q0 -54 -36.5 -90.5t-90.5 -36.5q-26 0 -54.5 15.5t-45.5 30.5t-47 46l-8 8q-66 57 -66 115h-133zM440 705q-37 0 -62.5 -26
t-25.5 -63t25.5 -63.5t62.5 -26.5t62.5 26.5t25.5 63.5t-25.5 63t-62.5 26zM440 305q-36 0 -62 -26t-26 -62q0 -37 25.5 -63.5t62.5 -26.5t62.5 26.5t25.5 63.5t-25.5 62.5t-62.5 25.5zM125 481v-137h631v137h-631z" />
    <glyph glyph-name="oslash" unicode="&#xf8;" horiz-adv-x="1372" 
d="M1362 547q0 -123 -47.5 -238t-128.5 -200t-194 -136t-238 -51q-189 0 -350.5 93.5t-257 258t-95.5 361.5q0 126 49 241.5t132 200t196.5 135.5t237.5 52q138 0 267 -59.5t222.5 -157.5t150 -229.5t56.5 -270.5zM1235 635q0 155 -75 289t-206.5 214.5t-287.5 80.5
q-117 0 -223.5 -47.5t-182.5 -126.5t-121 -186.5t-45 -223.5q0 -118 45 -226t121.5 -187t182.5 -126t223 -47q156 0 287.5 80t206.5 214.5t75 291.5zM961 635q0 -124 -85.5 -216.5t-209.5 -92.5q-126 0 -210.5 91t-84.5 218q0 126 86 217.5t209 91.5q124 0 209.5 -92.5
t85.5 -216.5zM498 465l151 330q-69 -31 -111 -99.5t-42 -148.5q0 -76 2 -82zM887 760l-170 -385q87 19 142.5 92.5t55.5 167.5q0 64 -28 125zM715 815l-185 -407q39 -23 70 -31l182 440h-28q-27 0 -39 -2z" />
    <glyph glyph-name="ugrave" unicode="&#xf9;" horiz-adv-x="1380" 
d="M721 379q87 0 146 70t59 159v619h-95l-206 129q-4 3 -38.5 21t-74 48.5t-98.5 87.5h352l225 -204l72 -80h225q28 -28 82 -92v-617q0 -116 -44 -224.5t-118 -188t-178.5 -127.5t-220.5 -48q-131 0 -251.5 53.5t-209 143.5t-141.5 215.5t-53 263.5v621h362l82 -92v-617
q0 -33 3.5 -54.5t15 -43.5t37.5 -32.5t67 -10.5zM721 334q-106 0 -177 81.5t-71 192.5v578h-276v-578q0 -148 70 -275t191 -201.5t263 -74.5q108 0 205.5 44.5t167 119t110.5 176t41 211.5v578h-276v-578q0 -111 -71 -192.5t-177 -81.5zM758 1354h121l-129 114h-181z" />
    <glyph glyph-name="uacute" unicode="&#xfa;" horiz-adv-x="1380" 
d="M721 379q87 0 146 70t59 159v621h362q28 -28 82 -92v-617q0 -116 -44 -224.5t-118 -188t-178.5 -127.5t-220.5 -48q-131 0 -251.5 53.5t-209 143.5t-141.5 215.5t-53 263.5v621h362l82 -92v-617q0 -33 3.5 -54.5t15 -43.5t37.5 -32.5t67 -10.5zM721 334q-106 0 -177 81.5
t-71 192.5v578h-276v-578q0 -148 70 -275t191 -201.5t263 -74.5q108 0 205.5 44.5t167 119t110.5 176t41 211.5v578h-276v-578q0 -111 -71 -192.5t-177 -81.5zM596 1196l-82 82l-8 6l215 197h352l66 -92l-310 -193h-233zM606 1321h123l189 117h-181z" />
    <glyph glyph-name="ucircumflex" unicode="&#xfb;" horiz-adv-x="1380" 
d="M721 379q87 0 146 70t59 159v621h362q28 -28 82 -92v-617q0 -116 -44 -224.5t-118 -188t-178.5 -127.5t-220.5 -48q-131 0 -251.5 53.5t-209 143.5t-141.5 215.5t-53 263.5v621h362l82 -92v-617q0 -33 3.5 -54.5t15 -43.5t37.5 -32.5t67 -10.5zM721 334q-106 0 -177 81.5
t-71 192.5v578h-276v-578q0 -148 70 -275t191 -201.5t263 -74.5q108 0 205.5 44.5t167 119t110.5 176t41 211.5v578h-276v-578q0 -111 -71 -192.5t-177 -81.5zM727 1452q22 -39 51 -80h94l-84 98q-22 25 -61 25q-43 0 -65 -22l-87 -101h95q30 45 57 80zM979 1325l68 -80
h-199l-43 41q-17 -25 -25 -41h-198l-90 92l137 162q33 39 98 39q67 0 96 -39q8 -11 21.5 -24.5t48 -51t86.5 -98.5z" />
    <glyph glyph-name="udieresis" unicode="&#xfc;" horiz-adv-x="1380" 
d="M721 379q87 0 146 70t59 159v621h362q28 -28 82 -92v-617q0 -116 -44 -224.5t-118 -188t-178.5 -127.5t-220.5 -48q-131 0 -251.5 53.5t-209 143.5t-141.5 215.5t-53 263.5v621h362l82 -92v-617q0 -33 3.5 -54.5t15 -43.5t37.5 -32.5t67 -10.5zM721 334q-106 0 -177 81.5
t-71 192.5v578h-276v-578q0 -148 70 -275t191 -201.5t263 -74.5q108 0 205.5 44.5t167 119t110.5 176t41 211.5v578h-276v-578q0 -111 -71 -192.5t-177 -81.5zM606 1526q60 0 94 -51q26 51 95 51q53 0 92 -51l63 -62q33 -31 37 -84q0 -43 -30.5 -73.5t-73.5 -30.5t-97 51
q-35 -53 -92 -53q-39 0 -61.5 14t-81.5 76q-35 35 -44 53t-9 49q0 45 32 78t76 33zM795 1483q-68 0 -68 -66q0 -67 68 -67q27 0 46 19t19 48q0 26 -19.5 46t-45.5 20zM606 1481q-26 0 -45.5 -20t-19.5 -46q0 -67 65 -67q68 0 68 67q0 27 -19.5 46.5t-48.5 19.5z" />
    <glyph glyph-name="yacute" unicode="&#xfd;" horiz-adv-x="1427" 
d="M1268 1198h-318q-71 -139 -235 -444l-193 444h-303l326 -749q-66 -84 -156 -84h-158v-277h158q118 0 235.5 69.5t174.5 172.5q226 410 469 868zM920 1233h413l84 -84q-190 -360 -497 -928q-68 -116 -193 -188t-252 -72h-194q-85 71 -95 82v367h203q55 0 103 45l-338 786
h376l82 -27q8 -23 131 -317q121 222 177 336zM596 1241l-84 82l-8 6l215 197h352l68 -92l-312 -193h-231zM606 1366h123l186 117h-180z" />
    <glyph glyph-name="thorn" unicode="&#xfe;" horiz-adv-x="1300" 
d="M530 674v-150h215q38 0 67.5 35.5t29.5 81.5q0 13 -4 33h-308zM449 1239l81 -92v-25h215q140 0 267 -82t202.5 -214t75.5 -273q0 -126 -59.5 -235t-165 -174.5t-231.5 -65.5h-304v-117h-356l-92 82v1196h367zM745 481h-342v318h342q57 0 98.5 -46t41.5 -112
q0 -65 -41 -112.5t-99 -47.5zM403 1077v119h-278v-1110h278v119h342q176 0 297 128.5t121 307.5q0 115 -54.5 215.5t-151.5 160.5t-212 60h-342z" />
    <glyph glyph-name="ydieresis" unicode="&#xff;" horiz-adv-x="1427" 
d="M1268 1198h-318q-71 -139 -235 -444l-193 444h-303l326 -749q-66 -84 -156 -84h-158v-277h158q118 0 235.5 69.5t174.5 172.5q226 410 469 868zM920 1233h413l84 -84q-190 -360 -497 -928q-68 -116 -193 -188t-252 -72h-194q-85 71 -95 82v367h203q55 0 103 45l-338 786
h376l82 -27q8 -23 131 -317q121 222 177 336zM567 1518q61 0 95 -52q27 52 94 52q52 0 92 -52l63 -61q33 -31 37 -84q0 -43 -30.5 -73.5t-73.5 -30.5q-42 0 -96 51q-35 -54 -93 -54q-44 0 -88 35q-6 0 -32.5 28t-52 67t-25.5 63q0 44 33 77.5t77 33.5zM756 1475
q-68 0 -68 -66q0 -68 68 -68q27 0 46 19.5t19 48.5q0 26 -19.5 46t-45.5 20zM567 1473q-26 0 -45.5 -20t-19.5 -46q0 -68 65 -68q68 0 68 68q0 27 -19.5 46.5t-48.5 19.5z" />
    <glyph glyph-name="dotlessi" unicode="&#x131;" horiz-adv-x="538" 
d="M125 834v-736h276v736h-276zM82 55v824h364l82 -95v-813h-354z" />
    <glyph glyph-name="Lslash" unicode="&#x141;" horiz-adv-x="1177" 
d="M1135 1034l-361 -624h311l82 -95v-354h-565q-115 0 -219 72h-205l-96 82l86 155q-31 73 -31 150v819h367l82 -92v-143q5 8 69 122h400zM156 160h151q92 -74 207 -74h528v279h-475l414 718h-299l-221 -393v506h-279v-776q0 -82 37 -152z" />
    <glyph glyph-name="lslash" unicode="&#x142;" horiz-adv-x="1157" 
d="M123 1231h383l84 -92l28 -82q1 2 14.5 26.5t24.5 42.5h400l80 -92l-318 -553l27 -75h219l82 -95v-350h-213q-166 0 -324 158q-18 -37 -49 -86h-383l-96 82l268 467l-90 249q-37 105 -137 400zM475 1188h-291l213 -610l-239 -420h293l69 118q58 -87 146.5 -138.5
t179.5 -51.5h174v274q-176 0 -182 2q-26 3 -38 7t-25 12t-25 34.5t-24 58t-36 99.5l291 510h-297l-106 -190z" />
    <glyph glyph-name="OE" unicode="&#x152;" horiz-adv-x="2080" 
d="M1487 1239h502l82 -92v-356h-267l60 -60v-321h125l82 -95v-354h-496q-227 0 -385 158q-179 -191 -436 -191q-185 0 -347 96t-259 261t-97 356q0 169 83 314t225 230t307 85q248 0 434 -189q158 158 387 158zM1944 1196h-457q-232 0 -387 -180q-173 209 -434 209
q-117 0 -223.5 -47.5t-182.5 -126.5t-121 -186.5t-45 -223.5q0 -118 45 -226t121.5 -187t182.5 -126t223 -47q264 0 434 209q156 -178 387 -178h457v279h-457q-145 0 -215 137h465v278h-465q70 138 215 138h457v278zM666 330q-125 0 -210 91.5t-85 219.5q0 126 86 216.5
t209 90.5t209 -91t86 -216q0 2 -1.5 6t-1.5 6q0 -1 -1 -3.5t-1 -4.5q0 -1 5 -16q-6 -123 -90 -211t-205 -88zM666 375q97 0 173 74t76 169v52q0 59 -40 106t-121 47q-105 0 -181.5 -80.5t-76.5 -189.5q0 -99 45 -138.5t125 -39.5z" />
    <glyph glyph-name="oe" unicode="&#x153;" horiz-adv-x="2197" 
d="M666 379q157 0 225 151q24 60 24 82v58q0 24 -7.5 49t-24 50.5t-50 41.5t-79.5 16q-105 0 -181.5 -80.5t-76.5 -189.5q0 -75 34 -139q56 -39 136 -39zM666 1274q256 0 438 -191q165 162 399 162h236q83 0 165.5 -39t144 -101.5t100 -146t38.5 -167.5v-50
q0 -109 -55.5 -198t-153.5 -133h90l82 -93v-356h-559q-241 0 -399 162q-179 -191 -438 -191q-132 0 -260 57.5t-225.5 152.5t-157.5 228t-60 275q0 166 81.5 310.5t224 231.5t309.5 87zM958 664q0 -3 1.5 -9.5t1.5 -9.5q0 -4 -1.5 -10.5t-1.5 -9.5v39zM1102 1020
q-173 209 -436 209q-117 0 -223.5 -47.5t-182.5 -126.5t-121 -186.5t-45 -223.5q0 -118 45 -226t121.5 -187t182.5 -126t223 -47q263 0 436 209q162 -180 401 -180h522v279h-522q-114 0 -190 82t-76 196q0 115 76 197t190 82h236q45 0 45 -97q0 -45 -45 -45h-367v-278h367
q135 0 229 94.5t94 228.5v52q0 134 -95 227.5t-228 93.5h-236q-239 0 -401 -180zM666 336q-126 0 -210.5 91t-84.5 218q0 126 86 216.5t209 90.5t209 -91t86 -216q0 -124 -85.5 -216.5t-209.5 -92.5z" />
    <glyph glyph-name="Scaron" unicode="&#x160;" horiz-adv-x="1388" 
d="M434 1518h213q5 -15 31 -41q8 8 31 41h211l77 -93l-139 -161q-10 -13 -27 -23h381l82 -92v-356h-217q132 -40 216.5 -168.5t84.5 -288.5q0 -155 -108.5 -264t-263.5 -109h-676l-92 82v367h221q-60 28 -146 102q-88 75 -123.5 152.5t-35.5 195.5q0 157 110 268t266 111
h168q-57 26 -118 102zM475 862q0 58 55 58h639v278h-639q-138 0 -235.5 -98.5t-97.5 -237.5v-24q0 -138 98 -236t235 -98h390q55 0 55 -80q0 -57 -55 -57h-639v-279h639q138 0 234.5 99t96.5 237v25q0 138 -97 235.5t-234 97.5h-390q-55 0 -55 80zM678 1395q-27 35 -57 80
h-95l86 -101q22 -22 66 -22q40 0 61 24l84 99h-94q-29 -41 -51 -80z" />
    <glyph glyph-name="scaron" unicode="&#x161;" horiz-adv-x="1376" 
d="M784 1477h213q5 -15 31 -41q8 8 31 41h211l78 -93l-136 -155h70l84 -92v-353h-231q-28 0 -57 -23.5t-42 -51.5l-2 -2q-74 -204 -162 -441q-54 -141 -174 -223t-237 -82h-215l-92 82v363h219q22 0 44 24.5t32 48.5l167 449q51 124 157 204.5t233 94.5q-8 5 -15.5 10.5
t-16 14.5t-13.5 14.5t-16 18.5t-15 18zM197 360v-274h176q114 0 223.5 81.5t153.5 201.5l161 438q14 37 57 70.5t79 33.5h192v275h-98h-94q-123 0 -236 -81.5t-156 -201.5l-166 -438q-15 -39 -49 -72t-67 -33h-176zM1028 1354q-27 35 -57 80h-94l86 -101q22 -22 65 -22
q41 0 62 24l84 99h-95q-29 -41 -51 -80z" />
    <glyph glyph-name="Ydieresis" unicode="&#x178;" horiz-adv-x="1427" 
d="M1268 1198h-318q-71 -139 -235 -444l-193 444h-303l326 -749q-66 -84 -156 -84h-158v-277h158q118 0 235.5 69.5t174.5 172.5q226 410 469 868zM920 1233h413l84 -84q-190 -360 -497 -928q-68 -116 -193 -188t-252 -72h-194q-85 71 -95 82v367h203q55 0 103 45l-338 786
h376l82 -27q8 -23 131 -317q121 222 177 336zM571 1509q61 0 95 -51q26 51 94 51q53 0 92 -51l63 -61q33 -31 37 -84q0 -43 -30.5 -74t-73.5 -31q-41 0 -96 52q-35 -54 -93 -54q-44 0 -88 35q-6 0 -32.5 28t-52 67t-25.5 63q0 44 33 77t77 33zM760 1466q-68 0 -68 -65
q0 -68 68 -68q27 0 46 19.5t19 48.5q0 26 -19.5 45.5t-45.5 19.5zM571 1464q-26 0 -45.5 -19.5t-19.5 -45.5q0 -68 65 -68q68 0 68 68q0 27 -19.5 46t-48.5 19z" />
    <glyph glyph-name="Zcaron" unicode="&#x17d;" horiz-adv-x="1343" 
d="M381 1518h213q2 -2 3 -5.5t8 -12t22 -23.5q3 3 6.5 8.5t10 15t11.5 17.5h213l76 -93l-139 -161q-12 -15 -29 -25h168q159 0 274 -97.5t115 -234.5q0 -126 -110 -217l-330 -280h350l82 -95v-354h-774q-176 0 -286.5 93t-110.5 235q0 118 114 217l328 285h-340l-94 81v367
h487q-58 24 -123 104zM1208 993q0 92 -74.5 147.5t-189.5 55.5h-737v-278h604l-516 -445q-98 -85 -98 -184q0 -93 73 -148t193 -55h735v279h-604l516 444q98 82 98 184zM625 1395q-41 54 -56 80h-96l86 -101q22 -22 66 -22q42 0 63 24l84 99h-94q-38 -54 -53 -80z" />
    <glyph glyph-name="zcaron" unicode="&#x17e;" horiz-adv-x="1343" 
d="M381 1518h213q2 -2 3 -5.5t8 -12t22 -23.5q3 3 6.5 8.5t10 15t11.5 17.5h213l76 -93l-139 -161q-12 -15 -29 -25h168q159 0 274 -97.5t115 -234.5q0 -126 -110 -217l-330 -280h350l82 -95v-354h-774q-176 0 -286.5 93t-110.5 235q0 118 114 217l328 285h-340l-94 81v367
h487q-58 24 -123 104zM1208 993q0 92 -74.5 147.5t-189.5 55.5h-737v-278h604l-516 -445q-98 -85 -98 -184q0 -93 73 -148t193 -55h735v279h-604l516 444q98 82 98 184zM625 1395q-41 54 -56 80h-96l86 -101q22 -22 66 -22q42 0 63 24l84 99h-94q-38 -54 -53 -80z" />
    <glyph glyph-name="florin" unicode="&#x192;" 
d="M694 1257q55 0 120.5 -45t111.5 -111t49 -124q-2 -21 -8 -66q110 45 147 45q61 0 114.5 -30t87.5 -74.5t54.5 -92.5t22.5 -89q0 -67 -44 -120t-112 -67l-176 -37l121 -135q16 -23 23.5 -35.5t17.5 -43.5t10 -64q0 -72 -59 -125t-136 -53q-60 0 -140 57.5t-116 122.5
l-20 37l-35 -60q-29 -49 -46.5 -75.5t-32.5 -45.5t-30.5 -25.5t-29 -9t-39.5 -3.5q-64 0 -135.5 38.5t-122.5 105t-51 136.5q0 65 36 115l84 92q-107 20 -192.5 106.5t-85.5 174.5q0 85 56.5 142.5t140.5 57.5q39 0 79 -16l160 -74q-2 6 -6.5 36.5t-9 78.5t-4.5 82
q0 85 55.5 139.5t140.5 54.5zM694 1214q-63 0 -108 -44t-45 -107q0 -2 1 -7.5t1 -8.5l28 -250l-229 102q-32 14 -63 14q-66 0 -110 -45.5t-44 -111.5q0 -54 35 -95.5t86 -52.5l248 -51l-170 -184q-41 -44 -41 -105q0 -63 46 -108t109 -45q89 0 133 78l123 219l127 -217
q47 -80 129 -80q63 0 109.5 45t46.5 108t-39 105l-170 184l246 51q54 11 88.5 53t34.5 97q0 63 -44.5 109t-107.5 46q-35 0 -63 -14l-230 -102l27 266q0 63 -44 107t-110 44z" />
    <glyph glyph-name="circumflex" unicode="&#x2c6;" horiz-adv-x="647" 
d="M317 1186q9 -17 52 -78h96l-84 96q-22 25 -64 25t-65 -23l-86 -98h94q20 30 57 78zM637 981h-199l-43 41l-24 -41h-199l-90 92l137 162q33 39 98 39q62 0 97 -41q12 -14 27 -31t67.5 -75.5t128.5 -145.5z" />
    <glyph glyph-name="caron" unicode="&#x2c7;" horiz-adv-x="655" 
d="M82 1284h213q2 -2 3 -5.5t8 -12t22 -23.5q3 3 6.5 8.5t10 15t11.5 17.5h213l76 -92l-139 -162q-33 -39 -92 -39q-86 0 -187 119zM326 1161q-34 45 -58 80h-94l86 -100q23 -23 66 -23q41 0 63 25l84 98h-96q-42 -65 -51 -80z" />
    <glyph glyph-name="breve" unicode="&#x2d8;" 
d="M694 1257q55 0 120.5 -45t111.5 -111t49 -124q-2 -21 -8 -66q110 45 147 45q61 0 114.5 -30t87.5 -74.5t54.5 -92.5t22.5 -89q0 -67 -44 -120t-112 -67l-176 -37l121 -135q16 -23 23.5 -35.5t17.5 -43.5t10 -64q0 -72 -59 -125t-136 -53q-60 0 -140 57.5t-116 122.5
l-20 37l-35 -60q-29 -49 -46.5 -75.5t-32.5 -45.5t-30.5 -25.5t-29 -9t-39.5 -3.5q-64 0 -135.5 38.5t-122.5 105t-51 136.5q0 65 36 115l84 92q-107 20 -192.5 106.5t-85.5 174.5q0 85 56.5 142.5t140.5 57.5q39 0 79 -16l160 -74q-2 6 -6.5 36.5t-9 78.5t-4.5 82
q0 85 55.5 139.5t140.5 54.5zM694 1214q-63 0 -108 -44t-45 -107q0 -2 1 -7.5t1 -8.5l28 -250l-229 102q-32 14 -63 14q-66 0 -110 -45.5t-44 -111.5q0 -54 35 -95.5t86 -52.5l248 -51l-170 -184q-41 -44 -41 -105q0 -63 46 -108t109 -45q89 0 133 78l123 219l127 -217
q47 -80 129 -80q63 0 109.5 45t46.5 108t-39 105l-170 184l246 51q54 11 88.5 53t34.5 97q0 63 -44.5 109t-107.5 46q-35 0 -63 -14l-230 -102l27 266q0 63 -44 107t-110 44z" />
    <glyph glyph-name="dotaccent" unicode="&#x2d9;" 
d="M694 1257q55 0 120.5 -45t111.5 -111t49 -124q-2 -21 -8 -66q110 45 147 45q61 0 114.5 -30t87.5 -74.5t54.5 -92.5t22.5 -89q0 -67 -44 -120t-112 -67l-176 -37l121 -135q16 -23 23.5 -35.5t17.5 -43.5t10 -64q0 -72 -59 -125t-136 -53q-60 0 -140 57.5t-116 122.5
l-20 37l-35 -60q-29 -49 -46.5 -75.5t-32.5 -45.5t-30.5 -25.5t-29 -9t-39.5 -3.5q-64 0 -135.5 38.5t-122.5 105t-51 136.5q0 65 36 115l84 92q-107 20 -192.5 106.5t-85.5 174.5q0 85 56.5 142.5t140.5 57.5q39 0 79 -16l160 -74q-2 6 -6.5 36.5t-9 78.5t-4.5 82
q0 85 55.5 139.5t140.5 54.5zM694 1214q-63 0 -108 -44t-45 -107q0 -2 1 -7.5t1 -8.5l28 -250l-229 102q-32 14 -63 14q-66 0 -110 -45.5t-44 -111.5q0 -54 35 -95.5t86 -52.5l248 -51l-170 -184q-41 -44 -41 -105q0 -63 46 -108t109 -45q89 0 133 78l123 219l127 -217
q47 -80 129 -80q63 0 109.5 45t46.5 108t-39 105l-170 184l246 51q54 11 88.5 53t34.5 97q0 63 -44.5 109t-107.5 46q-35 0 -63 -14l-230 -102l27 266q0 63 -44 107t-110 44z" />
    <glyph glyph-name="ring" unicode="&#x2da;" horiz-adv-x="505" 
d="M248 1341q37 1 64 -13t65 -52l78 -80q41 -50 41 -106q0 -66 -47 -114t-113 -48q-20 0 -39.5 5.5t-33 12t-32.5 21.5t-27 22t-28.5 27.5l-25.5 25.5q-68 59 -68 136q0 67 49 115t117 48zM248 1120q-55 0 -55 58q0 53 55 53t55 -53q0 -58 -55 -58zM248 1298
q-50 0 -86.5 -35.5t-36.5 -84.5q0 -51 36 -87t87 -36t86 36t35 87q0 49 -35.5 84.5t-85.5 35.5z" />
    <glyph glyph-name="ogonek" unicode="&#x2db;" 
d="M694 1257q55 0 120.5 -45t111.5 -111t49 -124q-2 -21 -8 -66q110 45 147 45q61 0 114.5 -30t87.5 -74.5t54.5 -92.5t22.5 -89q0 -67 -44 -120t-112 -67l-176 -37l121 -135q16 -23 23.5 -35.5t17.5 -43.5t10 -64q0 -72 -59 -125t-136 -53q-60 0 -140 57.5t-116 122.5
l-20 37l-35 -60q-29 -49 -46.5 -75.5t-32.5 -45.5t-30.5 -25.5t-29 -9t-39.5 -3.5q-64 0 -135.5 38.5t-122.5 105t-51 136.5q0 65 36 115l84 92q-107 20 -192.5 106.5t-85.5 174.5q0 85 56.5 142.5t140.5 57.5q39 0 79 -16l160 -74q-2 6 -6.5 36.5t-9 78.5t-4.5 82
q0 85 55.5 139.5t140.5 54.5zM694 1214q-63 0 -108 -44t-45 -107q0 -2 1 -7.5t1 -8.5l28 -250l-229 102q-32 14 -63 14q-66 0 -110 -45.5t-44 -111.5q0 -54 35 -95.5t86 -52.5l248 -51l-170 -184q-41 -44 -41 -105q0 -63 46 -108t109 -45q89 0 133 78l123 219l127 -217
q47 -80 129 -80q63 0 109.5 45t46.5 108t-39 105l-170 184l246 51q54 11 88.5 53t34.5 97q0 63 -44.5 109t-107.5 46q-35 0 -63 -14l-230 -102l27 266q0 63 -44 107t-110 44z" />
    <glyph glyph-name="tilde" unicode="&#x2dc;" horiz-adv-x="548" 
d="M342 1276l117 -72l80 -90q-62 -117 -133 -117q-58 0 -103 45q0 -5 -20 -38l-111 61l-23.5 23.5t-33.5 33t-33 33.5q55 131 133 131q11 0 24 -3.5t23.5 -9t19 -10.5t14.5 -9l7 -5v2q5 -5 14 -8q12 12 25 33zM399 1190l-47 31q-16 -29 -35 -29q1 0 -20.5 13t-47.5 25.5
t-34 12.5q-54 0 -82 -72l41 -36q20 36 41 36q1 0 44 -23.5t58 -23.5q47 0 82 66z" />
    <glyph glyph-name="hungarumlaut" unicode="&#x2dd;" 
d="M694 1257q55 0 120.5 -45t111.5 -111t49 -124q-2 -21 -8 -66q110 45 147 45q61 0 114.5 -30t87.5 -74.5t54.5 -92.5t22.5 -89q0 -67 -44 -120t-112 -67l-176 -37l121 -135q16 -23 23.5 -35.5t17.5 -43.5t10 -64q0 -72 -59 -125t-136 -53q-60 0 -140 57.5t-116 122.5
l-20 37l-35 -60q-29 -49 -46.5 -75.5t-32.5 -45.5t-30.5 -25.5t-29 -9t-39.5 -3.5q-64 0 -135.5 38.5t-122.5 105t-51 136.5q0 65 36 115l84 92q-107 20 -192.5 106.5t-85.5 174.5q0 85 56.5 142.5t140.5 57.5q39 0 79 -16l160 -74q-2 6 -6.5 36.5t-9 78.5t-4.5 82
q0 85 55.5 139.5t140.5 54.5zM694 1214q-63 0 -108 -44t-45 -107q0 -2 1 -7.5t1 -8.5l28 -250l-229 102q-32 14 -63 14q-66 0 -110 -45.5t-44 -111.5q0 -54 35 -95.5t86 -52.5l248 -51l-170 -184q-41 -44 -41 -105q0 -63 46 -108t109 -45q89 0 133 78l123 219l127 -217
q47 -80 129 -80q63 0 109.5 45t46.5 108t-39 105l-170 184l246 51q54 11 88.5 53t34.5 97q0 63 -44.5 109t-107.5 46q-35 0 -63 -14l-230 -102l27 266q0 63 -44 107t-110 44z" />
    <glyph glyph-name="Delta" unicode="&#x394;" 
d="M694 1257q55 0 120.5 -45t111.5 -111t49 -124q-2 -21 -8 -66q110 45 147 45q61 0 114.5 -30t87.5 -74.5t54.5 -92.5t22.5 -89q0 -67 -44 -120t-112 -67l-176 -37l121 -135q16 -23 23.5 -35.5t17.5 -43.5t10 -64q0 -72 -59 -125t-136 -53q-60 0 -140 57.5t-116 122.5
l-20 37l-35 -60q-29 -49 -46.5 -75.5t-32.5 -45.5t-30.5 -25.5t-29 -9t-39.5 -3.5q-64 0 -135.5 38.5t-122.5 105t-51 136.5q0 65 36 115l84 92q-107 20 -192.5 106.5t-85.5 174.5q0 85 56.5 142.5t140.5 57.5q39 0 79 -16l160 -74q-2 6 -6.5 36.5t-9 78.5t-4.5 82
q0 85 55.5 139.5t140.5 54.5zM694 1214q-63 0 -108 -44t-45 -107q0 -2 1 -7.5t1 -8.5l28 -250l-229 102q-32 14 -63 14q-66 0 -110 -45.5t-44 -111.5q0 -54 35 -95.5t86 -52.5l248 -51l-170 -184q-41 -44 -41 -105q0 -63 46 -108t109 -45q89 0 133 78l123 219l127 -217
q47 -80 129 -80q63 0 109.5 45t46.5 108t-39 105l-170 184l246 51q54 11 88.5 53t34.5 97q0 63 -44.5 109t-107.5 46q-35 0 -63 -14l-230 -102l27 266q0 63 -44 107t-110 44z" />
    <glyph glyph-name="Omega" unicode="&#x3a9;" 
d="M694 1257q55 0 120.5 -45t111.5 -111t49 -124q-2 -21 -8 -66q110 45 147 45q61 0 114.5 -30t87.5 -74.5t54.5 -92.5t22.5 -89q0 -67 -44 -120t-112 -67l-176 -37l121 -135q16 -23 23.5 -35.5t17.5 -43.5t10 -64q0 -72 -59 -125t-136 -53q-60 0 -140 57.5t-116 122.5
l-20 37l-35 -60q-29 -49 -46.5 -75.5t-32.5 -45.5t-30.5 -25.5t-29 -9t-39.5 -3.5q-64 0 -135.5 38.5t-122.5 105t-51 136.5q0 65 36 115l84 92q-107 20 -192.5 106.5t-85.5 174.5q0 85 56.5 142.5t140.5 57.5q39 0 79 -16l160 -74q-2 6 -6.5 36.5t-9 78.5t-4.5 82
q0 85 55.5 139.5t140.5 54.5zM694 1214q-63 0 -108 -44t-45 -107q0 -2 1 -7.5t1 -8.5l28 -250l-229 102q-32 14 -63 14q-66 0 -110 -45.5t-44 -111.5q0 -54 35 -95.5t86 -52.5l248 -51l-170 -184q-41 -44 -41 -105q0 -63 46 -108t109 -45q89 0 133 78l123 219l127 -217
q47 -80 129 -80q63 0 109.5 45t46.5 108t-39 105l-170 184l246 51q54 11 88.5 53t34.5 97q0 63 -44.5 109t-107.5 46q-35 0 -63 -14l-230 -102l27 266q0 63 -44 107t-110 44z" />
    <glyph glyph-name="pi" unicode="&#x3c0;" 
d="M694 1257q55 0 120.5 -45t111.5 -111t49 -124q-2 -21 -8 -66q110 45 147 45q61 0 114.5 -30t87.5 -74.5t54.5 -92.5t22.5 -89q0 -67 -44 -120t-112 -67l-176 -37l121 -135q16 -23 23.5 -35.5t17.5 -43.5t10 -64q0 -72 -59 -125t-136 -53q-60 0 -140 57.5t-116 122.5
l-20 37l-35 -60q-29 -49 -46.5 -75.5t-32.5 -45.5t-30.5 -25.5t-29 -9t-39.5 -3.5q-64 0 -135.5 38.5t-122.5 105t-51 136.5q0 65 36 115l84 92q-107 20 -192.5 106.5t-85.5 174.5q0 85 56.5 142.5t140.5 57.5q39 0 79 -16l160 -74q-2 6 -6.5 36.5t-9 78.5t-4.5 82
q0 85 55.5 139.5t140.5 54.5zM694 1214q-63 0 -108 -44t-45 -107q0 -2 1 -7.5t1 -8.5l28 -250l-229 102q-32 14 -63 14q-66 0 -110 -45.5t-44 -111.5q0 -54 35 -95.5t86 -52.5l248 -51l-170 -184q-41 -44 -41 -105q0 -63 46 -108t109 -45q89 0 133 78l123 219l127 -217
q47 -80 129 -80q63 0 109.5 45t46.5 108t-39 105l-170 184l246 51q54 11 88.5 53t34.5 97q0 63 -44.5 109t-107.5 46q-35 0 -63 -14l-230 -102l27 266q0 63 -44 107t-110 44z" />
    <glyph glyph-name="endash" unicode="&#x2013;" horiz-adv-x="970" 
d="M82 459v364h797l82 -92v-354h-787zM125 780v-278h711v321z" />
    <glyph glyph-name="emdash" unicode="&#x2014;" horiz-adv-x="1126" 
d="M82 459v364h952l82 -92v-354h-942zM125 780v-278h866v278h-866z" />
    <glyph glyph-name="quoteleft" unicode="&#x2018;" horiz-adv-x="614" 
d="M475 1206l66 -94q-41 -34 -111 -111q16 -10 24.5 -17.5t14.5 -15t26 -30t50 -51.5q59 -41 59 -150q0 -89 -63.5 -153t-151.5 -64q-116 0 -210 103t-97 235q0 282 307 445q18 -18 50 -54t36 -43zM301 647q73 0 124.5 52t51.5 124q0 126 -151 176q-41 12 -41 39
q0 61 116 168l-26 37q-250 -127 -250 -385q0 -90 48 -150.5t128 -60.5z" />
    <glyph glyph-name="quoteright" unicode="&#x2019;" horiz-adv-x="614" 
d="M303 1286q86 0 154 -59q19 -17 37 -36.5t46.5 -57.5t46 -88t17.5 -103q0 -283 -299 -436l-90 82l-74 100q79 73 113 119l-78 76q-47 36 -70.5 78.5t-23.5 103.5q0 91 64.5 156t156.5 65zM303 1241q-74 0 -126 -51.5t-52 -124.5q0 -126 154 -176q38 -11 38 -39
q0 -62 -116 -166l28 -39q248 125 248 385q0 92 -48.5 151.5t-125.5 59.5z" />
    <glyph glyph-name="quotesinglbase" unicode="&#x201a;" horiz-adv-x="614" 
d="M303 369q36 0 85.5 -23t98.5 -64.5t83 -109.5t34 -147q0 -285 -299 -435q-33 33 -90 82l-74 101q47 44 113 121q-15 10 -82 77q-47 35 -68.5 75.5t-21.5 100.5q0 91 64.5 156.5t156.5 65.5zM303 324q-74 0 -126 -52t-52 -125q0 -124 154 -174q38 -11 38 -39
q0 -61 -116 -165l28 -39q248 125 248 383q0 96 -46 153.5t-128 57.5z" />
    <glyph glyph-name="quotedblleft" unicode="&#x201c;" horiz-adv-x="1005" 
d="M866 1196l68 -92q-32 -27 -111 -113q172 -105 172 -264q0 -90 -61.5 -152.5t-153.5 -62.5q-61 0 -89.5 15.5t-108.5 97.5l-9 4q-59 -109 -184 -109q-112 0 -209.5 101.5t-97.5 228.5q0 290 307 450q20 -13 86 -94l66 -94q-32 -27 -111 -113q32 -20 55 -49q46 214 295 340
q2 -2 34 -34.5t52 -59.5zM692 637q75 0 126.5 51.5t51.5 126.5q0 125 -153 174q-39 12 -39 41q0 58 117 166l-29 37q-248 -125 -248 -383q0 -93 47.5 -153t126.5 -60zM301 647q73 0 124.5 51.5t51.5 124.5q0 121 -151 174q-41 12 -41 41q0 59 116 166l-26 39
q-250 -127 -250 -385q0 -90 48 -150.5t128 -60.5z" />
    <glyph glyph-name="quotedblright" unicode="&#x201d;" horiz-adv-x="1005" 
d="M303 1284q102 0 168 -84l8 -14l23 -23q68 111 186 111q94 0 160 -57q20 -17 40.5 -39t47 -59t43 -85.5t16.5 -99.5q0 -283 -299 -436l-90 80l-71 102q40 37 110 119l-49 49q-46 -215 -291 -342l-84 82v-2q-7 0 -80 102q79 73 113 119q-2 2 -26.5 22.5t-33 28.5t-31 30
t-32.5 38.5t-24 39.5t-19.5 48t-5.5 51q0 90 64.5 154.5t156.5 64.5zM694 1231q-74 0 -125 -51.5t-51 -124.5q0 -126 152 -176q41 -12 41 -39q0 -61 -117 -166l27 -39q249 129 249 385q0 94 -46 152.5t-130 58.5zM303 1241q-73 0 -125.5 -52t-52.5 -124q0 -125 154 -178
q38 -11 38 -39q0 -59 -116 -166l28 -39q248 128 248 387q0 90 -46 150.5t-128 60.5z" />
    <glyph glyph-name="quotedblbase" unicode="&#x201e;" horiz-adv-x="1005" 
d="M303 367q110 0 168 -82l8 -15l23 -24q60 112 192 112q29 0 67 -14t79 -43t75.5 -68.5t57 -96.5t22.5 -120q0 -287 -299 -434l-90 80l-71 100q49 46 112 119l-51 49q-46 -216 -291 -340q-36 36 -90 80l-74 103q36 31 113 121q-21 14 -82 75l-35 29q-55 55 -55 149
q0 90 64.5 155t156.5 65zM694 315q-74 0 -125 -51.5t-51 -126.5q0 -124 152 -174q41 -12 41 -41q0 -58 -117 -166l27 -37q249 126 249 383q0 94 -47 153.5t-129 59.5zM303 324q-74 0 -126 -52t-52 -125q0 -126 154 -176q38 -11 38 -39q0 -61 -116 -165l28 -39
q248 125 248 385q0 94 -47 152.5t-127 58.5z" />
    <glyph glyph-name="dagger" unicode="&#x2020;" horiz-adv-x="892" 
d="M82 670v366h174v197h367l82 -92v-105h96l82 -94v-354h-178v-703h-355l-94 82v621h-82zM125 991v-278h176v-703h279v703h176v278h-176v199h-279v-199h-176z" />
    <glyph glyph-name="daggerdbl" unicode="&#x2021;" horiz-adv-x="892" 
d="M82 186v367h174v35h-82l-92 82v366h174v197h367l82 -92v-105h96l82 -94v-354h-178v-35h96l82 -94v-355h-178v-219h-355l-94 82v137h-82zM125 508v-279h176v-219h279v219h176v279h-176v205h176v278h-176v199h-279v-199h-176v-278h176v-205h-176z" />
    <glyph glyph-name="bullet" unicode="&#x2022;" horiz-adv-x="792" 
d="M391 946q127 0 217 -90l45 -45l39 -47q90 -107 90 -215q0 -126 -88.5 -214.5t-214.5 -88.5q-63 0 -133.5 34t-128.5 87.5t-96.5 126t-38.5 143.5q0 128 90 218.5t219 90.5zM391 903q-110 0 -188 -78.5t-78 -187.5q0 -111 78.5 -187.5t187.5 -76.5t186.5 77t77.5 187
q0 107 -78.5 186.5t-185.5 79.5z" />
    <glyph glyph-name="ellipsis" unicode="&#x2026;" horiz-adv-x="1480" 
d="M735 391q32 0 56 -5.5t46.5 -21t35 -27t40.5 -42t45 -47.5q58 143 209 143q105 0 172 -82l31 -28q72 -77 86 -105t14 -92q0 -91 -62 -153t-153 -62q-67 0 -114 33l-40 40q-40 39 -81 62q-55 -135 -197 -135q-67 0 -114 33l-40 40q-40 39 -81 62q-56 -135 -199 -135
q-66 0 -139 50t-120.5 121.5t-47.5 131.5q0 90 64.5 154.5t156.5 64.5q32 0 56 -5.5t46.5 -21t35 -27t40.5 -42t45 -47.5q55 143 209 143zM1167 348q-73 0 -124.5 -51t-51.5 -125q0 -75 51 -126.5t125 -51.5t125 51.5t51 126.5q0 74 -51.5 125t-124.5 51zM735 348
q-73 0 -124.5 -51t-51.5 -125q0 -75 51 -126.5t125 -51.5t125 51.5t51 126.5q0 74 -51.5 125t-124.5 51zM303 348q-74 0 -126 -51.5t-52 -124.5q0 -75 52 -126.5t126 -51.5t125 51.5t51 126.5q0 74 -51.5 125t-124.5 51z" />
    <glyph glyph-name="perthousand" unicode="&#x2030;" horiz-adv-x="2566" 
d="M1294 346v-27h31q45 0 80 34t35 81q0 31 -27 31q-49 0 -84 -34.5t-35 -84.5zM2046 346v-27h33q45 0 78.5 34t33.5 81q0 23 -14 31h-12q-49 0 -84 -34.5t-35 -84.5zM592 844v30h-27q-50 0 -84.5 -34.5t-34.5 -83.5q0 -6 1 -11t3 -8t3.5 -4.5t5.5 -2.5t5.5 -1h6.5h6
q47 0 81 34t34 81zM2079 829q115 -2 226.5 -73.5t181 -183.5t69.5 -226q0 -163 -114.5 -277.5t-276.5 -113.5l-703 4q-5 0 -24.5 -2t-24.5 -2h-487q-79 0 -161 44.5t-136 118.5t-54 150q0 55 19 97q-97 0 -191 39t-164.5 103.5t-113.5 153.5t-43 183q0 164 115.5 279.5
t279.5 115.5h486q83 0 164 -49.5t130.5 -125t49.5 -149.5q0 -45 -15 -88q6 2 33 2q168 0 281 -116l43 -49q17 -15 65 -70q47 108 146.5 171.5t218.5 63.5zM2079 276h-158v158q0 64 46.5 111t111.5 47t111 -47t46 -111q0 -66 -45.5 -112t-111.5 -46zM1167 276v158
q0 64 46.5 111t111.5 47t111.5 -47t46.5 -111q0 -66 -46 -112t-112 -46h-158zM635 1001v-157q0 -66 -46 -112t-112 -46t-112 46t-46 112q0 64 46.5 110.5t111.5 46.5h158zM2079 784q-147 0 -250 -102.5t-103 -247.5v-158h-88q39 71 39 158q0 145 -103 247.5t-249 102.5
q-144 0 -248 -102.5t-104 -247.5v-158h-135q-14 0 -23 3q5 16 10 22l324 580q33 56 33 120q0 88 -62.5 140.5t-156.5 52.5h-486q-144 0 -248 -102.5t-104 -247.5q0 -148 104 -250t248 -102q147 0 249.5 102.5t102.5 249.5v157h134q12 0 24 -4q-6 -18 -8 -22l-324 -580
q-37 -64 -37 -121q0 -85 61.5 -138.5t158.5 -53.5h487q29 0 45 2l709 -2q145 0 248.5 103.5t103.5 248.5q0 143 -104 246.5t-248 103.5z" />
    <glyph glyph-name="guilsinglleft" unicode="&#x2039;" horiz-adv-x="679" 
d="M209 1239h381l80 -92l-125 -455q-18 -59 -15 -139q0 -87 15 -139l125 -453h-369l-92 82l-98 360q-29 110 -29 238v42t2 37t3 33.5t7 40t10.5 47t16.5 64.5t21.5 82.5t29.5 111t37 140.5zM532 1196h-288l-92 -332q-27 -102 -27 -223q0 -131 27 -225l92 -330h288l-112 406
q-17 66 -17 149q0 84 17 150z" />
    <glyph glyph-name="guilsinglright" unicode="&#x203a;" horiz-adv-x="681" 
d="M428 1196h-289l113 -405q16 -62 16 -150q0 -87 -16 -149l-113 -406h289l92 330q27 94 27 225q0 121 -27 223zM82 1239h381l84 -92l96 -361q29 -110 29 -233q0 -126 -29 -236l-96 -356h-371l-94 82l127 461q14 49 14 137q0 90 -59 303z" />
    <glyph glyph-name="fraction" unicode="&#x2044;" horiz-adv-x="1155" 
d="M178 -47l-96 82l733 1098h252l78 -93l-729 -1087h-238zM162 78h147l676 1012h-147z" />
    <glyph glyph-name="Euro" unicode="&#x20ac;" horiz-adv-x="1269" 
d="M1030 760v-350h148l82 -95v-354h-426q-177 0 -333.5 101t-246.5 270h-80l-92 82v438h129q61 170 211 278.5t323 108.5h433l82 -92v-356h-259zM125 459h123q55 -166 190.5 -269.5t306.5 -103.5h390v279h-390q-113 0 -186 94h344v137h-403q-2 14 -2 45v29h409v139h-360
q77 109 198 109h390v278h-390q-174 0 -310.5 -108.5t-190.5 -278.5h-115v-139h92q-2 -10 -2 -29q0 -31 2 -45h-96v-137z" />
    <glyph glyph-name="trademark" unicode="&#x2122;" horiz-adv-x="958" 
d="M82 1194v115h326l18 -31q45 31 94 31q54 0 96 -31q42 31 97 31q11 0 20.5 -1t18.5 -3.5t15.5 -4.5t14.5 -7.5t12.5 -8.5t13 -11t12 -12t14 -14.5t14.5 -15.5q76 -79 88 -98.5t12 -65.5v-217h-104l-82 82h-6v-82h-105l-82 82h-6v-82h-104l-74 74v-68h-104l-95 82v172h-12z
M713 1266q-66 0 -97 -60q-35 60 -96 60q-46 0 -78 -33t-32 -78v-178h28v178q0 33 23.5 57.5t58.5 24.5t58.5 -23.5t23.5 -58.5v-178h29v178q0 33 23.5 57.5t58.5 24.5q32 0 57 -25t25 -57v-178h28v178q0 44 -33 77.5t-77 33.5zM125 1266v-29h106v-256h27v256h107v29h-240z
" />
    <glyph glyph-name="partialdiff" unicode="&#x2202;" 
d="M694 1257q55 0 120.5 -45t111.5 -111t49 -124q-2 -21 -8 -66q110 45 147 45q61 0 114.5 -30t87.5 -74.5t54.5 -92.5t22.5 -89q0 -67 -44 -120t-112 -67l-176 -37l121 -135q16 -23 23.5 -35.5t17.5 -43.5t10 -64q0 -72 -59 -125t-136 -53q-60 0 -140 57.5t-116 122.5
l-20 37l-35 -60q-29 -49 -46.5 -75.5t-32.5 -45.5t-30.5 -25.5t-29 -9t-39.5 -3.5q-64 0 -135.5 38.5t-122.5 105t-51 136.5q0 65 36 115l84 92q-107 20 -192.5 106.5t-85.5 174.5q0 85 56.5 142.5t140.5 57.5q39 0 79 -16l160 -74q-2 6 -6.5 36.5t-9 78.5t-4.5 82
q0 85 55.5 139.5t140.5 54.5zM694 1214q-63 0 -108 -44t-45 -107q0 -2 1 -7.5t1 -8.5l28 -250l-229 102q-32 14 -63 14q-66 0 -110 -45.5t-44 -111.5q0 -54 35 -95.5t86 -52.5l248 -51l-170 -184q-41 -44 -41 -105q0 -63 46 -108t109 -45q89 0 133 78l123 219l127 -217
q47 -80 129 -80q63 0 109.5 45t46.5 108t-39 105l-170 184l246 51q54 11 88.5 53t34.5 97q0 63 -44.5 109t-107.5 46q-35 0 -63 -14l-230 -102l27 266q0 63 -44 107t-110 44z" />
    <glyph glyph-name="product" unicode="&#x220f;" 
d="M694 1257q55 0 120.5 -45t111.5 -111t49 -124q-2 -21 -8 -66q110 45 147 45q61 0 114.5 -30t87.5 -74.5t54.5 -92.5t22.5 -89q0 -67 -44 -120t-112 -67l-176 -37l121 -135q16 -23 23.5 -35.5t17.5 -43.5t10 -64q0 -72 -59 -125t-136 -53q-60 0 -140 57.5t-116 122.5
l-20 37l-35 -60q-29 -49 -46.5 -75.5t-32.5 -45.5t-30.5 -25.5t-29 -9t-39.5 -3.5q-64 0 -135.5 38.5t-122.5 105t-51 136.5q0 65 36 115l84 92q-107 20 -192.5 106.5t-85.5 174.5q0 85 56.5 142.5t140.5 57.5q39 0 79 -16l160 -74q-2 6 -6.5 36.5t-9 78.5t-4.5 82
q0 85 55.5 139.5t140.5 54.5zM694 1214q-63 0 -108 -44t-45 -107q0 -2 1 -7.5t1 -8.5l28 -250l-229 102q-32 14 -63 14q-66 0 -110 -45.5t-44 -111.5q0 -54 35 -95.5t86 -52.5l248 -51l-170 -184q-41 -44 -41 -105q0 -63 46 -108t109 -45q89 0 133 78l123 219l127 -217
q47 -80 129 -80q63 0 109.5 45t46.5 108t-39 105l-170 184l246 51q54 11 88.5 53t34.5 97q0 63 -44.5 109t-107.5 46q-35 0 -63 -14l-230 -102l27 266q0 63 -44 107t-110 44z" />
    <glyph glyph-name="summation" unicode="&#x2211;" 
d="M694 1257q55 0 120.5 -45t111.5 -111t49 -124q-2 -21 -8 -66q110 45 147 45q61 0 114.5 -30t87.5 -74.5t54.5 -92.5t22.5 -89q0 -67 -44 -120t-112 -67l-176 -37l121 -135q16 -23 23.5 -35.5t17.5 -43.5t10 -64q0 -72 -59 -125t-136 -53q-60 0 -140 57.5t-116 122.5
l-20 37l-35 -60q-29 -49 -46.5 -75.5t-32.5 -45.5t-30.5 -25.5t-29 -9t-39.5 -3.5q-64 0 -135.5 38.5t-122.5 105t-51 136.5q0 65 36 115l84 92q-107 20 -192.5 106.5t-85.5 174.5q0 85 56.5 142.5t140.5 57.5q39 0 79 -16l160 -74q-2 6 -6.5 36.5t-9 78.5t-4.5 82
q0 85 55.5 139.5t140.5 54.5zM694 1214q-63 0 -108 -44t-45 -107q0 -2 1 -7.5t1 -8.5l28 -250l-229 102q-32 14 -63 14q-66 0 -110 -45.5t-44 -111.5q0 -54 35 -95.5t86 -52.5l248 -51l-170 -184q-41 -44 -41 -105q0 -63 46 -108t109 -45q89 0 133 78l123 219l127 -217
q47 -80 129 -80q63 0 109.5 45t46.5 108t-39 105l-170 184l246 51q54 11 88.5 53t34.5 97q0 63 -44.5 109t-107.5 46q-35 0 -63 -14l-230 -102l27 266q0 63 -44 107t-110 44z" />
    <glyph glyph-name="minus" unicode="&#x2212;" horiz-adv-x="892" 
d="M125 780v-278h631v278h-631zM82 459v364h719l82 -92v-354h-709z" />
    <glyph glyph-name="radical" unicode="&#x221a;" 
d="M694 1257q55 0 120.5 -45t111.5 -111t49 -124q-2 -21 -8 -66q110 45 147 45q61 0 114.5 -30t87.5 -74.5t54.5 -92.5t22.5 -89q0 -67 -44 -120t-112 -67l-176 -37l121 -135q16 -23 23.5 -35.5t17.5 -43.5t10 -64q0 -72 -59 -125t-136 -53q-60 0 -140 57.5t-116 122.5
l-20 37l-35 -60q-29 -49 -46.5 -75.5t-32.5 -45.5t-30.5 -25.5t-29 -9t-39.5 -3.5q-64 0 -135.5 38.5t-122.5 105t-51 136.5q0 65 36 115l84 92q-107 20 -192.5 106.5t-85.5 174.5q0 85 56.5 142.5t140.5 57.5q39 0 79 -16l160 -74q-2 6 -6.5 36.5t-9 78.5t-4.5 82
q0 85 55.5 139.5t140.5 54.5zM694 1214q-63 0 -108 -44t-45 -107q0 -2 1 -7.5t1 -8.5l28 -250l-229 102q-32 14 -63 14q-66 0 -110 -45.5t-44 -111.5q0 -54 35 -95.5t86 -52.5l248 -51l-170 -184q-41 -44 -41 -105q0 -63 46 -108t109 -45q89 0 133 78l123 219l127 -217
q47 -80 129 -80q63 0 109.5 45t46.5 108t-39 105l-170 184l246 51q54 11 88.5 53t34.5 97q0 63 -44.5 109t-107.5 46q-35 0 -63 -14l-230 -102l27 266q0 63 -44 107t-110 44z" />
    <glyph glyph-name="infinity" unicode="&#x221e;" 
d="M694 1257q55 0 120.5 -45t111.5 -111t49 -124q-2 -21 -8 -66q110 45 147 45q61 0 114.5 -30t87.5 -74.5t54.5 -92.5t22.5 -89q0 -67 -44 -120t-112 -67l-176 -37l121 -135q16 -23 23.5 -35.5t17.5 -43.5t10 -64q0 -72 -59 -125t-136 -53q-60 0 -140 57.5t-116 122.5
l-20 37l-35 -60q-29 -49 -46.5 -75.5t-32.5 -45.5t-30.5 -25.5t-29 -9t-39.5 -3.5q-64 0 -135.5 38.5t-122.5 105t-51 136.5q0 65 36 115l84 92q-107 20 -192.5 106.5t-85.5 174.5q0 85 56.5 142.5t140.5 57.5q39 0 79 -16l160 -74q-2 6 -6.5 36.5t-9 78.5t-4.5 82
q0 85 55.5 139.5t140.5 54.5zM694 1214q-63 0 -108 -44t-45 -107q0 -2 1 -7.5t1 -8.5l28 -250l-229 102q-32 14 -63 14q-66 0 -110 -45.5t-44 -111.5q0 -54 35 -95.5t86 -52.5l248 -51l-170 -184q-41 -44 -41 -105q0 -63 46 -108t109 -45q89 0 133 78l123 219l127 -217
q47 -80 129 -80q63 0 109.5 45t46.5 108t-39 105l-170 184l246 51q54 11 88.5 53t34.5 97q0 63 -44.5 109t-107.5 46q-35 0 -63 -14l-230 -102l27 266q0 63 -44 107t-110 44z" />
    <glyph glyph-name="integral" unicode="&#x222b;" 
d="M694 1257q55 0 120.5 -45t111.5 -111t49 -124q-2 -21 -8 -66q110 45 147 45q61 0 114.5 -30t87.5 -74.5t54.5 -92.5t22.5 -89q0 -67 -44 -120t-112 -67l-176 -37l121 -135q16 -23 23.5 -35.5t17.5 -43.5t10 -64q0 -72 -59 -125t-136 -53q-60 0 -140 57.5t-116 122.5
l-20 37l-35 -60q-29 -49 -46.5 -75.5t-32.5 -45.5t-30.5 -25.5t-29 -9t-39.5 -3.5q-64 0 -135.5 38.5t-122.5 105t-51 136.5q0 65 36 115l84 92q-107 20 -192.5 106.5t-85.5 174.5q0 85 56.5 142.5t140.5 57.5q39 0 79 -16l160 -74q-2 6 -6.5 36.5t-9 78.5t-4.5 82
q0 85 55.5 139.5t140.5 54.5zM694 1214q-63 0 -108 -44t-45 -107q0 -2 1 -7.5t1 -8.5l28 -250l-229 102q-32 14 -63 14q-66 0 -110 -45.5t-44 -111.5q0 -54 35 -95.5t86 -52.5l248 -51l-170 -184q-41 -44 -41 -105q0 -63 46 -108t109 -45q89 0 133 78l123 219l127 -217
q47 -80 129 -80q63 0 109.5 45t46.5 108t-39 105l-170 184l246 51q54 11 88.5 53t34.5 97q0 63 -44.5 109t-107.5 46q-35 0 -63 -14l-230 -102l27 266q0 63 -44 107t-110 44z" />
    <glyph glyph-name="approxequal" unicode="&#x2248;" 
d="M694 1257q55 0 120.5 -45t111.5 -111t49 -124q-2 -21 -8 -66q110 45 147 45q61 0 114.5 -30t87.5 -74.5t54.5 -92.5t22.5 -89q0 -67 -44 -120t-112 -67l-176 -37l121 -135q16 -23 23.5 -35.5t17.5 -43.5t10 -64q0 -72 -59 -125t-136 -53q-60 0 -140 57.5t-116 122.5
l-20 37l-35 -60q-29 -49 -46.5 -75.5t-32.5 -45.5t-30.5 -25.5t-29 -9t-39.5 -3.5q-64 0 -135.5 38.5t-122.5 105t-51 136.5q0 65 36 115l84 92q-107 20 -192.5 106.5t-85.5 174.5q0 85 56.5 142.5t140.5 57.5q39 0 79 -16l160 -74q-2 6 -6.5 36.5t-9 78.5t-4.5 82
q0 85 55.5 139.5t140.5 54.5zM694 1214q-63 0 -108 -44t-45 -107q0 -2 1 -7.5t1 -8.5l28 -250l-229 102q-32 14 -63 14q-66 0 -110 -45.5t-44 -111.5q0 -54 35 -95.5t86 -52.5l248 -51l-170 -184q-41 -44 -41 -105q0 -63 46 -108t109 -45q89 0 133 78l123 219l127 -217
q47 -80 129 -80q63 0 109.5 45t46.5 108t-39 105l-170 184l246 51q54 11 88.5 53t34.5 97q0 63 -44.5 109t-107.5 46q-35 0 -63 -14l-230 -102l27 266q0 63 -44 107t-110 44z" />
    <glyph glyph-name="notequal" unicode="&#x2260;" 
d="M694 1257q55 0 120.5 -45t111.5 -111t49 -124q-2 -21 -8 -66q110 45 147 45q61 0 114.5 -30t87.5 -74.5t54.5 -92.5t22.5 -89q0 -67 -44 -120t-112 -67l-176 -37l121 -135q16 -23 23.5 -35.5t17.5 -43.5t10 -64q0 -72 -59 -125t-136 -53q-60 0 -140 57.5t-116 122.5
l-20 37l-35 -60q-29 -49 -46.5 -75.5t-32.5 -45.5t-30.5 -25.5t-29 -9t-39.5 -3.5q-64 0 -135.5 38.5t-122.5 105t-51 136.5q0 65 36 115l84 92q-107 20 -192.5 106.5t-85.5 174.5q0 85 56.5 142.5t140.5 57.5q39 0 79 -16l160 -74q-2 6 -6.5 36.5t-9 78.5t-4.5 82
q0 85 55.5 139.5t140.5 54.5zM694 1214q-63 0 -108 -44t-45 -107q0 -2 1 -7.5t1 -8.5l28 -250l-229 102q-32 14 -63 14q-66 0 -110 -45.5t-44 -111.5q0 -54 35 -95.5t86 -52.5l248 -51l-170 -184q-41 -44 -41 -105q0 -63 46 -108t109 -45q89 0 133 78l123 219l127 -217
q47 -80 129 -80q63 0 109.5 45t46.5 108t-39 105l-170 184l246 51q54 11 88.5 53t34.5 97q0 63 -44.5 109t-107.5 46q-35 0 -63 -14l-230 -102l27 266q0 63 -44 107t-110 44z" />
    <glyph glyph-name="lessequal" unicode="&#x2264;" 
d="M694 1257q55 0 120.5 -45t111.5 -111t49 -124q-2 -21 -8 -66q110 45 147 45q61 0 114.5 -30t87.5 -74.5t54.5 -92.5t22.5 -89q0 -67 -44 -120t-112 -67l-176 -37l121 -135q16 -23 23.5 -35.5t17.5 -43.5t10 -64q0 -72 -59 -125t-136 -53q-60 0 -140 57.5t-116 122.5
l-20 37l-35 -60q-29 -49 -46.5 -75.5t-32.5 -45.5t-30.5 -25.5t-29 -9t-39.5 -3.5q-64 0 -135.5 38.5t-122.5 105t-51 136.5q0 65 36 115l84 92q-107 20 -192.5 106.5t-85.5 174.5q0 85 56.5 142.5t140.5 57.5q39 0 79 -16l160 -74q-2 6 -6.5 36.5t-9 78.5t-4.5 82
q0 85 55.5 139.5t140.5 54.5zM694 1214q-63 0 -108 -44t-45 -107q0 -2 1 -7.5t1 -8.5l28 -250l-229 102q-32 14 -63 14q-66 0 -110 -45.5t-44 -111.5q0 -54 35 -95.5t86 -52.5l248 -51l-170 -184q-41 -44 -41 -105q0 -63 46 -108t109 -45q89 0 133 78l123 219l127 -217
q47 -80 129 -80q63 0 109.5 45t46.5 108t-39 105l-170 184l246 51q54 11 88.5 53t34.5 97q0 63 -44.5 109t-107.5 46q-35 0 -63 -14l-230 -102l27 266q0 63 -44 107t-110 44z" />
    <glyph glyph-name="greaterequal" unicode="&#x2265;" 
d="M694 1257q55 0 120.5 -45t111.5 -111t49 -124q-2 -21 -8 -66q110 45 147 45q61 0 114.5 -30t87.5 -74.5t54.5 -92.5t22.5 -89q0 -67 -44 -120t-112 -67l-176 -37l121 -135q16 -23 23.5 -35.5t17.5 -43.5t10 -64q0 -72 -59 -125t-136 -53q-60 0 -140 57.5t-116 122.5
l-20 37l-35 -60q-29 -49 -46.5 -75.5t-32.5 -45.5t-30.5 -25.5t-29 -9t-39.5 -3.5q-64 0 -135.5 38.5t-122.5 105t-51 136.5q0 65 36 115l84 92q-107 20 -192.5 106.5t-85.5 174.5q0 85 56.5 142.5t140.5 57.5q39 0 79 -16l160 -74q-2 6 -6.5 36.5t-9 78.5t-4.5 82
q0 85 55.5 139.5t140.5 54.5zM694 1214q-63 0 -108 -44t-45 -107q0 -2 1 -7.5t1 -8.5l28 -250l-229 102q-32 14 -63 14q-66 0 -110 -45.5t-44 -111.5q0 -54 35 -95.5t86 -52.5l248 -51l-170 -184q-41 -44 -41 -105q0 -63 46 -108t109 -45q89 0 133 78l123 219l127 -217
q47 -80 129 -80q63 0 109.5 45t46.5 108t-39 105l-170 184l246 51q54 11 88.5 53t34.5 97q0 63 -44.5 109t-107.5 46q-35 0 -63 -14l-230 -102l27 266q0 63 -44 107t-110 44z" />
    <glyph glyph-name="lozenge" unicode="&#x25ca;" 
d="M694 1257q55 0 120.5 -45t111.5 -111t49 -124q-2 -21 -8 -66q110 45 147 45q61 0 114.5 -30t87.5 -74.5t54.5 -92.5t22.5 -89q0 -67 -44 -120t-112 -67l-176 -37l121 -135q16 -23 23.5 -35.5t17.5 -43.5t10 -64q0 -72 -59 -125t-136 -53q-60 0 -140 57.5t-116 122.5
l-20 37l-35 -60q-29 -49 -46.5 -75.5t-32.5 -45.5t-30.5 -25.5t-29 -9t-39.5 -3.5q-64 0 -135.5 38.5t-122.5 105t-51 136.5q0 65 36 115l84 92q-107 20 -192.5 106.5t-85.5 174.5q0 85 56.5 142.5t140.5 57.5q39 0 79 -16l160 -74q-2 6 -6.5 36.5t-9 78.5t-4.5 82
q0 85 55.5 139.5t140.5 54.5zM694 1214q-63 0 -108 -44t-45 -107q0 -2 1 -7.5t1 -8.5l28 -250l-229 102q-32 14 -63 14q-66 0 -110 -45.5t-44 -111.5q0 -54 35 -95.5t86 -52.5l248 -51l-170 -184q-41 -44 -41 -105q0 -63 46 -108t109 -45q89 0 133 78l123 219l127 -217
q47 -80 129 -80q63 0 109.5 45t46.5 108t-39 105l-170 184l246 51q54 11 88.5 53t34.5 97q0 63 -44.5 109t-107.5 46q-35 0 -63 -14l-230 -102l27 266q0 63 -44 107t-110 44z" />
    <glyph glyph-name="apple" horiz-adv-x="1339" 
d="M84 678q1 101 27 180t65 125.5t90 76.5t96 41t89 11q21 0 36.5 -1t33.5 -5.5t28 -7.5t37.5 -12t46.5 -15q0 271 340 344q15 -10 82 -94q0 -100 -7.5 -146t-27.5 -83q44 -8 84.5 -28.5t67.5 -44.5t51 -52.5t36.5 -50t23 -40t11.5 -20.5h-10q-69 0 -113.5 -73t-44.5 -162
q0 -55 12 -84t31 -41t66 -46.5t94 -82.5l-22 -50q-18 -39 -46 -88.5t-32 -58.5l4 -2q-18 -22 -31 -45h-4q-121 -148 -231 -148q-25 0 -107 25t-88 25q-8 0 -90 -20.5t-109 -20.5q-59 0 -136 48.5t-158 143.5q-7 9 -19.5 25t-44.5 68.5t-57 108t-47.5 138t-26.5 162.5z
M1165 942q-112 127 -272 127q-21 0 -106 -26.5t-105 -26.5t-106 26.5t-107 26.5q-213 0 -305 -195h919q37 43 82 68zM1067 522h-917q2 -14 7.5 -31t10 -28t14 -33t13.5 -31h979l16 37q-78 35 -123 86zM143 557h901q-29 53 -32 129h-885q3 -75 16 -129zM1057 842h-905
q-22 -58 -25 -123h887q6 68 43 123zM279 250h813q20 28 65 117h-948q31 -66 70 -117zM487 100q18 0 97.5 26t99.5 26q18 0 97 -26t98 -26q107 0 190 117h-766q94 -117 184 -117zM696 1055q92 0 164 82.5t72 177.5v24q0 7 -2 11v12q-106 -23 -179 -103t-73 -174v-16
q0 -14 18 -14z" />
    </font>
</defs>
</svg>
